{"glyphs":{"0":{"ha":682,"x_min":63,"x_max":619,"o":"m 342 -12 q 550 77 481 -12 q 619 319 619 167 l 619 804 q 551 1047 619 958 q 342 1135 482 1135 q 131 1047 200 1135 q 63 804 63 958 l 63 319 q 133 78 63 168 q 342 -12 203 -12 m 342 110 q 213 318 213 110 l 213 806 q 240 958 213 901 q 342 1014 268 1014 q 442 958 415 1014 q 469 806 469 901 l 469 318 q 342 110 469 110 "},"1":{"ha":649,"x_min":113,"x_max":457,"o":"m 308 931 l 308 0 l 457 0 l 457 1125 l 344 1125 q 113 1003 282 1043 l 113 890 q 224 911 143 896 q 308 931 306 926 "},"2":{"ha":664,"x_min":57,"x_max":614,"o":"m 57 106 l 57 0 l 588 0 l 588 125 l 232 125 l 490 519 q 560 631 538 592 q 598 723 582 669 q 614 844 614 776 q 546 1059 614 983 q 344 1135 478 1135 q 135 1050 200 1135 q 69 807 69 965 l 69 768 l 218 768 l 218 806 q 351 1013 218 1013 q 438 969 411 1013 q 464 846 464 926 q 442 722 464 774 q 371 593 419 671 q 343 551 364 585 l 57 106 "},"3":{"ha":649,"x_min":56,"x_max":608,"o":"m 331 -12 q 541 74 474 -12 q 608 318 608 161 q 566 504 608 432 q 447 600 524 576 q 565 685 522 622 q 608 846 608 747 q 538 1059 608 983 q 332 1135 468 1135 q 126 1060 196 1135 q 56 847 56 985 l 56 810 l 203 810 l 203 833 q 233 968 206 922 q 332 1014 260 1014 q 432 972 404 1014 q 460 846 460 929 q 425 717 460 756 q 311 675 390 678 l 292 675 l 292 526 q 313 525 307 526 q 425 466 390 519 q 460 318 460 413 q 433 163 460 215 q 331 111 406 111 q 233 157 260 111 q 203 289 206 203 l 203 314 l 56 314 l 56 276 q 126 63 56 139 q 331 -12 196 -12 "},"4":{"ha":682,"x_min":56,"x_max":654,"o":"m 379 296 l 379 0 l 529 0 l 529 296 l 654 296 l 654 436 l 529 436 l 529 1125 l 344 1125 l 56 461 l 56 296 l 379 296 m 379 436 l 206 436 l 379 936 l 379 436 "},"5":{"ha":661,"x_min":65,"x_max":617,"o":"m 338 -11 q 554 96 492 -11 q 617 394 617 203 q 562 640 617 551 q 378 728 507 728 q 215 665 275 728 l 225 976 l 575 976 l 575 1125 l 90 1125 l 90 522 l 217 522 q 266 589 233 563 q 342 615 299 615 q 423 588 396 615 q 459 510 450 561 q 468 375 468 460 q 460 228 468 283 q 425 140 453 174 q 340 107 397 107 q 240 164 265 107 q 214 315 214 221 l 65 315 q 128 72 65 154 q 338 -11 192 -11 "},"6":{"ha":679,"x_min":75,"x_max":631,"o":"m 351 -12 q 563 88 494 -12 q 631 354 631 189 q 575 595 631 511 q 388 679 519 679 q 288 658 331 679 q 224 601 246 638 l 224 772 q 351 1013 224 1013 q 450 972 422 1013 q 478 844 478 931 l 628 844 l 626 861 q 553 1064 624 993 q 351 1135 482 1135 q 139 1026 203 1135 q 75 736 75 918 l 75 357 q 144 90 75 192 q 351 -12 213 -12 m 351 111 q 253 169 283 111 q 224 322 224 226 l 224 490 q 276 544 243 522 q 351 567 308 567 q 439 535 411 567 q 474 453 467 503 q 481 318 481 403 q 451 168 481 225 q 351 111 421 111 "},"7":{"ha":535,"x_min":38,"x_max":488,"o":"m 339 1008 l 136 0 l 279 0 l 488 1053 l 488 1125 l 38 1125 l 38 1008 l 339 1008 "},"8":{"ha":664,"x_min":56,"x_max":610,"o":"m 333 -12 q 544 73 479 -12 q 610 317 610 158 q 574 486 610 422 q 469 593 538 550 q 563 694 531 633 q 594 844 594 754 q 530 1058 594 982 q 333 1135 465 1135 q 135 1058 200 1135 q 69 844 69 982 q 194 593 69 676 q 91 488 126 551 q 56 317 56 424 q 121 72 56 157 q 333 -12 186 -12 m 333 661 q 242 716 268 663 q 215 853 215 769 q 244 974 215 928 q 333 1019 272 1019 q 422 974 394 1019 q 449 853 449 928 q 333 661 449 663 m 333 106 q 227 160 257 106 q 197 314 197 215 q 229 461 197 404 q 333 519 261 518 q 435 461 404 518 q 467 314 467 404 q 438 160 467 215 q 333 106 408 106 "},"9":{"ha":679,"x_min":61,"x_max":617,"o":"m 340 -12 q 553 97 489 -12 q 617 389 617 207 l 617 767 q 548 1033 617 931 q 340 1135 479 1135 q 129 1035 197 1135 q 61 769 61 935 q 116 528 61 613 q 303 444 171 444 q 403 465 363 444 q 467 522 444 486 l 467 351 q 342 111 467 111 q 241 152 269 111 q 213 279 213 193 l 64 279 l 64 267 q 138 60 67 132 q 340 -12 208 -12 m 340 557 q 253 589 281 557 q 218 671 225 621 q 211 806 211 721 q 241 955 211 897 q 340 1013 271 1013 q 467 801 467 1013 l 467 635 q 340 557 422 557 "},"\u0000":{"ha":0,"x_min":0,"x_max":0,"o":""},"\r":{"ha":318,"x_min":0,"x_max":0,"o":""}," ":{"ha":318,"x_min":0,"x_max":0,"o":""},"A":{"ha":683,"x_min":26,"x_max":657,"o":"m 265 1125 l 26 0 l 174 0 l 228 283 l 457 283 l 508 0 l 657 0 l 417 1125 l 265 1125 m 436 396 l 249 396 l 342 903 l 436 396 "},"Á":{"ha":683,"x_min":26,"x_max":657,"o":"m 265 1125 l 26 0 l 174 0 l 228 283 l 457 283 l 508 0 l 657 0 l 417 1125 l 265 1125 m 436 396 l 249 396 l 342 903 l 436 396 m 385 1467 l 303 1192 l 378 1192 l 533 1467 l 385 1467 "},"Ă":{"ha":683,"x_min":26,"x_max":657,"o":"m 265 1125 l 26 0 l 174 0 l 228 283 l 457 283 l 508 0 l 657 0 l 417 1125 l 265 1125 m 436 396 l 249 396 l 342 903 l 436 396 m 342 1213 q 481 1264 438 1213 q 525 1401 525 1315 l 438 1401 q 342 1297 438 1297 q 269 1323 292 1297 q 246 1401 247 1349 l 160 1401 q 203 1264 160 1315 q 342 1213 247 1213 "},"Ắ":{"ha":683,"x_min":26,"x_max":657,"o":"m 265 1125 l 26 0 l 174 0 l 228 283 l 457 283 l 508 0 l 657 0 l 417 1125 l 265 1125 m 436 396 l 249 396 l 342 903 l 436 396 m 360 1607 l 271 1443 l 360 1443 l 508 1607 l 360 1607 m 342 1186 q 481 1238 438 1186 q 525 1375 525 1289 l 438 1375 q 342 1271 438 1271 q 269 1297 292 1271 q 246 1375 247 1322 l 160 1375 q 203 1238 160 1289 q 342 1186 247 1186 "},"Ặ":{"ha":683,"x_min":26,"x_max":657,"o":"m 265 1125 l 26 0 l 174 0 l 228 283 l 457 283 l 508 0 l 657 0 l 417 1125 l 265 1125 m 436 396 l 249 396 l 342 903 l 436 396 m 267 -87 l 267 -244 l 417 -244 l 417 -87 l 267 -87 m 342 1213 q 481 1264 438 1213 q 525 1401 525 1315 l 438 1401 q 342 1297 438 1297 q 269 1323 292 1297 q 246 1401 247 1349 l 160 1401 q 203 1264 160 1315 q 342 1213 247 1213 "},"Ằ":{"ha":683,"x_min":26,"x_max":657,"o":"m 265 1125 l 26 0 l 174 0 l 228 283 l 457 283 l 508 0 l 657 0 l 417 1125 l 265 1125 m 436 396 l 249 396 l 342 903 l 436 396 m 169 1607 l 318 1443 l 407 1443 l 318 1607 l 169 1607 m 342 1186 q 481 1238 438 1186 q 525 1375 525 1289 l 438 1375 q 342 1271 438 1271 q 269 1297 292 1271 q 246 1375 247 1322 l 160 1375 q 203 1238 160 1289 q 342 1186 247 1186 "},"Ẳ":{"ha":683,"x_min":26,"x_max":657,"o":"m 265 1125 l 26 0 l 174 0 l 228 283 l 457 283 l 508 0 l 657 0 l 417 1125 l 265 1125 m 436 396 l 249 396 l 342 903 l 436 396 m 300 1458 l 347 1403 q 478 1551 478 1456 q 438 1642 478 1611 q 336 1672 399 1672 q 235 1658 282 1672 l 235 1583 q 299 1593 264 1593 q 348 1580 329 1593 q 367 1539 367 1567 q 351 1496 367 1514 q 300 1458 335 1478 m 342 1213 q 481 1264 438 1213 q 525 1401 525 1315 l 438 1401 q 342 1297 438 1297 q 269 1323 292 1297 q 246 1401 247 1349 l 160 1401 q 203 1264 160 1315 q 342 1213 247 1213 "},"Ẵ":{"ha":683,"x_min":26,"x_max":657,"o":"m 265 1125 l 26 0 l 174 0 l 228 283 l 457 283 l 508 0 l 657 0 l 417 1125 l 265 1125 m 436 396 l 249 396 l 342 903 l 436 396 m 340 1213 q 480 1264 436 1213 q 524 1401 524 1315 l 436 1401 q 340 1297 436 1297 q 268 1323 290 1297 q 244 1401 246 1349 l 158 1401 q 202 1264 158 1315 q 340 1213 246 1213 m 447 1469 q 527 1510 504 1469 q 550 1622 550 1551 l 467 1622 q 456 1577 467 1590 q 421 1564 446 1564 q 384 1572 401 1564 q 339 1596 367 1579 q 290 1622 311 1613 q 244 1631 268 1631 q 133 1481 133 1631 l 218 1481 q 229 1524 218 1511 q 265 1538 240 1538 q 300 1530 283 1538 q 344 1507 317 1522 q 397 1479 374 1489 q 447 1469 419 1469 "},"Â":{"ha":683,"x_min":26,"x_max":657,"o":"m 265 1125 l 26 0 l 174 0 l 228 283 l 457 283 l 508 0 l 657 0 l 417 1125 l 265 1125 m 436 396 l 249 396 l 342 903 l 436 396 m 265 1447 l 146 1204 l 257 1204 l 340 1372 l 425 1204 l 538 1204 l 417 1447 l 265 1447 "},"Ấ":{"ha":683,"x_min":26,"x_max":721,"o":"m 265 1125 l 26 0 l 174 0 l 228 283 l 457 283 l 508 0 l 657 0 l 417 1125 l 265 1125 m 436 396 l 249 396 l 342 903 l 436 396 m 592 1508 l 518 1349 l 610 1349 l 721 1508 l 592 1508 m 265 1419 l 146 1204 l 257 1204 l 340 1344 l 425 1204 l 538 1204 l 417 1419 l 265 1419 "},"Ậ":{"ha":683,"x_min":26,"x_max":657,"o":"m 265 1125 l 26 0 l 174 0 l 228 283 l 457 283 l 508 0 l 657 0 l 417 1125 l 265 1125 m 436 396 l 249 396 l 342 903 l 436 396 m 265 1419 l 146 1204 l 257 1204 l 340 1344 l 425 1204 l 538 1204 l 417 1419 l 265 1419 m 267 -87 l 267 -244 l 417 -244 l 417 -87 l 267 -87 "},"Ầ":{"ha":683,"x_min":26,"x_max":657,"o":"m 265 1125 l 26 0 l 174 0 l 228 283 l 457 283 l 508 0 l 657 0 l 417 1125 l 265 1125 m 436 396 l 249 396 l 342 903 l 436 396 m 442 1508 l 553 1349 l 644 1349 l 571 1508 l 442 1508 m 265 1419 l 146 1204 l 257 1204 l 340 1344 l 425 1204 l 538 1204 l 417 1419 l 265 1419 "},"Ẩ":{"ha":683,"x_min":26,"x_max":682,"o":"m 265 1125 l 26 0 l 174 0 l 228 283 l 457 283 l 508 0 l 657 0 l 417 1125 l 265 1125 m 436 396 l 249 396 l 342 903 l 436 396 m 504 1374 l 551 1318 q 649 1377 615 1344 q 682 1467 682 1410 q 642 1557 682 1526 q 540 1588 603 1588 q 439 1574 486 1588 l 439 1499 q 503 1508 468 1508 q 552 1495 533 1508 q 571 1454 571 1482 q 555 1411 571 1429 q 504 1374 539 1393 m 265 1419 l 146 1204 l 257 1204 l 340 1344 l 425 1204 l 538 1204 l 417 1419 l 265 1419 "},"Ẫ":{"ha":683,"x_min":26,"x_max":657,"o":"m 265 1125 l 26 0 l 174 0 l 228 283 l 457 283 l 508 0 l 657 0 l 417 1125 l 265 1125 m 436 396 l 249 396 l 342 903 l 436 396 m 265 1419 l 146 1204 l 257 1204 l 340 1344 l 425 1204 l 538 1204 l 417 1419 l 265 1419 m 447 1483 q 527 1524 504 1483 q 550 1636 550 1565 l 467 1636 q 456 1591 467 1604 q 421 1578 446 1578 q 384 1585 401 1578 q 339 1610 367 1593 q 290 1635 311 1626 q 244 1644 268 1644 q 133 1494 133 1644 l 218 1494 q 229 1538 218 1525 q 265 1551 240 1551 q 300 1544 283 1551 q 344 1521 317 1536 q 397 1493 374 1503 q 447 1483 419 1483 "},"Ȁ":{"ha":683,"x_min":26,"x_max":657,"o":"m 265 1125 l 26 0 l 174 0 l 228 283 l 457 283 l 508 0 l 657 0 l 417 1125 l 265 1125 m 436 396 l 249 396 l 342 903 l 436 396 m 68 1447 l 224 1211 l 299 1211 l 218 1447 l 68 1447 m 299 1447 l 401 1211 l 476 1211 l 421 1447 l 299 1447 "},"Ä":{"ha":683,"x_min":26,"x_max":657,"o":"m 265 1125 l 26 0 l 174 0 l 228 283 l 457 283 l 508 0 l 657 0 l 417 1125 l 265 1125 m 436 396 l 249 396 l 342 903 l 436 396 m 147 1447 l 147 1293 l 297 1293 l 297 1447 l 147 1447 m 386 1447 l 386 1293 l 536 1293 l 536 1447 l 386 1447 "},"Ạ":{"ha":683,"x_min":26,"x_max":657,"o":"m 265 1125 l 26 0 l 174 0 l 228 283 l 457 283 l 508 0 l 657 0 l 417 1125 l 265 1125 m 436 396 l 249 396 l 342 903 l 436 396 m 267 -87 l 267 -244 l 417 -244 l 417 -87 l 267 -87 "},"À":{"ha":683,"x_min":26,"x_max":657,"o":"m 265 1125 l 26 0 l 174 0 l 228 283 l 457 283 l 508 0 l 657 0 l 417 1125 l 265 1125 m 436 396 l 249 396 l 342 903 l 436 396 m 153 1467 l 307 1192 l 381 1192 l 301 1467 l 153 1467 "},"Ả":{"ha":683,"x_min":26,"x_max":657,"o":"m 265 1125 l 26 0 l 174 0 l 228 283 l 457 283 l 508 0 l 657 0 l 417 1125 l 265 1125 m 436 396 l 249 396 l 342 903 l 436 396 m 296 1261 l 343 1206 q 458 1265 419 1232 q 497 1354 497 1297 q 454 1444 497 1414 q 343 1475 411 1475 q 231 1461 285 1475 l 231 1386 q 301 1396 264 1396 q 363 1383 339 1396 q 386 1342 386 1369 q 364 1299 386 1317 q 296 1261 342 1281 "},"Ȃ":{"ha":683,"x_min":26,"x_max":657,"o":"m 265 1125 l 26 0 l 174 0 l 228 283 l 457 283 l 508 0 l 657 0 l 417 1125 l 265 1125 m 436 396 l 249 396 l 342 903 l 436 396 m 158 1240 l 246 1240 q 269 1334 247 1306 q 342 1363 290 1363 q 416 1335 394 1363 q 438 1240 438 1307 l 525 1240 q 485 1392 525 1338 q 342 1447 444 1447 q 199 1393 239 1447 q 158 1240 160 1339 "},"Ā":{"ha":683,"x_min":26,"x_max":657,"o":"m 265 1125 l 26 0 l 174 0 l 228 283 l 457 283 l 508 0 l 657 0 l 417 1125 l 265 1125 m 436 396 l 249 396 l 342 903 l 436 396 m 208 1364 l 208 1274 l 475 1274 l 475 1364 l 208 1364 "},"Ą":{"ha":683,"x_min":26,"x_max":675,"o":"m 265 1125 l 26 0 l 174 0 l 228 283 l 457 283 l 508 0 l 657 0 l 417 1125 l 265 1125 m 436 396 l 249 396 l 342 903 l 436 396 m 600 -321 q 650 -317 626 -321 l 675 -243 q 631 -246 650 -246 q 519 -179 519 -246 q 554 -88 519 -136 q 636 0 589 -40 l 561 0 q 489 -42 525 -11 q 430 -116 453 -74 q 407 -201 407 -158 q 458 -297 407 -272 q 600 -321 510 -321 "},"Å":{"ha":683,"x_min":26,"x_max":657,"o":"m 265 1125 l 26 0 l 174 0 l 228 283 l 457 283 l 508 0 l 657 0 l 417 1125 l 265 1125 m 436 396 l 249 396 l 342 903 l 436 396 m 342 1150 q 454 1192 411 1150 q 497 1306 497 1235 q 455 1418 497 1376 q 342 1460 413 1460 q 228 1418 271 1460 q 186 1306 186 1376 q 229 1192 186 1235 q 342 1150 272 1150 m 342 1225 q 283 1247 304 1225 q 261 1306 261 1268 q 283 1365 261 1344 q 342 1386 304 1386 q 401 1365 379 1386 q 422 1306 422 1343 q 400 1247 422 1268 q 342 1225 378 1225 "},"Ǻ":{"ha":683,"x_min":26,"x_max":657,"o":"m 265 1125 l 26 0 l 174 0 l 228 283 l 457 283 l 508 0 l 657 0 l 417 1125 l 265 1125 m 436 396 l 249 396 l 342 903 l 436 396 m 342 1150 q 454 1192 411 1150 q 497 1306 497 1235 q 455 1418 497 1376 q 342 1460 413 1460 q 228 1418 271 1460 q 186 1306 186 1376 q 229 1192 186 1235 q 342 1150 272 1150 m 342 1225 q 283 1247 304 1225 q 261 1306 261 1268 q 283 1365 261 1344 q 342 1386 304 1386 q 401 1365 379 1386 q 422 1306 422 1343 q 400 1247 422 1268 q 342 1225 378 1225 m 385 1801 l 303 1526 l 378 1526 l 533 1801 l 385 1801 "},"Ã":{"ha":683,"x_min":26,"x_max":657,"o":"m 265 1125 l 26 0 l 174 0 l 228 283 l 457 283 l 508 0 l 657 0 l 417 1125 l 265 1125 m 436 396 l 249 396 l 342 903 l 436 396 m 447 1294 q 527 1335 504 1294 q 550 1447 550 1376 l 467 1447 q 456 1402 467 1415 q 421 1389 446 1389 q 384 1397 401 1389 q 339 1421 367 1404 q 290 1447 311 1438 q 244 1456 268 1456 q 133 1306 133 1456 l 218 1306 q 229 1349 218 1336 q 265 1363 240 1363 q 300 1355 283 1363 q 344 1332 317 1347 q 397 1304 374 1314 q 447 1294 419 1294 "},"Æ":{"ha":882,"x_min":-71,"x_max":840,"o":"m 403 1125 l -71 0 l 79 0 l 199 285 l 406 285 l 406 0 l 840 0 l 840 114 l 556 114 l 556 526 l 760 526 l 760 639 l 556 639 l 556 1011 l 840 1011 l 840 1125 l 403 1125 m 406 397 l 240 397 l 406 840 l 406 397 "},"Ǽ":{"ha":882,"x_min":-71,"x_max":840,"o":"m 403 1125 l -71 0 l 79 0 l 199 285 l 406 285 l 406 0 l 840 0 l 840 114 l 556 114 l 556 526 l 760 526 l 760 639 l 556 639 l 556 1011 l 840 1011 l 840 1125 l 403 1125 m 406 397 l 240 397 l 406 840 l 406 397 m 524 1467 l 442 1192 l 517 1192 l 672 1467 l 524 1467 "},"B":{"ha":728,"x_min":88,"x_max":676,"o":"m 88 1125 l 88 0 l 388 0 q 605 85 533 0 q 676 321 676 169 q 631 512 676 442 q 485 606 585 582 q 646 843 646 628 q 572 1056 646 988 q 346 1125 499 1125 l 88 1125 m 338 656 l 244 656 l 244 1008 l 282 1008 q 418 999 372 1008 q 487 953 464 989 q 510 843 510 918 q 472 698 510 740 q 338 656 435 656 m 350 113 l 244 113 l 244 536 l 338 536 q 482 483 438 536 q 526 321 526 429 q 511 200 526 244 q 458 134 496 156 q 350 113 419 113 "},"Ḃ":{"ha":728,"x_min":88,"x_max":676,"o":"m 88 1125 l 88 0 l 388 0 q 605 85 533 0 q 676 321 676 169 q 631 512 676 442 q 485 606 585 582 q 646 843 646 628 q 572 1056 646 988 q 346 1125 499 1125 l 88 1125 m 338 656 l 244 656 l 244 1008 l 282 1008 q 418 999 372 1008 q 487 953 464 989 q 510 843 510 918 q 472 698 510 740 q 338 656 435 656 m 350 113 l 244 113 l 244 536 l 338 536 q 482 483 438 536 q 526 321 526 429 q 511 200 526 244 q 458 134 496 156 q 350 113 419 113 m 289 1419 l 289 1254 l 439 1254 l 439 1419 l 289 1419 "},"C":{"ha":715,"x_min":67,"x_max":653,"o":"m 369 -12 q 590 77 526 -12 q 653 335 653 167 l 653 418 l 504 418 l 504 335 q 497 210 504 256 q 460 138 489 164 q 371 111 431 111 q 284 132 315 111 q 239 201 253 153 q 225 336 225 250 l 225 782 q 235 910 225 863 q 276 985 244 958 q 371 1013 307 1013 q 462 988 433 1013 q 497 921 490 963 q 504 801 504 879 l 504 722 l 653 722 l 653 811 q 587 1053 653 971 q 369 1135 521 1135 q 133 1039 200 1135 q 67 758 67 943 l 67 361 q 135 87 67 186 q 369 -12 203 -12 "},"Ć":{"ha":715,"x_min":67,"x_max":653,"o":"m 369 -12 q 590 77 526 -12 q 653 335 653 167 l 653 418 l 504 418 l 504 335 q 497 210 504 256 q 460 138 489 164 q 371 111 431 111 q 284 132 315 111 q 239 201 253 153 q 225 336 225 250 l 225 782 q 235 910 225 863 q 276 985 244 958 q 371 1013 307 1013 q 462 988 433 1013 q 497 921 490 963 q 504 801 504 879 l 504 722 l 653 722 l 653 811 q 587 1053 653 971 q 369 1135 521 1135 q 133 1039 200 1135 q 67 758 67 943 l 67 361 q 135 87 67 186 q 369 -12 203 -12 m 401 1467 l 319 1192 l 394 1192 l 550 1467 l 401 1467 "},"Č":{"ha":715,"x_min":67,"x_max":653,"o":"m 369 -12 q 590 77 526 -12 q 653 335 653 167 l 653 418 l 504 418 l 504 335 q 497 210 504 256 q 460 138 489 164 q 371 111 431 111 q 284 132 315 111 q 239 201 253 153 q 225 336 225 250 l 225 782 q 235 910 225 863 q 276 985 244 958 q 371 1013 307 1013 q 462 988 433 1013 q 497 921 490 963 q 504 801 504 879 l 504 722 l 653 722 l 653 811 q 587 1053 653 971 q 369 1135 521 1135 q 133 1039 200 1135 q 67 758 67 943 l 67 361 q 135 87 67 186 q 369 -12 203 -12 m 164 1447 l 285 1207 l 431 1207 l 553 1447 l 439 1447 l 358 1285 l 278 1447 l 164 1447 "},"Ç":{"ha":715,"x_min":67,"x_max":653,"o":"m 504 722 l 653 722 l 653 811 q 587 1053 653 971 q 369 1135 521 1135 q 133 1039 200 1135 q 67 758 67 943 l 67 361 q 124 103 67 200 q 321 -10 182 6 l 321 -115 q 410 -141 382 -124 q 439 -193 439 -158 q 415 -234 439 -221 q 354 -247 392 -247 q 283 -237 317 -247 l 283 -312 q 376 -326 336 -326 q 502 -294 454 -326 q 550 -197 550 -261 q 508 -110 550 -143 q 396 -78 465 -78 l 396 -11 q 595 85 538 -4 q 653 335 653 174 l 653 418 l 504 418 l 504 335 q 497 210 504 256 q 460 138 489 164 q 371 111 431 111 q 284 132 315 111 q 239 201 253 153 q 225 336 225 250 l 225 782 q 235 910 225 863 q 276 985 244 958 q 371 1013 307 1013 q 462 988 433 1013 q 497 921 490 963 q 504 801 504 879 l 504 722 "},"Ĉ":{"ha":715,"x_min":67,"x_max":653,"o":"m 369 -12 q 590 77 526 -12 q 653 335 653 167 l 653 418 l 504 418 l 504 335 q 497 210 504 256 q 460 138 489 164 q 371 111 431 111 q 284 132 315 111 q 239 201 253 153 q 225 336 225 250 l 225 782 q 235 910 225 863 q 276 985 244 958 q 371 1013 307 1013 q 462 988 433 1013 q 497 921 490 963 q 504 801 504 879 l 504 722 l 653 722 l 653 811 q 587 1053 653 971 q 369 1135 521 1135 q 133 1039 200 1135 q 67 758 67 943 l 67 361 q 135 87 67 186 q 369 -12 203 -12 m 282 1447 l 163 1204 l 274 1204 l 357 1372 l 442 1204 l 554 1204 l 433 1447 l 282 1447 "},"Ċ":{"ha":715,"x_min":67,"x_max":653,"o":"m 369 -12 q 590 77 526 -12 q 653 335 653 167 l 653 418 l 504 418 l 504 335 q 497 210 504 256 q 460 138 489 164 q 371 111 431 111 q 284 132 315 111 q 239 201 253 153 q 225 336 225 250 l 225 782 q 235 910 225 863 q 276 985 244 958 q 371 1013 307 1013 q 462 988 433 1013 q 497 921 490 963 q 504 801 504 879 l 504 722 l 653 722 l 653 811 q 587 1053 653 971 q 369 1135 521 1135 q 133 1039 200 1135 q 67 758 67 943 l 67 361 q 135 87 67 186 q 369 -12 203 -12 m 283 1419 l 283 1254 l 433 1254 l 433 1419 l 283 1419 "},"D":{"ha":732,"x_min":88,"x_max":665,"o":"m 88 1125 l 88 0 l 344 0 q 591 91 517 0 q 665 368 665 182 l 665 782 q 590 1042 665 958 q 332 1125 514 1125 l 88 1125 m 333 113 l 244 113 l 244 1008 l 329 1008 q 446 984 408 1008 q 495 909 483 960 q 507 763 507 858 l 507 397 q 498 231 507 286 q 452 144 489 176 q 333 113 415 113 "},"Ǳ":{"ha":1311,"x_min":88,"x_max":1282,"o":"m 88 1125 l 88 0 l 344 0 q 591 91 517 0 q 665 368 665 182 l 665 782 q 590 1042 665 958 q 332 1125 514 1125 l 88 1125 m 333 113 l 244 113 l 244 1008 l 329 1008 q 446 984 408 1008 q 495 909 483 960 q 507 763 507 858 l 507 397 q 498 231 507 286 q 452 144 489 176 q 333 113 415 113 m 785 113 l 785 0 l 1282 0 l 1282 113 l 933 113 l 1282 1057 l 1282 1125 l 806 1125 l 806 1013 l 1115 1013 l 785 113 "},"Ǆ":{"ha":1311,"x_min":88,"x_max":1282,"o":"m 88 1125 l 88 0 l 344 0 q 591 91 517 0 q 665 368 665 182 l 665 782 q 590 1042 665 958 q 332 1125 514 1125 l 88 1125 m 333 113 l 244 113 l 244 1008 l 329 1008 q 446 984 408 1008 q 495 909 483 960 q 507 763 507 858 l 507 397 q 498 231 507 286 q 452 144 489 176 q 333 113 415 113 m 785 113 l 785 0 l 1282 0 l 1282 113 l 933 113 l 1282 1057 l 1282 1125 l 806 1125 l 806 1013 l 1115 1013 l 785 113 m 828 1447 l 949 1207 l 1094 1207 l 1217 1447 l 1103 1447 l 1022 1285 l 942 1447 l 828 1447 "},"Ð":{"ha":719,"x_min":19,"x_max":665,"o":"m 88 539 l 88 0 l 344 0 q 591 91 517 0 q 665 368 665 182 l 665 782 q 590 1042 665 958 q 332 1125 514 1125 l 88 1125 l 88 629 l 19 629 l 19 539 l 88 539 m 333 113 l 244 113 l 244 539 l 329 539 l 329 629 l 244 629 l 244 1008 l 329 1008 q 446 984 408 1008 q 495 909 483 960 q 507 763 507 858 l 507 397 q 498 231 507 286 q 452 144 489 176 q 333 113 415 113 "},"Ď":{"ha":732,"x_min":88,"x_max":665,"o":"m 88 1125 l 88 0 l 344 0 q 591 91 517 0 q 665 368 665 182 l 665 782 q 590 1042 665 958 q 332 1125 514 1125 l 88 1125 m 333 113 l 244 113 l 244 1008 l 329 1008 q 446 984 408 1008 q 495 909 483 960 q 507 763 507 858 l 507 397 q 498 231 507 286 q 452 144 489 176 q 333 113 415 113 m 172 1447 l 293 1207 l 439 1207 l 561 1447 l 447 1447 l 367 1285 l 286 1447 l 172 1447 "},"Đ":{"ha":735,"x_min":24,"x_max":667,"o":"m 90 539 l 90 0 l 347 0 q 593 91 519 0 q 667 368 667 182 l 667 782 q 635 975 667 900 q 532 1088 604 1050 q 336 1125 460 1125 l 90 1125 l 90 629 l 24 629 l 24 539 l 90 539 m 336 113 l 249 113 l 249 539 l 332 539 l 332 629 l 249 629 l 249 1008 l 332 1008 q 449 984 411 1008 q 498 909 486 960 q 510 763 510 858 l 510 397 q 501 231 510 286 q 455 144 492 176 q 336 113 418 113 "},"Ḋ":{"ha":732,"x_min":88,"x_max":665,"o":"m 88 1125 l 88 0 l 344 0 q 591 91 517 0 q 665 368 665 182 l 665 782 q 590 1042 665 958 q 332 1125 514 1125 l 88 1125 m 333 113 l 244 113 l 244 1008 l 329 1008 q 446 984 408 1008 q 495 909 483 960 q 507 763 507 858 l 507 397 q 498 231 507 286 q 452 144 489 176 q 333 113 415 113 m 292 1419 l 292 1254 l 442 1254 l 442 1419 l 292 1419 "},"ǲ":{"ha":1214,"x_min":88,"x_max":1182,"o":"m 88 1125 l 88 0 l 344 0 q 591 91 517 0 q 665 368 665 182 l 665 782 q 590 1042 665 958 q 332 1125 514 1125 l 88 1125 m 333 113 l 244 113 l 244 1008 l 329 1008 q 446 984 408 1008 q 495 909 483 960 q 507 763 507 858 l 507 397 q 498 231 507 286 q 452 144 489 176 q 333 113 415 113 m 776 100 l 776 0 l 1176 0 l 1176 113 l 935 113 l 1182 722 l 1182 803 l 801 803 l 801 692 l 1022 692 l 776 100 "},"ǅ":{"ha":1214,"x_min":88,"x_max":1182,"o":"m 88 1125 l 88 0 l 344 0 q 591 91 517 0 q 665 368 665 182 l 665 782 q 590 1042 665 958 q 332 1125 514 1125 l 88 1125 m 333 113 l 244 113 l 244 1008 l 329 1008 q 446 984 408 1008 q 495 909 483 960 q 507 763 507 858 l 507 397 q 498 231 507 286 q 452 144 489 176 q 333 113 415 113 m 776 100 l 776 0 l 1176 0 l 1176 113 l 935 113 l 1182 722 l 1182 803 l 801 803 l 801 692 l 1022 692 l 776 100 m 779 1125 l 900 885 l 1046 885 l 1168 1125 l 1054 1125 l 974 963 l 893 1125 l 779 1125 "},"E":{"ha":565,"x_min":88,"x_max":526,"o":"m 88 1125 l 88 0 l 526 0 l 526 113 l 244 113 l 244 525 l 471 525 l 471 636 l 244 636 l 244 1008 l 524 1008 l 524 1125 l 88 1125 "},"É":{"ha":565,"x_min":88,"x_max":526,"o":"m 88 1125 l 88 0 l 526 0 l 526 113 l 244 113 l 244 525 l 471 525 l 471 636 l 244 636 l 244 1008 l 524 1008 l 524 1125 l 88 1125 m 354 1467 l 272 1192 l 347 1192 l 503 1467 l 354 1467 "},"Ĕ":{"ha":565,"x_min":88,"x_max":526,"o":"m 88 1125 l 88 0 l 526 0 l 526 113 l 244 113 l 244 525 l 471 525 l 471 636 l 244 636 l 244 1008 l 524 1008 l 524 1125 l 88 1125 m 311 1213 q 451 1264 407 1213 q 494 1401 494 1315 l 407 1401 q 311 1297 407 1297 q 239 1323 261 1297 q 215 1401 217 1349 l 129 1401 q 173 1264 129 1315 q 311 1213 217 1213 "},"Ě":{"ha":565,"x_min":88,"x_max":526,"o":"m 88 1125 l 88 0 l 526 0 l 526 113 l 244 113 l 244 525 l 471 525 l 471 636 l 244 636 l 244 1008 l 524 1008 l 524 1125 l 88 1125 m 117 1447 l 238 1207 l 383 1207 l 506 1447 l 392 1447 l 311 1285 l 231 1447 l 117 1447 "},"Ê":{"ha":565,"x_min":88,"x_max":526,"o":"m 88 1125 l 88 0 l 526 0 l 526 113 l 244 113 l 244 525 l 471 525 l 471 636 l 244 636 l 244 1008 l 524 1008 l 524 1125 l 88 1125 m 235 1447 l 115 1204 l 226 1204 l 310 1372 l 394 1204 l 507 1204 l 386 1447 l 235 1447 "},"Ế":{"ha":565,"x_min":88,"x_max":690,"o":"m 88 1125 l 88 0 l 526 0 l 526 113 l 244 113 l 244 525 l 471 525 l 471 636 l 244 636 l 244 1008 l 524 1008 l 524 1125 l 88 1125 m 561 1508 l 488 1349 l 579 1349 l 690 1508 l 561 1508 m 235 1419 l 115 1204 l 226 1204 l 310 1344 l 394 1204 l 507 1204 l 386 1419 l 235 1419 "},"Ệ":{"ha":565,"x_min":88,"x_max":526,"o":"m 88 1125 l 88 0 l 526 0 l 526 113 l 244 113 l 244 525 l 471 525 l 471 636 l 244 636 l 244 1008 l 524 1008 l 524 1125 l 88 1125 m 235 1419 l 115 1204 l 226 1204 l 310 1344 l 394 1204 l 507 1204 l 386 1419 l 235 1419 m 208 -87 l 208 -244 l 358 -244 l 358 -87 l 208 -87 "},"Ề":{"ha":565,"x_min":88,"x_max":614,"o":"m 88 1125 l 88 0 l 526 0 l 526 113 l 244 113 l 244 525 l 471 525 l 471 636 l 244 636 l 244 1008 l 524 1008 l 524 1125 l 88 1125 m 411 1508 l 522 1349 l 614 1349 l 540 1508 l 411 1508 m 235 1419 l 115 1204 l 226 1204 l 310 1344 l 394 1204 l 507 1204 l 386 1419 l 235 1419 "},"Ể":{"ha":565,"x_min":88,"x_max":651,"o":"m 88 1125 l 88 0 l 526 0 l 526 113 l 244 113 l 244 525 l 471 525 l 471 636 l 244 636 l 244 1008 l 524 1008 l 524 1125 l 88 1125 m 474 1374 l 521 1318 q 618 1377 585 1344 q 651 1467 651 1410 q 612 1557 651 1526 q 510 1588 572 1588 q 408 1574 456 1588 l 408 1499 q 472 1508 438 1508 q 522 1495 503 1508 q 540 1454 540 1482 q 524 1411 540 1429 q 474 1374 508 1393 m 235 1419 l 115 1204 l 226 1204 l 310 1344 l 394 1204 l 507 1204 l 386 1419 l 235 1419 "},"Ễ":{"ha":565,"x_min":88,"x_max":526,"o":"m 88 1125 l 88 0 l 526 0 l 526 113 l 244 113 l 244 525 l 471 525 l 471 636 l 244 636 l 244 1008 l 524 1008 l 524 1125 l 88 1125 m 235 1419 l 115 1204 l 226 1204 l 310 1344 l 394 1204 l 507 1204 l 386 1419 l 235 1419 m 417 1483 q 497 1524 474 1483 q 519 1636 519 1565 l 436 1636 q 426 1591 436 1604 q 390 1578 415 1578 q 353 1585 371 1578 q 308 1610 336 1593 q 259 1635 281 1626 q 214 1644 238 1644 q 103 1494 103 1644 l 188 1494 q 199 1538 188 1525 q 235 1551 210 1551 q 269 1544 253 1551 q 314 1521 286 1536 q 366 1493 343 1503 q 417 1483 389 1483 "},"Ȅ":{"ha":565,"x_min":38,"x_max":526,"o":"m 88 1125 l 88 0 l 526 0 l 526 113 l 244 113 l 244 525 l 471 525 l 471 636 l 244 636 l 244 1008 l 524 1008 l 524 1125 l 88 1125 m 38 1447 l 193 1211 l 268 1211 l 188 1447 l 38 1447 m 268 1447 l 371 1211 l 446 1211 l 390 1447 l 268 1447 "},"Ë":{"ha":565,"x_min":88,"x_max":526,"o":"m 88 1125 l 88 0 l 526 0 l 526 113 l 244 113 l 244 525 l 471 525 l 471 636 l 244 636 l 244 1008 l 524 1008 l 524 1125 l 88 1125 m 117 1447 l 117 1293 l 267 1293 l 267 1447 l 117 1447 m 356 1447 l 356 1293 l 506 1293 l 506 1447 l 356 1447 "},"Ė":{"ha":565,"x_min":88,"x_max":526,"o":"m 88 1125 l 88 0 l 526 0 l 526 113 l 244 113 l 244 525 l 471 525 l 471 636 l 244 636 l 244 1008 l 524 1008 l 524 1125 l 88 1125 m 236 1419 l 236 1254 l 386 1254 l 386 1419 l 236 1419 "},"Ẹ":{"ha":565,"x_min":88,"x_max":526,"o":"m 88 1125 l 88 0 l 526 0 l 526 113 l 244 113 l 244 525 l 471 525 l 471 636 l 244 636 l 244 1008 l 524 1008 l 524 1125 l 88 1125 m 208 -87 l 208 -244 l 358 -244 l 358 -87 l 208 -87 "},"È":{"ha":565,"x_min":88,"x_max":526,"o":"m 88 1125 l 88 0 l 526 0 l 526 113 l 244 113 l 244 525 l 471 525 l 471 636 l 244 636 l 244 1008 l 524 1008 l 524 1125 l 88 1125 m 122 1467 l 276 1192 l 350 1192 l 271 1467 l 122 1467 "},"Ẻ":{"ha":565,"x_min":88,"x_max":526,"o":"m 88 1125 l 88 0 l 526 0 l 526 113 l 244 113 l 244 525 l 471 525 l 471 636 l 244 636 l 244 1008 l 524 1008 l 524 1125 l 88 1125 m 265 1261 l 313 1206 q 428 1265 389 1232 q 467 1354 467 1297 q 424 1444 467 1414 q 313 1475 381 1475 q 200 1461 254 1475 l 200 1386 q 271 1396 233 1396 q 332 1383 308 1396 q 356 1342 356 1369 q 333 1299 356 1317 q 265 1261 311 1281 "},"Ȇ":{"ha":565,"x_min":88,"x_max":526,"o":"m 88 1125 l 88 0 l 526 0 l 526 113 l 244 113 l 244 525 l 471 525 l 471 636 l 244 636 l 244 1008 l 524 1008 l 524 1125 l 88 1125 m 128 1240 l 215 1240 q 238 1334 217 1306 q 311 1363 260 1363 q 385 1335 364 1363 q 407 1240 407 1307 l 494 1240 q 454 1392 494 1338 q 311 1447 414 1447 q 169 1393 208 1447 q 128 1240 129 1339 "},"Ē":{"ha":565,"x_min":88,"x_max":526,"o":"m 88 1125 l 88 0 l 526 0 l 526 113 l 244 113 l 244 525 l 471 525 l 471 636 l 244 636 l 244 1008 l 524 1008 l 524 1125 l 88 1125 m 178 1364 l 178 1274 l 444 1274 l 444 1364 l 178 1364 "},"Ę":{"ha":565,"x_min":88,"x_max":526,"o":"m 88 1125 l 88 0 l 526 0 l 526 113 l 244 113 l 244 525 l 471 525 l 471 636 l 244 636 l 244 1008 l 524 1008 l 524 1125 l 88 1125 m 442 -321 q 492 -317 468 -321 l 517 -243 q 472 -246 492 -246 q 361 -179 361 -246 q 396 -88 361 -136 q 478 0 431 -40 l 403 0 q 331 -42 367 -11 q 272 -116 294 -74 q 249 -201 249 -158 q 300 -297 249 -272 q 442 -321 351 -321 "},"Ẽ":{"ha":565,"x_min":88,"x_max":526,"o":"m 88 1125 l 88 0 l 526 0 l 526 113 l 244 113 l 244 525 l 471 525 l 471 636 l 244 636 l 244 1008 l 524 1008 l 524 1125 l 88 1125 m 417 1294 q 497 1335 474 1294 q 519 1447 519 1376 l 436 1447 q 426 1402 436 1415 q 390 1389 415 1389 q 353 1397 371 1389 q 308 1421 336 1404 q 259 1447 281 1438 q 214 1456 238 1456 q 103 1306 103 1456 l 188 1306 q 199 1349 188 1336 q 235 1363 210 1363 q 269 1355 253 1363 q 314 1332 286 1347 q 366 1304 343 1314 q 417 1294 389 1294 "},"F":{"ha":543,"x_min":88,"x_max":522,"o":"m 88 1125 l 88 0 l 244 0 l 244 526 l 460 526 l 460 638 l 244 638 l 244 1013 l 522 1013 l 522 1125 l 88 1125 "},"Ḟ":{"ha":543,"x_min":88,"x_max":522,"o":"m 88 1125 l 88 0 l 244 0 l 244 526 l 460 526 l 460 638 l 244 638 l 244 1013 l 522 1013 l 522 1125 l 88 1125 m 197 1419 l 197 1254 l 347 1254 l 347 1419 l 197 1419 "},"G":{"ha":743,"x_min":67,"x_max":669,"o":"m 356 -14 q 556 129 503 -14 l 571 0 l 669 0 l 669 557 l 385 557 l 385 446 l 528 446 l 528 368 q 495 172 528 233 q 375 111 463 111 q 255 167 286 111 q 224 353 224 224 l 224 769 q 233 903 224 853 q 274 983 242 953 q 371 1013 306 1013 q 463 990 432 1013 q 504 924 494 968 q 514 800 514 881 l 514 765 l 661 765 l 661 807 q 592 1056 661 976 q 368 1135 524 1135 q 187 1090 253 1135 q 94 960 121 1044 q 67 746 67 876 l 67 369 q 135 83 67 179 q 356 -14 203 -14 "},"Ǵ":{"ha":743,"x_min":67,"x_max":669,"o":"m 356 -14 q 556 129 503 -14 l 571 0 l 669 0 l 669 557 l 385 557 l 385 446 l 528 446 l 528 368 q 495 172 528 233 q 375 111 463 111 q 255 167 286 111 q 224 353 224 224 l 224 769 q 233 903 224 853 q 274 983 242 953 q 371 1013 306 1013 q 463 990 432 1013 q 504 924 494 968 q 514 800 514 881 l 514 765 l 661 765 l 661 807 q 592 1056 661 976 q 368 1135 524 1135 q 187 1090 253 1135 q 94 960 121 1044 q 67 746 67 876 l 67 369 q 135 83 67 179 q 356 -14 203 -14 m 415 1467 l 333 1192 l 408 1192 l 564 1467 l 415 1467 "},"Ğ":{"ha":743,"x_min":67,"x_max":669,"o":"m 356 -14 q 556 129 503 -14 l 571 0 l 669 0 l 669 557 l 385 557 l 385 446 l 528 446 l 528 368 q 495 172 528 233 q 375 111 463 111 q 255 167 286 111 q 224 353 224 224 l 224 769 q 233 903 224 853 q 274 983 242 953 q 371 1013 306 1013 q 463 990 432 1013 q 504 924 494 968 q 514 800 514 881 l 514 765 l 661 765 l 661 807 q 592 1056 661 976 q 368 1135 524 1135 q 187 1090 253 1135 q 94 960 121 1044 q 67 746 67 876 l 67 369 q 135 83 67 179 q 356 -14 203 -14 m 372 1213 q 512 1264 468 1213 q 556 1401 556 1315 l 468 1401 q 372 1297 468 1297 q 300 1323 322 1297 q 276 1401 278 1349 l 190 1401 q 234 1264 190 1315 q 372 1213 278 1213 "},"Ǧ":{"ha":743,"x_min":67,"x_max":669,"o":"m 356 -14 q 556 129 503 -14 l 571 0 l 669 0 l 669 557 l 385 557 l 385 446 l 528 446 l 528 368 q 495 172 528 233 q 375 111 463 111 q 255 167 286 111 q 224 353 224 224 l 224 769 q 233 903 224 853 q 274 983 242 953 q 371 1013 306 1013 q 463 990 432 1013 q 504 924 494 968 q 514 800 514 881 l 514 765 l 661 765 l 661 807 q 592 1056 661 976 q 368 1135 524 1135 q 187 1090 253 1135 q 94 960 121 1044 q 67 746 67 876 l 67 369 q 135 83 67 179 q 356 -14 203 -14 m 178 1447 l 299 1207 l 444 1207 l 567 1447 l 453 1447 l 372 1285 l 292 1447 l 178 1447 "},"Ĝ":{"ha":743,"x_min":67,"x_max":669,"o":"m 356 -14 q 556 129 503 -14 l 571 0 l 669 0 l 669 557 l 385 557 l 385 446 l 528 446 l 528 368 q 495 172 528 233 q 375 111 463 111 q 255 167 286 111 q 224 353 224 224 l 224 769 q 233 903 224 853 q 274 983 242 953 q 371 1013 306 1013 q 463 990 432 1013 q 504 924 494 968 q 514 800 514 881 l 514 765 l 661 765 l 661 807 q 592 1056 661 976 q 368 1135 524 1135 q 187 1090 253 1135 q 94 960 121 1044 q 67 746 67 876 l 67 369 q 135 83 67 179 q 356 -14 203 -14 m 296 1447 l 176 1204 l 288 1204 l 371 1372 l 456 1204 l 568 1204 l 447 1447 l 296 1447 "},"Ģ":{"ha":743,"x_min":67,"x_max":669,"o":"m 356 -14 q 556 129 503 -14 l 571 0 l 669 0 l 669 557 l 385 557 l 385 446 l 528 446 l 528 368 q 495 172 528 233 q 375 111 463 111 q 255 167 286 111 q 224 353 224 224 l 224 769 q 233 903 224 853 q 274 983 242 953 q 371 1013 306 1013 q 463 990 432 1013 q 504 924 494 968 q 514 800 514 881 l 514 765 l 661 765 l 661 807 q 592 1056 661 976 q 368 1135 524 1135 q 187 1090 253 1135 q 94 960 121 1044 q 67 746 67 876 l 67 369 q 135 83 67 179 q 356 -14 203 -14 m 296 -325 l 333 -399 q 423 -355 400 -396 q 447 -231 446 -314 l 449 -87 l 297 -87 l 297 -239 l 374 -239 q 356 -301 374 -281 q 296 -325 338 -322 "},"Ġ":{"ha":743,"x_min":67,"x_max":669,"o":"m 356 -14 q 556 129 503 -14 l 571 0 l 669 0 l 669 557 l 385 557 l 385 446 l 528 446 l 528 368 q 495 172 528 233 q 375 111 463 111 q 255 167 286 111 q 224 353 224 224 l 224 769 q 233 903 224 853 q 274 983 242 953 q 371 1013 306 1013 q 463 990 432 1013 q 504 924 494 968 q 514 800 514 881 l 514 765 l 661 765 l 661 807 q 592 1056 661 976 q 368 1135 524 1135 q 187 1090 253 1135 q 94 960 121 1044 q 67 746 67 876 l 67 369 q 135 83 67 179 q 356 -14 203 -14 m 297 1419 l 297 1254 l 447 1254 l 447 1419 l 297 1419 "},"H":{"ha":779,"x_min":88,"x_max":690,"o":"m 88 1125 l 88 0 l 244 0 l 244 526 l 533 526 l 533 0 l 690 0 l 690 1125 l 533 1125 l 533 639 l 244 639 l 244 1125 l 88 1125 "},"Ħ":{"ha":779,"x_min":22,"x_max":756,"o":"m 88 860 l 88 0 l 244 0 l 244 526 l 533 526 l 533 0 l 690 0 l 690 860 l 756 860 l 756 940 l 690 940 l 690 1125 l 533 1125 l 533 940 l 244 940 l 244 1125 l 88 1125 l 88 940 l 22 940 l 22 860 l 88 860 m 533 639 l 244 639 l 244 860 l 533 860 l 533 639 "},"Ĥ":{"ha":779,"x_min":88,"x_max":690,"o":"m 88 1125 l 88 0 l 244 0 l 244 526 l 533 526 l 533 0 l 690 0 l 690 1125 l 533 1125 l 533 639 l 244 639 l 244 1125 l 88 1125 m 314 1447 l 194 1204 l 306 1204 l 389 1372 l 474 1204 l 586 1204 l 465 1447 l 314 1447 "},"I":{"ha":344,"x_min":96,"x_max":250,"o":"m 96 1125 l 96 0 l 250 0 l 250 1125 l 96 1125 "},"Ĳ":{"ha":763,"x_min":96,"x_max":674,"o":"m 96 1125 l 96 0 l 250 0 l 250 1125 l 96 1125 m 354 86 l 354 -26 l 429 -26 q 578 3 525 -26 q 653 92 632 32 q 674 254 674 153 l 674 1125 l 518 1125 l 518 257 q 506 148 518 183 q 459 99 493 113 q 354 86 425 86 "},"Í":{"ha":344,"x_min":96,"x_max":364,"o":"m 96 1125 l 96 0 l 250 0 l 250 1125 l 96 1125 m 215 1467 l 133 1192 l 208 1192 l 364 1467 l 215 1467 "},"Ĭ":{"ha":344,"x_min":-10,"x_max":356,"o":"m 96 1125 l 96 0 l 250 0 l 250 1125 l 96 1125 m 172 1213 q 312 1264 268 1213 q 356 1401 356 1315 l 268 1401 q 172 1297 268 1297 q 100 1323 122 1297 q 76 1401 78 1349 l -10 1401 q 34 1264 -10 1315 q 172 1213 78 1213 "},"Î":{"ha":344,"x_min":-24,"x_max":368,"o":"m 96 1125 l 96 0 l 250 0 l 250 1125 l 96 1125 m 96 1447 l -24 1204 l 88 1204 l 171 1372 l 256 1204 l 368 1204 l 247 1447 l 96 1447 "},"Ȉ":{"ha":344,"x_min":-101,"x_max":307,"o":"m 96 1125 l 96 0 l 250 0 l 250 1125 l 96 1125 m -101 1447 l 54 1211 l 129 1211 l 49 1447 l -101 1447 m 129 1447 l 232 1211 l 307 1211 l 251 1447 l 129 1447 "},"Ï":{"ha":344,"x_min":-22,"x_max":367,"o":"m 96 1125 l 96 0 l 250 0 l 250 1125 l 96 1125 m -22 1447 l -22 1293 l 128 1293 l 128 1447 l -22 1447 m 217 1447 l 217 1293 l 367 1293 l 367 1447 l 217 1447 "},"İ":{"ha":344,"x_min":96,"x_max":250,"o":"m 96 1125 l 96 0 l 250 0 l 250 1125 l 96 1125 m 97 1419 l 97 1254 l 247 1254 l 247 1419 l 97 1419 "},"Ị":{"ha":344,"x_min":96,"x_max":250,"o":"m 96 1125 l 96 0 l 250 0 l 250 1125 l 96 1125 m 97 -87 l 97 -244 l 247 -244 l 247 -87 l 97 -87 "},"Ì":{"ha":344,"x_min":-17,"x_max":250,"o":"m 96 1125 l 96 0 l 250 0 l 250 1125 l 96 1125 m -17 1467 l 138 1192 l 211 1192 l 132 1467 l -17 1467 "},"Ỉ":{"ha":344,"x_min":61,"x_max":328,"o":"m 96 1125 l 96 0 l 250 0 l 250 1125 l 96 1125 m 126 1261 l 174 1206 q 289 1265 250 1232 q 328 1354 328 1297 q 285 1444 328 1414 q 174 1475 242 1475 q 61 1461 115 1475 l 61 1386 q 132 1396 94 1396 q 193 1383 169 1396 q 217 1342 217 1369 q 194 1299 217 1317 q 126 1261 172 1281 "},"Ȋ":{"ha":344,"x_min":-11,"x_max":356,"o":"m 96 1125 l 96 0 l 250 0 l 250 1125 l 96 1125 m -11 1240 l 76 1240 q 99 1334 78 1306 q 172 1363 121 1363 q 247 1335 225 1363 q 268 1240 268 1307 l 356 1240 q 315 1392 356 1338 q 172 1447 275 1447 q 30 1393 69 1447 q -11 1240 -10 1339 "},"Ī":{"ha":344,"x_min":39,"x_max":306,"o":"m 96 1125 l 96 0 l 250 0 l 250 1125 l 96 1125 m 39 1364 l 39 1274 l 306 1274 l 306 1364 l 39 1364 "},"Į":{"ha":344,"x_min":-17,"x_max":251,"o":"m 96 1125 l 96 0 l 250 0 l 250 1125 l 96 1125 m 176 -321 q 226 -317 203 -321 l 251 -243 q 207 -246 226 -246 q 96 -179 96 -246 q 131 -88 96 -136 q 213 0 165 -40 l 138 0 q 65 -42 101 -11 q 6 -116 29 -74 q -17 -201 -17 -158 q 35 -297 -17 -272 q 176 -321 86 -321 "},"Ĩ":{"ha":344,"x_min":-36,"x_max":381,"o":"m 96 1125 l 96 0 l 250 0 l 250 1125 l 96 1125 m 278 1294 q 358 1335 335 1294 q 381 1447 381 1376 l 297 1447 q 287 1402 297 1415 q 251 1389 276 1389 q 215 1397 232 1389 q 169 1421 197 1404 q 120 1447 142 1438 q 75 1456 99 1456 q -36 1306 -36 1456 l 49 1306 q 60 1349 49 1336 q 96 1363 71 1363 q 131 1355 114 1363 q 175 1332 147 1347 q 227 1304 204 1314 q 278 1294 250 1294 "},"J":{"ha":418,"x_min":10,"x_max":329,"o":"m 10 86 l 10 -26 l 85 -26 q 234 3 181 -26 q 308 92 288 32 q 329 254 329 153 l 329 1125 l 174 1125 l 174 257 q 161 148 174 183 q 115 99 149 113 q 10 86 81 86 "},"Ĵ":{"ha":418,"x_min":10,"x_max":447,"o":"m 10 86 l 10 -26 l 85 -26 q 234 3 181 -26 q 308 92 288 32 q 329 254 329 153 l 329 1125 l 174 1125 l 174 257 q 161 148 174 183 q 115 99 149 113 q 10 86 81 86 m 175 1447 l 56 1204 l 167 1204 l 250 1372 l 335 1204 l 447 1204 l 326 1447 l 175 1447 "},"K":{"ha":688,"x_min":88,"x_max":685,"o":"m 88 1125 l 88 0 l 244 0 l 244 397 l 317 528 l 532 0 l 685 0 l 426 629 l 649 1125 l 503 1125 l 244 594 l 244 1125 l 88 1125 "},"Ķ":{"ha":688,"x_min":88,"x_max":685,"o":"m 88 1125 l 88 0 l 244 0 l 244 397 l 317 528 l 532 0 l 685 0 l 426 629 l 649 1125 l 503 1125 l 244 594 l 244 1125 l 88 1125 m 268 -325 l 306 -399 q 395 -355 372 -396 q 419 -231 418 -314 l 421 -87 l 269 -87 l 269 -239 l 346 -239 q 328 -301 346 -281 q 268 -325 310 -322 "},"L":{"ha":551,"x_min":88,"x_max":532,"o":"m 88 1125 l 88 0 l 532 0 l 532 113 l 244 113 l 244 1125 l 88 1125 "},"Ǉ":{"ha":969,"x_min":88,"x_max":881,"o":"m 88 1125 l 88 0 l 532 0 l 532 113 l 244 113 l 244 1125 l 88 1125 m 561 86 l 561 -26 l 636 -26 q 785 3 732 -26 q 860 92 839 32 q 881 254 881 153 l 881 1125 l 725 1125 l 725 257 q 713 148 725 183 q 666 99 700 113 q 561 86 632 86 "},"Ĺ":{"ha":551,"x_min":88,"x_max":532,"o":"m 88 1125 l 88 0 l 532 0 l 532 113 l 244 113 l 244 1125 l 88 1125 m 210 1467 l 128 1192 l 203 1192 l 358 1467 l 210 1467 "},"Ľ":{"ha":551,"x_min":88,"x_max":533,"o":"m 88 1125 l 88 0 l 532 0 l 532 113 l 244 113 l 244 1125 l 88 1125 m 379 847 l 403 783 q 501 851 469 807 q 533 968 533 894 l 533 1125 l 381 1125 l 381 965 l 460 965 q 438 891 460 922 q 379 847 417 860 "},"Ļ":{"ha":551,"x_min":88,"x_max":532,"o":"m 88 1125 l 88 0 l 532 0 l 532 113 l 244 113 l 244 1125 l 88 1125 m 233 -325 l 271 -399 q 360 -355 338 -396 q 385 -231 383 -314 l 386 -87 l 235 -87 l 235 -239 l 311 -239 q 293 -301 311 -281 q 233 -325 275 -322 "},"Ŀ":{"ha":551,"x_min":88,"x_max":532,"o":"m 88 1125 l 88 0 l 532 0 l 532 113 l 244 113 l 244 1125 l 88 1125 m 388 682 l 388 529 l 496 529 l 496 682 l 388 682 "},"ǈ":{"ha":871,"x_min":88,"x_max":797,"o":"m 88 1125 l 88 0 l 532 0 l 532 113 l 244 113 l 244 1125 l 88 1125 m 647 1078 l 647 922 l 797 922 l 797 1078 l 647 1078 m 601 -203 q 744 -153 693 -203 q 796 -8 796 -103 l 796 803 l 647 803 l 647 7 q 628 -65 647 -39 q 564 -90 610 -90 q 525 -86 554 -90 l 525 -193 q 601 -203 547 -203 "},"Ł":{"ha":551,"x_min":-8,"x_max":532,"o":"m 88 524 l 88 0 l 532 0 l 532 113 l 244 113 l 244 611 l 390 692 l 390 811 l 244 732 l 244 1125 l 88 1125 l 88 644 l -8 592 l -8 471 l 88 524 "},"M":{"ha":917,"x_min":85,"x_max":832,"o":"m 106 1125 l 85 0 l 213 0 l 225 817 l 414 0 l 503 0 l 693 817 l 706 0 l 832 0 l 811 1125 l 658 1125 l 458 213 l 260 1125 l 106 1125 "},"Ṁ":{"ha":917,"x_min":85,"x_max":832,"o":"m 106 1125 l 85 0 l 213 0 l 225 817 l 414 0 l 503 0 l 693 817 l 706 0 l 832 0 l 811 1125 l 658 1125 l 458 213 l 260 1125 l 106 1125 m 383 1419 l 383 1254 l 533 1254 l 533 1419 l 383 1419 "},"N":{"ha":733,"x_min":88,"x_max":644,"o":"m 88 1125 l 88 0 l 221 0 l 221 768 l 544 0 l 644 0 l 644 1125 l 514 1125 l 514 378 l 194 1125 l 88 1125 "},"Ǌ":{"ha":1151,"x_min":88,"x_max":1063,"o":"m 88 1125 l 88 0 l 221 0 l 221 768 l 544 0 l 644 0 l 644 1125 l 514 1125 l 514 378 l 194 1125 l 88 1125 m 743 86 l 743 -26 l 818 -26 q 967 3 914 -26 q 1042 92 1021 32 q 1063 254 1063 153 l 1063 1125 l 907 1125 l 907 257 q 894 148 907 183 q 848 99 882 113 q 743 86 814 86 "},"Ń":{"ha":733,"x_min":88,"x_max":644,"o":"m 88 1125 l 88 0 l 221 0 l 221 768 l 544 0 l 644 0 l 644 1125 l 514 1125 l 514 378 l 194 1125 l 88 1125 m 410 1467 l 328 1192 l 403 1192 l 558 1467 l 410 1467 "},"Ň":{"ha":733,"x_min":88,"x_max":644,"o":"m 88 1125 l 88 0 l 221 0 l 221 768 l 544 0 l 644 0 l 644 1125 l 514 1125 l 514 378 l 194 1125 l 88 1125 m 172 1447 l 293 1207 l 439 1207 l 561 1447 l 447 1447 l 367 1285 l 286 1447 l 172 1447 "},"Ņ":{"ha":733,"x_min":88,"x_max":644,"o":"m 88 1125 l 88 0 l 221 0 l 221 768 l 544 0 l 644 0 l 644 1125 l 514 1125 l 514 378 l 194 1125 l 88 1125 m 290 -325 l 328 -399 q 417 -355 394 -396 q 442 -231 440 -314 l 443 -87 l 292 -87 l 292 -239 l 368 -239 q 350 -301 368 -281 q 290 -325 332 -322 "},"Ŋ":{"ha":738,"x_min":88,"x_max":644,"o":"m 371 -147 l 371 -254 l 424 -254 q 559 -226 511 -254 q 626 -144 607 -199 q 644 0 644 -89 l 644 1125 l 522 1125 l 522 378 l 194 1125 l 88 1125 l 88 0 l 213 0 l 213 768 l 521 58 l 521 13 q 512 -87 521 -56 q 472 -133 503 -118 q 371 -147 440 -147 "},"ǋ":{"ha":1053,"x_min":88,"x_max":979,"o":"m 88 1125 l 88 0 l 221 0 l 221 768 l 544 0 l 644 0 l 644 1125 l 514 1125 l 514 378 l 194 1125 l 88 1125 m 829 1078 l 829 922 l 979 922 l 979 1078 l 829 1078 m 783 -203 q 926 -153 875 -203 q 978 -8 978 -103 l 978 803 l 829 803 l 829 7 q 810 -65 829 -39 q 746 -90 792 -90 q 707 -86 736 -90 l 707 -193 q 783 -203 729 -203 "},"Ñ":{"ha":733,"x_min":88,"x_max":644,"o":"m 88 1125 l 88 0 l 221 0 l 221 768 l 544 0 l 644 0 l 644 1125 l 514 1125 l 514 378 l 194 1125 l 88 1125 m 472 1294 q 552 1335 529 1294 q 575 1447 575 1376 l 492 1447 q 481 1402 492 1415 q 446 1389 471 1389 q 409 1397 426 1389 q 364 1421 392 1404 q 315 1447 336 1438 q 269 1456 293 1456 q 158 1306 158 1456 l 243 1306 q 254 1349 243 1336 q 290 1363 265 1363 q 325 1355 308 1363 q 369 1332 342 1347 q 422 1304 399 1314 q 472 1294 444 1294 "},"O":{"ha":749,"x_min":67,"x_max":682,"o":"m 375 -12 q 610 82 538 -12 q 682 351 682 176 l 682 779 q 610 1044 682 953 q 375 1135 539 1135 q 139 1044 211 1135 q 67 779 67 954 l 67 353 q 138 81 67 175 q 375 -12 210 -12 m 375 111 q 256 163 286 111 q 225 318 225 214 l 225 811 q 256 963 225 914 q 375 1013 286 1013 q 493 963 463 1013 q 524 811 524 914 l 524 318 q 493 163 524 214 q 375 111 463 111 "},"Ó":{"ha":749,"x_min":67,"x_max":682,"o":"m 375 -12 q 610 82 538 -12 q 682 351 682 176 l 682 779 q 610 1044 682 953 q 375 1135 539 1135 q 139 1044 211 1135 q 67 779 67 954 l 67 353 q 138 81 67 175 q 375 -12 210 -12 m 375 111 q 256 163 286 111 q 225 318 225 214 l 225 811 q 256 963 225 914 q 375 1013 286 1013 q 493 963 463 1013 q 524 811 524 914 l 524 318 q 493 163 524 214 q 375 111 463 111 m 418 1467 l 336 1192 l 411 1192 l 567 1467 l 418 1467 "},"Ŏ":{"ha":749,"x_min":67,"x_max":682,"o":"m 375 -12 q 610 82 538 -12 q 682 351 682 176 l 682 779 q 610 1044 682 953 q 375 1135 539 1135 q 139 1044 211 1135 q 67 779 67 954 l 67 353 q 138 81 67 175 q 375 -12 210 -12 m 375 111 q 256 163 286 111 q 225 318 225 214 l 225 811 q 256 963 225 914 q 375 1013 286 1013 q 493 963 463 1013 q 524 811 524 914 l 524 318 q 493 163 524 214 q 375 111 463 111 m 375 1213 q 515 1264 471 1213 q 558 1401 558 1315 l 471 1401 q 375 1297 471 1297 q 303 1323 325 1297 q 279 1401 281 1349 l 193 1401 q 237 1264 193 1315 q 375 1213 281 1213 "},"Ô":{"ha":749,"x_min":67,"x_max":682,"o":"m 375 -12 q 610 82 538 -12 q 682 351 682 176 l 682 779 q 610 1044 682 953 q 375 1135 539 1135 q 139 1044 211 1135 q 67 779 67 954 l 67 353 q 138 81 67 175 q 375 -12 210 -12 m 375 111 q 256 163 286 111 q 225 318 225 214 l 225 811 q 256 963 225 914 q 375 1013 286 1013 q 493 963 463 1013 q 524 811 524 914 l 524 318 q 493 163 524 214 q 375 111 463 111 m 299 1447 l 179 1204 l 290 1204 l 374 1372 l 458 1204 l 571 1204 l 450 1447 l 299 1447 "},"Ố":{"ha":749,"x_min":67,"x_max":754,"o":"m 375 -12 q 610 82 538 -12 q 682 351 682 176 l 682 779 q 610 1044 682 953 q 375 1135 539 1135 q 139 1044 211 1135 q 67 779 67 954 l 67 353 q 138 81 67 175 q 375 -12 210 -12 m 375 111 q 256 163 286 111 q 225 318 225 214 l 225 811 q 256 963 225 914 q 375 1013 286 1013 q 493 963 463 1013 q 524 811 524 914 l 524 318 q 493 163 524 214 q 375 111 463 111 m 625 1508 l 551 1349 l 643 1349 l 754 1508 l 625 1508 m 299 1419 l 179 1204 l 290 1204 l 374 1344 l 458 1204 l 571 1204 l 450 1419 l 299 1419 "},"Ộ":{"ha":749,"x_min":67,"x_max":682,"o":"m 375 -12 q 610 82 538 -12 q 682 351 682 176 l 682 779 q 610 1044 682 953 q 375 1135 539 1135 q 139 1044 211 1135 q 67 779 67 954 l 67 353 q 138 81 67 175 q 375 -12 210 -12 m 375 111 q 256 163 286 111 q 225 318 225 214 l 225 811 q 256 963 225 914 q 375 1013 286 1013 q 493 963 463 1013 q 524 811 524 914 l 524 318 q 493 163 524 214 q 375 111 463 111 m 299 1419 l 179 1204 l 290 1204 l 374 1344 l 458 1204 l 571 1204 l 450 1419 l 299 1419 m 300 -87 l 300 -244 l 450 -244 l 450 -87 l 300 -87 "},"Ồ":{"ha":749,"x_min":67,"x_max":682,"o":"m 375 -12 q 610 82 538 -12 q 682 351 682 176 l 682 779 q 610 1044 682 953 q 375 1135 539 1135 q 139 1044 211 1135 q 67 779 67 954 l 67 353 q 138 81 67 175 q 375 -12 210 -12 m 375 111 q 256 163 286 111 q 225 318 225 214 l 225 811 q 256 963 225 914 q 375 1013 286 1013 q 493 963 463 1013 q 524 811 524 914 l 524 318 q 493 163 524 214 q 375 111 463 111 m 475 1508 l 586 1349 l 678 1349 l 604 1508 l 475 1508 m 299 1419 l 179 1204 l 290 1204 l 374 1344 l 458 1204 l 571 1204 l 450 1419 l 299 1419 "},"Ổ":{"ha":749,"x_min":67,"x_max":715,"o":"m 375 -12 q 610 82 538 -12 q 682 351 682 176 l 682 779 q 610 1044 682 953 q 375 1135 539 1135 q 139 1044 211 1135 q 67 779 67 954 l 67 353 q 138 81 67 175 q 375 -12 210 -12 m 375 111 q 256 163 286 111 q 225 318 225 214 l 225 811 q 256 963 225 914 q 375 1013 286 1013 q 493 963 463 1013 q 524 811 524 914 l 524 318 q 493 163 524 214 q 375 111 463 111 m 538 1374 l 585 1318 q 682 1377 649 1344 q 715 1467 715 1410 q 676 1557 715 1526 q 574 1588 636 1588 q 472 1574 519 1588 l 472 1499 q 536 1508 501 1508 q 585 1495 567 1508 q 604 1454 604 1482 q 588 1411 604 1429 q 538 1374 572 1393 m 299 1419 l 179 1204 l 290 1204 l 374 1344 l 458 1204 l 571 1204 l 450 1419 l 299 1419 "},"Ỗ":{"ha":749,"x_min":67,"x_max":682,"o":"m 375 -12 q 610 82 538 -12 q 682 351 682 176 l 682 779 q 610 1044 682 953 q 375 1135 539 1135 q 139 1044 211 1135 q 67 779 67 954 l 67 353 q 138 81 67 175 q 375 -12 210 -12 m 375 111 q 256 163 286 111 q 225 318 225 214 l 225 811 q 256 963 225 914 q 375 1013 286 1013 q 493 963 463 1013 q 524 811 524 914 l 524 318 q 493 163 524 214 q 375 111 463 111 m 299 1419 l 179 1204 l 290 1204 l 374 1344 l 458 1204 l 571 1204 l 450 1419 l 299 1419 m 481 1483 q 560 1524 538 1483 q 583 1636 583 1565 l 500 1636 q 490 1591 500 1604 q 454 1578 479 1578 q 417 1585 435 1578 q 372 1610 400 1593 q 323 1635 344 1626 q 278 1644 301 1644 q 167 1494 167 1644 l 251 1494 q 263 1538 251 1525 q 299 1551 274 1551 q 333 1544 317 1551 q 378 1521 350 1536 q 430 1493 407 1503 q 481 1483 453 1483 "},"Ȍ":{"ha":749,"x_min":67,"x_max":682,"o":"m 375 -12 q 610 82 538 -12 q 682 351 682 176 l 682 779 q 610 1044 682 953 q 375 1135 539 1135 q 139 1044 211 1135 q 67 779 67 954 l 67 353 q 138 81 67 175 q 375 -12 210 -12 m 375 111 q 256 163 286 111 q 225 318 225 214 l 225 811 q 256 963 225 914 q 375 1013 286 1013 q 493 963 463 1013 q 524 811 524 914 l 524 318 q 493 163 524 214 q 375 111 463 111 m 101 1447 l 257 1211 l 332 1211 l 251 1447 l 101 1447 m 332 1447 l 435 1211 l 510 1211 l 454 1447 l 332 1447 "},"Ö":{"ha":749,"x_min":67,"x_max":682,"o":"m 375 -12 q 610 82 538 -12 q 682 351 682 176 l 682 779 q 610 1044 682 953 q 375 1135 539 1135 q 139 1044 211 1135 q 67 779 67 954 l 67 353 q 138 81 67 175 q 375 -12 210 -12 m 375 111 q 256 163 286 111 q 225 318 225 214 l 225 811 q 256 963 225 914 q 375 1013 286 1013 q 493 963 463 1013 q 524 811 524 914 l 524 318 q 493 163 524 214 q 375 111 463 111 m 181 1447 l 181 1293 l 331 1293 l 331 1447 l 181 1447 m 419 1447 l 419 1293 l 569 1293 l 569 1447 l 419 1447 "},"Ȫ":{"ha":749,"x_min":67,"x_max":682,"o":"m 375 -12 q 610 82 538 -12 q 682 351 682 176 l 682 779 q 610 1044 682 953 q 375 1135 539 1135 q 139 1044 211 1135 q 67 779 67 954 l 67 353 q 138 81 67 175 q 375 -12 210 -12 m 375 111 q 256 163 286 111 q 225 318 225 214 l 225 811 q 256 963 225 914 q 375 1013 286 1013 q 493 963 463 1013 q 524 811 524 914 l 524 318 q 493 163 524 214 q 375 111 463 111 m 181 1447 l 181 1293 l 331 1293 l 331 1447 l 181 1447 m 419 1447 l 419 1293 l 569 1293 l 569 1447 l 419 1447 m 242 1686 l 242 1596 l 508 1596 l 508 1686 l 242 1686 "},"Ȱ":{"ha":749,"x_min":67,"x_max":682,"o":"m 375 -12 q 610 82 538 -12 q 682 351 682 176 l 682 779 q 610 1044 682 953 q 375 1135 539 1135 q 139 1044 211 1135 q 67 779 67 954 l 67 353 q 138 81 67 175 q 375 -12 210 -12 m 375 111 q 256 163 286 111 q 225 318 225 214 l 225 811 q 256 963 225 914 q 375 1013 286 1013 q 493 963 463 1013 q 524 811 524 914 l 524 318 q 493 163 524 214 q 375 111 463 111 m 300 1419 l 300 1254 l 450 1254 l 450 1419 l 300 1419 m 242 1658 l 242 1568 l 508 1568 l 508 1658 l 242 1658 "},"Ọ":{"ha":749,"x_min":67,"x_max":682,"o":"m 375 -12 q 610 82 538 -12 q 682 351 682 176 l 682 779 q 610 1044 682 953 q 375 1135 539 1135 q 139 1044 211 1135 q 67 779 67 954 l 67 353 q 138 81 67 175 q 375 -12 210 -12 m 375 111 q 256 163 286 111 q 225 318 225 214 l 225 811 q 256 963 225 914 q 375 1013 286 1013 q 493 963 463 1013 q 524 811 524 914 l 524 318 q 493 163 524 214 q 375 111 463 111 m 300 -87 l 300 -244 l 450 -244 l 450 -87 l 300 -87 "},"Ò":{"ha":749,"x_min":67,"x_max":682,"o":"m 375 -12 q 610 82 538 -12 q 682 351 682 176 l 682 779 q 610 1044 682 953 q 375 1135 539 1135 q 139 1044 211 1135 q 67 779 67 954 l 67 353 q 138 81 67 175 q 375 -12 210 -12 m 375 111 q 256 163 286 111 q 225 318 225 214 l 225 811 q 256 963 225 914 q 375 1013 286 1013 q 493 963 463 1013 q 524 811 524 914 l 524 318 q 493 163 524 214 q 375 111 463 111 m 186 1467 l 340 1192 l 414 1192 l 335 1467 l 186 1467 "},"Ỏ":{"ha":749,"x_min":67,"x_max":682,"o":"m 375 -12 q 610 82 538 -12 q 682 351 682 176 l 682 779 q 610 1044 682 953 q 375 1135 539 1135 q 139 1044 211 1135 q 67 779 67 954 l 67 353 q 138 81 67 175 q 375 -12 210 -12 m 375 111 q 256 163 286 111 q 225 318 225 214 l 225 811 q 256 963 225 914 q 375 1013 286 1013 q 493 963 463 1013 q 524 811 524 914 l 524 318 q 493 163 524 214 q 375 111 463 111 m 329 1261 l 376 1206 q 492 1265 453 1232 q 531 1354 531 1297 q 488 1444 531 1414 q 376 1475 444 1475 q 264 1461 318 1475 l 264 1386 q 335 1396 297 1396 q 396 1383 372 1396 q 419 1342 419 1369 q 397 1299 419 1317 q 329 1261 375 1281 "},"Ơ":{"ha":749,"x_min":67,"x_max":682,"o":"m 581 1074 q 654 1228 654 1115 l 539 1228 q 523 1151 539 1176 q 471 1125 507 1126 q 375 1135 431 1135 q 139 1044 211 1135 q 67 779 67 954 l 67 353 q 138 81 67 175 q 375 -12 210 -12 q 610 82 538 -12 q 682 351 682 176 l 682 779 q 581 1074 682 990 m 524 811 l 524 318 q 493 163 524 214 q 375 111 463 111 q 256 163 286 111 q 225 318 225 214 l 225 811 q 256 963 225 914 q 375 1013 286 1013 q 493 963 463 1013 q 524 811 524 914 "},"Ớ":{"ha":749,"x_min":67,"x_max":682,"o":"m 581 1074 q 654 1228 654 1115 l 539 1228 q 523 1151 539 1176 q 471 1125 507 1126 q 375 1135 431 1135 q 139 1044 211 1135 q 67 779 67 954 l 67 353 q 138 81 67 175 q 375 -12 210 -12 q 610 82 538 -12 q 682 351 682 176 l 682 779 q 581 1074 682 990 m 524 811 l 524 318 q 493 163 524 214 q 375 111 463 111 q 256 163 286 111 q 225 318 225 214 l 225 811 q 256 963 225 914 q 375 1013 286 1013 q 493 963 463 1013 q 524 811 524 914 m 418 1467 l 336 1192 l 411 1192 l 567 1467 l 418 1467 "},"Ợ":{"ha":749,"x_min":67,"x_max":682,"o":"m 581 1074 q 654 1228 654 1115 l 539 1228 q 523 1151 539 1176 q 471 1125 507 1126 q 375 1135 431 1135 q 139 1044 211 1135 q 67 779 67 954 l 67 353 q 138 81 67 175 q 375 -12 210 -12 q 610 82 538 -12 q 682 351 682 176 l 682 779 q 581 1074 682 990 m 524 811 l 524 318 q 493 163 524 214 q 375 111 463 111 q 256 163 286 111 q 225 318 225 214 l 225 811 q 256 963 225 914 q 375 1013 286 1013 q 493 963 463 1013 q 524 811 524 914 m 300 -87 l 300 -244 l 450 -244 l 450 -87 l 300 -87 "},"Ờ":{"ha":749,"x_min":67,"x_max":682,"o":"m 581 1074 q 654 1228 654 1115 l 539 1228 q 523 1151 539 1176 q 471 1125 507 1126 q 375 1135 431 1135 q 139 1044 211 1135 q 67 779 67 954 l 67 353 q 138 81 67 175 q 375 -12 210 -12 q 610 82 538 -12 q 682 351 682 176 l 682 779 q 581 1074 682 990 m 524 811 l 524 318 q 493 163 524 214 q 375 111 463 111 q 256 163 286 111 q 225 318 225 214 l 225 811 q 256 963 225 914 q 375 1013 286 1013 q 493 963 463 1013 q 524 811 524 914 m 186 1467 l 340 1192 l 414 1192 l 335 1467 l 186 1467 "},"Ở":{"ha":749,"x_min":67,"x_max":682,"o":"m 581 1074 q 654 1228 654 1115 l 539 1228 q 523 1151 539 1176 q 471 1125 507 1126 q 375 1135 431 1135 q 139 1044 211 1135 q 67 779 67 954 l 67 353 q 138 81 67 175 q 375 -12 210 -12 q 610 82 538 -12 q 682 351 682 176 l 682 779 q 581 1074 682 990 m 524 811 l 524 318 q 493 163 524 214 q 375 111 463 111 q 256 163 286 111 q 225 318 225 214 l 225 811 q 256 963 225 914 q 375 1013 286 1013 q 493 963 463 1013 q 524 811 524 914 m 329 1261 l 376 1206 q 492 1265 453 1232 q 531 1354 531 1297 q 488 1444 531 1414 q 376 1475 444 1475 q 264 1461 318 1475 l 264 1386 q 335 1396 297 1396 q 396 1383 372 1396 q 419 1342 419 1369 q 397 1299 419 1317 q 329 1261 375 1281 "},"Ỡ":{"ha":749,"x_min":67,"x_max":682,"o":"m 581 1074 q 654 1228 654 1115 l 539 1228 q 523 1151 539 1176 q 471 1125 507 1126 q 375 1135 431 1135 q 139 1044 211 1135 q 67 779 67 954 l 67 353 q 138 81 67 175 q 375 -12 210 -12 q 610 82 538 -12 q 682 351 682 176 l 682 779 q 581 1074 682 990 m 524 811 l 524 318 q 493 163 524 214 q 375 111 463 111 q 256 163 286 111 q 225 318 225 214 l 225 811 q 256 963 225 914 q 375 1013 286 1013 q 493 963 463 1013 q 524 811 524 914 m 481 1294 q 560 1335 538 1294 q 583 1447 583 1376 l 500 1447 q 490 1402 500 1415 q 454 1389 479 1389 q 417 1397 435 1389 q 372 1421 400 1404 q 323 1447 344 1438 q 278 1456 301 1456 q 167 1306 167 1456 l 251 1306 q 263 1349 251 1336 q 299 1363 274 1363 q 333 1355 317 1363 q 378 1332 350 1347 q 430 1304 407 1314 q 481 1294 453 1294 "},"Ő":{"ha":749,"x_min":67,"x_max":682,"o":"m 375 -12 q 610 82 538 -12 q 682 351 682 176 l 682 779 q 610 1044 682 953 q 375 1135 539 1135 q 139 1044 211 1135 q 67 779 67 954 l 67 353 q 138 81 67 175 q 375 -12 210 -12 m 375 111 q 256 163 286 111 q 225 318 225 214 l 225 811 q 256 963 225 914 q 375 1013 286 1013 q 493 963 463 1013 q 524 811 524 914 l 524 318 q 493 163 524 214 q 375 111 463 111 m 310 1449 l 256 1211 l 331 1211 l 432 1449 l 310 1449 m 511 1449 l 431 1211 l 507 1211 l 661 1449 l 511 1449 "},"Ȏ":{"ha":749,"x_min":67,"x_max":682,"o":"m 375 -12 q 610 82 538 -12 q 682 351 682 176 l 682 779 q 610 1044 682 953 q 375 1135 539 1135 q 139 1044 211 1135 q 67 779 67 954 l 67 353 q 138 81 67 175 q 375 -12 210 -12 m 375 111 q 256 163 286 111 q 225 318 225 214 l 225 811 q 256 963 225 914 q 375 1013 286 1013 q 493 963 463 1013 q 524 811 524 914 l 524 318 q 493 163 524 214 q 375 111 463 111 m 192 1240 l 279 1240 q 302 1334 281 1306 q 375 1363 324 1363 q 449 1335 428 1363 q 471 1240 471 1307 l 558 1240 q 518 1392 558 1338 q 375 1447 478 1447 q 233 1393 272 1447 q 192 1240 193 1339 "},"Ō":{"ha":749,"x_min":67,"x_max":682,"o":"m 375 -12 q 610 82 538 -12 q 682 351 682 176 l 682 779 q 610 1044 682 953 q 375 1135 539 1135 q 139 1044 211 1135 q 67 779 67 954 l 67 353 q 138 81 67 175 q 375 -12 210 -12 m 375 111 q 256 163 286 111 q 225 318 225 214 l 225 811 q 256 963 225 914 q 375 1013 286 1013 q 493 963 463 1013 q 524 811 524 914 l 524 318 q 493 163 524 214 q 375 111 463 111 m 242 1364 l 242 1274 l 508 1274 l 508 1364 l 242 1364 "},"Ǫ":{"ha":749,"x_min":67,"x_max":682,"o":"m 375 1135 q 139 1044 211 1135 q 67 779 67 954 l 67 353 q 136 84 67 178 q 365 -12 206 -10 q 278 -92 315 -39 q 240 -201 240 -146 q 292 -297 240 -272 q 433 -321 343 -321 q 483 -317 460 -321 l 508 -243 q 464 -246 483 -246 q 353 -179 353 -246 q 465 -3 353 -106 q 631 112 579 21 q 682 351 682 203 l 682 779 q 610 1044 682 953 q 375 1135 539 1135 m 524 811 l 524 318 q 493 163 524 214 q 375 111 463 111 q 256 163 286 111 q 225 318 225 214 l 225 811 q 256 963 225 914 q 375 1013 286 1013 q 493 963 463 1013 q 524 811 524 914 "},"Ø":{"ha":750,"x_min":67,"x_max":682,"o":"m 544 1099 l 574 1208 l 518 1222 l 490 1119 q 375 1135 438 1135 q 139 1044 211 1135 q 67 779 67 954 l 67 353 q 98 152 67 233 q 199 29 129 71 l 168 -86 l 222 -103 l 251 6 q 375 -12 301 -12 q 610 82 538 -12 q 682 351 682 176 l 682 779 q 544 1099 682 1024 m 225 318 l 225 811 q 256 963 225 914 q 375 1013 286 1013 q 457 996 426 1013 l 242 190 q 225 318 225 235 m 524 811 l 524 318 q 493 163 524 214 q 375 111 463 111 q 286 133 319 111 l 503 946 q 524 811 524 904 "},"Ǿ":{"ha":750,"x_min":67,"x_max":682,"o":"m 544 1099 l 574 1208 l 518 1222 l 490 1119 q 375 1135 438 1135 q 139 1044 211 1135 q 67 779 67 954 l 67 353 q 98 152 67 233 q 199 29 129 71 l 168 -86 l 222 -103 l 251 6 q 375 -12 301 -12 q 610 82 538 -12 q 682 351 682 176 l 682 779 q 544 1099 682 1024 m 225 318 l 225 811 q 256 963 225 914 q 375 1013 286 1013 q 457 996 426 1013 l 242 190 q 225 318 225 235 m 524 811 l 524 318 q 493 163 524 214 q 375 111 463 111 q 286 133 319 111 l 503 946 q 524 811 524 904 m 418 1467 l 336 1192 l 411 1192 l 567 1467 l 418 1467 "},"Õ":{"ha":749,"x_min":67,"x_max":682,"o":"m 375 -12 q 610 82 538 -12 q 682 351 682 176 l 682 779 q 610 1044 682 953 q 375 1135 539 1135 q 139 1044 211 1135 q 67 779 67 954 l 67 353 q 138 81 67 175 q 375 -12 210 -12 m 375 111 q 256 163 286 111 q 225 318 225 214 l 225 811 q 256 963 225 914 q 375 1013 286 1013 q 493 963 463 1013 q 524 811 524 914 l 524 318 q 493 163 524 214 q 375 111 463 111 m 481 1294 q 560 1335 538 1294 q 583 1447 583 1376 l 500 1447 q 490 1402 500 1415 q 454 1389 479 1389 q 417 1397 435 1389 q 372 1421 400 1404 q 323 1447 344 1438 q 278 1456 301 1456 q 167 1306 167 1456 l 251 1306 q 263 1349 251 1336 q 299 1363 274 1363 q 333 1355 317 1363 q 378 1332 350 1347 q 430 1304 407 1314 q 481 1294 453 1294 "},"Ȭ":{"ha":749,"x_min":67,"x_max":682,"o":"m 375 -12 q 610 82 538 -12 q 682 351 682 176 l 682 779 q 610 1044 682 953 q 375 1135 539 1135 q 139 1044 211 1135 q 67 779 67 954 l 67 353 q 138 81 67 175 q 375 -12 210 -12 m 375 111 q 256 163 286 111 q 225 318 225 214 l 225 811 q 256 963 225 914 q 375 1013 286 1013 q 493 963 463 1013 q 524 811 524 914 l 524 318 q 493 163 524 214 q 375 111 463 111 m 481 1294 q 560 1335 538 1294 q 583 1447 583 1376 l 500 1447 q 490 1402 500 1415 q 454 1389 479 1389 q 417 1397 435 1389 q 372 1421 400 1404 q 323 1447 344 1438 q 278 1456 301 1456 q 167 1306 167 1456 l 251 1306 q 263 1349 251 1336 q 299 1363 274 1363 q 333 1355 317 1363 q 378 1332 350 1347 q 430 1304 407 1314 q 481 1294 453 1294 m 242 1694 l 242 1604 l 508 1604 l 508 1694 l 242 1694 "},"Œ":{"ha":949,"x_min":67,"x_max":911,"o":"m 400 0 l 911 0 l 911 113 l 635 113 l 635 525 l 857 525 l 857 638 l 635 638 l 635 1008 l 908 1008 l 908 1125 l 389 1125 q 142 1034 217 1125 q 67 758 67 943 l 67 343 q 98 150 67 225 q 203 38 129 75 q 400 0 276 0 m 478 117 l 403 117 q 286 141 324 117 q 237 215 249 165 q 225 360 225 265 l 225 729 q 234 894 225 839 q 281 981 243 950 q 400 1013 318 1013 l 478 1013 l 478 117 "},"P":{"ha":667,"x_min":88,"x_max":644,"o":"m 88 1125 l 88 0 l 244 0 l 244 524 l 368 524 q 574 600 503 524 q 644 814 644 676 q 578 1046 644 967 q 367 1125 513 1125 l 88 1125 m 317 636 l 244 636 l 244 1013 l 318 1013 q 434 996 397 1013 q 483 939 471 979 q 496 813 496 899 q 479 704 496 742 q 424 651 463 667 q 317 636 386 636 "},"Ṗ":{"ha":667,"x_min":88,"x_max":644,"o":"m 88 1125 l 88 0 l 244 0 l 244 524 l 368 524 q 574 600 503 524 q 644 814 644 676 q 578 1046 644 967 q 367 1125 513 1125 l 88 1125 m 317 636 l 244 636 l 244 1013 l 318 1013 q 434 996 397 1013 q 483 939 471 979 q 496 813 496 899 q 479 704 496 742 q 424 651 463 667 q 317 636 386 636 m 258 1419 l 258 1254 l 408 1254 l 408 1419 l 258 1419 "},"Þ":{"ha":699,"x_min":88,"x_max":675,"o":"m 88 1125 l 88 0 l 244 0 l 244 324 l 381 324 q 675 651 675 324 q 609 892 675 806 q 407 978 543 978 l 244 978 l 244 1125 l 88 1125 m 342 450 l 244 450 l 244 847 l 360 847 q 485 803 447 847 q 522 651 522 758 q 480 494 522 538 q 342 450 438 450 "},"Q":{"ha":751,"x_min":67,"x_max":683,"o":"m 604 -228 l 629 -104 q 518 14 588 -76 q 683 351 683 83 l 683 779 q 611 1044 683 953 q 375 1135 539 1135 q 139 1044 211 1135 q 67 779 67 954 l 67 353 q 138 81 67 175 q 375 -12 210 -12 l 401 -11 q 604 -228 519 -186 m 375 111 q 256 163 286 111 q 225 318 225 214 l 225 811 q 256 963 225 914 q 375 1013 286 1013 q 494 963 464 1013 q 525 811 525 914 l 525 318 q 494 163 525 214 q 375 111 464 111 "},"R":{"ha":721,"x_min":88,"x_max":665,"o":"m 88 1125 l 88 0 l 244 0 l 244 528 l 367 528 l 514 0 l 665 0 l 506 564 q 644 826 644 610 q 565 1055 644 985 q 314 1125 485 1125 l 88 1125 m 304 640 l 244 640 l 244 1013 l 314 1013 q 424 994 385 1013 q 478 935 463 975 q 493 826 493 896 q 449 681 493 721 q 304 640 406 640 "},"Ŕ":{"ha":721,"x_min":88,"x_max":665,"o":"m 88 1125 l 88 0 l 244 0 l 244 528 l 367 528 l 514 0 l 665 0 l 506 564 q 644 826 644 610 q 565 1055 644 985 q 314 1125 485 1125 l 88 1125 m 304 640 l 244 640 l 244 1013 l 314 1013 q 424 994 385 1013 q 478 935 463 975 q 493 826 493 896 q 449 681 493 721 q 304 640 406 640 m 404 1467 l 322 1192 l 397 1192 l 553 1467 l 404 1467 "},"Ř":{"ha":721,"x_min":88,"x_max":665,"o":"m 88 1125 l 88 0 l 244 0 l 244 528 l 367 528 l 514 0 l 665 0 l 506 564 q 644 826 644 610 q 565 1055 644 985 q 314 1125 485 1125 l 88 1125 m 304 640 l 244 640 l 244 1013 l 314 1013 q 424 994 385 1013 q 478 935 463 975 q 493 826 493 896 q 449 681 493 721 q 304 640 406 640 m 167 1447 l 288 1207 l 433 1207 l 556 1447 l 442 1447 l 361 1285 l 281 1447 l 167 1447 "},"Ŗ":{"ha":721,"x_min":88,"x_max":665,"o":"m 88 1125 l 88 0 l 244 0 l 244 528 l 367 528 l 514 0 l 665 0 l 506 564 q 644 826 644 610 q 565 1055 644 985 q 314 1125 485 1125 l 88 1125 m 304 640 l 244 640 l 244 1013 l 314 1013 q 424 994 385 1013 q 478 935 463 975 q 493 826 493 896 q 449 681 493 721 q 304 640 406 640 m 285 -325 l 322 -399 q 412 -355 389 -396 q 436 -231 435 -314 l 438 -87 l 286 -87 l 286 -239 l 363 -239 q 344 -301 363 -281 q 285 -325 326 -322 "},"Ȑ":{"ha":721,"x_min":88,"x_max":665,"o":"m 88 1125 l 88 0 l 244 0 l 244 528 l 367 528 l 514 0 l 665 0 l 506 564 q 644 826 644 610 q 565 1055 644 985 q 314 1125 485 1125 l 88 1125 m 304 640 l 244 640 l 244 1013 l 314 1013 q 424 994 385 1013 q 478 935 463 975 q 493 826 493 896 q 449 681 493 721 q 304 640 406 640 m 88 1447 l 243 1211 l 318 1211 l 238 1447 l 88 1447 m 318 1447 l 421 1211 l 496 1211 l 440 1447 l 318 1447 "},"Ȓ":{"ha":721,"x_min":88,"x_max":665,"o":"m 88 1125 l 88 0 l 244 0 l 244 528 l 367 528 l 514 0 l 665 0 l 506 564 q 644 826 644 610 q 565 1055 644 985 q 314 1125 485 1125 l 88 1125 m 304 640 l 244 640 l 244 1013 l 314 1013 q 424 994 385 1013 q 478 935 463 975 q 493 826 493 896 q 449 681 493 721 q 304 640 406 640 m 178 1240 l 265 1240 q 288 1334 267 1306 q 361 1363 310 1363 q 435 1335 414 1363 q 457 1240 457 1307 l 544 1240 q 504 1392 544 1338 q 361 1447 464 1447 q 219 1393 258 1447 q 178 1240 179 1339 "},"S":{"ha":657,"x_min":54,"x_max":622,"o":"m 353 -12 q 547 60 472 -12 q 622 256 622 132 q 578 427 622 351 q 461 571 535 503 l 271 738 q 214 808 231 775 q 197 890 197 840 q 332 1014 197 1014 q 435 959 406 1014 q 471 808 464 904 l 604 844 q 525 1064 590 993 q 328 1135 460 1135 q 129 1067 201 1135 q 57 875 57 1000 q 83 735 57 793 q 165 626 108 678 l 354 460 q 447 356 418 401 q 476 243 476 311 q 445 145 476 179 q 353 111 414 111 q 235 178 271 111 q 193 353 200 244 l 54 315 q 137 75 63 163 q 353 -12 211 -12 "},"Ś":{"ha":657,"x_min":54,"x_max":622,"o":"m 353 -12 q 547 60 472 -12 q 622 256 622 132 q 578 427 622 351 q 461 571 535 503 l 271 738 q 214 808 231 775 q 197 890 197 840 q 332 1014 197 1014 q 435 959 406 1014 q 471 808 464 904 l 604 844 q 525 1064 590 993 q 328 1135 460 1135 q 129 1067 201 1135 q 57 875 57 1000 q 83 735 57 793 q 165 626 108 678 l 354 460 q 447 356 418 401 q 476 243 476 311 q 445 145 476 179 q 353 111 414 111 q 235 178 271 111 q 193 353 200 244 l 54 315 q 137 75 63 163 q 353 -12 211 -12 m 372 1467 l 290 1192 l 365 1192 l 521 1467 l 372 1467 "},"Š":{"ha":657,"x_min":54,"x_max":622,"o":"m 353 -12 q 547 60 472 -12 q 622 256 622 132 q 578 427 622 351 q 461 571 535 503 l 271 738 q 214 808 231 775 q 197 890 197 840 q 332 1014 197 1014 q 435 959 406 1014 q 471 808 464 904 l 604 844 q 525 1064 590 993 q 328 1135 460 1135 q 129 1067 201 1135 q 57 875 57 1000 q 83 735 57 793 q 165 626 108 678 l 354 460 q 447 356 418 401 q 476 243 476 311 q 445 145 476 179 q 353 111 414 111 q 235 178 271 111 q 193 353 200 244 l 54 315 q 137 75 63 163 q 353 -12 211 -12 m 135 1447 l 256 1207 l 401 1207 l 524 1447 l 410 1447 l 329 1285 l 249 1447 l 135 1447 "},"Ş":{"ha":657,"x_min":54,"x_max":622,"o":"m 622 256 q 578 427 622 351 q 461 571 535 503 l 271 738 q 214 808 231 775 q 197 890 197 840 q 332 1014 197 1014 q 435 959 406 1014 q 471 808 464 904 l 604 844 q 525 1064 590 993 q 328 1135 460 1135 q 129 1067 201 1135 q 57 875 57 1000 q 83 735 57 793 q 165 626 108 678 l 354 460 q 447 356 418 401 q 476 243 476 311 q 445 145 476 179 q 353 111 414 111 q 235 178 271 111 q 193 353 200 244 l 54 315 q 120 96 61 181 q 292 -8 179 11 l 292 -115 q 381 -141 353 -124 q 410 -193 410 -158 q 386 -234 410 -221 q 325 -247 363 -247 q 254 -237 288 -247 l 254 -312 q 347 -326 307 -326 q 473 -294 425 -326 q 521 -197 521 -261 q 478 -110 521 -143 q 367 -78 436 -78 l 367 -12 q 551 64 481 -8 q 622 256 622 136 "},"Ŝ":{"ha":657,"x_min":54,"x_max":622,"o":"m 353 -12 q 547 60 472 -12 q 622 256 622 132 q 578 427 622 351 q 461 571 535 503 l 271 738 q 214 808 231 775 q 197 890 197 840 q 332 1014 197 1014 q 435 959 406 1014 q 471 808 464 904 l 604 844 q 525 1064 590 993 q 328 1135 460 1135 q 129 1067 201 1135 q 57 875 57 1000 q 83 735 57 793 q 165 626 108 678 l 354 460 q 447 356 418 401 q 476 243 476 311 q 445 145 476 179 q 353 111 414 111 q 235 178 271 111 q 193 353 200 244 l 54 315 q 137 75 63 163 q 353 -12 211 -12 m 253 1447 l 133 1204 l 244 1204 l 328 1372 l 413 1204 l 525 1204 l 404 1447 l 253 1447 "},"Ș":{"ha":657,"x_min":54,"x_max":622,"o":"m 353 -12 q 547 60 472 -12 q 622 256 622 132 q 578 427 622 351 q 461 571 535 503 l 271 738 q 214 808 231 775 q 197 890 197 840 q 332 1014 197 1014 q 435 959 406 1014 q 471 808 464 904 l 604 844 q 525 1064 590 993 q 328 1135 460 1135 q 129 1067 201 1135 q 57 875 57 1000 q 83 735 57 793 q 165 626 108 678 l 354 460 q 447 356 418 401 q 476 243 476 311 q 445 145 476 179 q 353 111 414 111 q 235 178 271 111 q 193 353 200 244 l 54 315 q 137 75 63 163 q 353 -12 211 -12 m 253 -325 l 290 -399 q 380 -355 357 -396 q 404 -231 403 -314 l 406 -87 l 254 -87 l 254 -239 l 331 -239 q 313 -301 331 -281 q 253 -325 294 -322 "},"Ṡ":{"ha":657,"x_min":54,"x_max":622,"o":"m 353 -12 q 547 60 472 -12 q 622 256 622 132 q 578 427 622 351 q 461 571 535 503 l 271 738 q 214 808 231 775 q 197 890 197 840 q 332 1014 197 1014 q 435 959 406 1014 q 471 808 464 904 l 604 844 q 525 1064 590 993 q 328 1135 460 1135 q 129 1067 201 1135 q 57 875 57 1000 q 83 735 57 793 q 165 626 108 678 l 354 460 q 447 356 418 401 q 476 243 476 311 q 445 145 476 179 q 353 111 414 111 q 235 178 271 111 q 193 353 200 244 l 54 315 q 137 75 63 163 q 353 -12 211 -12 m 254 1419 l 254 1254 l 404 1254 l 404 1419 l 254 1419 "},"ẞ":{"ha":749,"x_min":78,"x_max":707,"o":"m 489 626 l 667 954 l 667 1078 q 422 1135 556 1135 q 163 1038 249 1135 q 78 774 78 942 l 78 0 l 235 0 l 235 781 q 429 1013 235 1013 q 551 994 500 1013 l 367 656 l 368 536 l 400 536 q 519 484 481 536 q 557 315 557 432 q 519 150 557 200 q 400 100 481 100 l 353 100 l 353 -12 l 428 -12 q 636 68 565 -12 q 707 319 707 149 q 489 626 707 596 "},"Ə":{"ha":743,"x_min":61,"x_max":676,"o":"m 369 -12 q 604 82 532 -12 q 676 351 676 176 l 676 779 q 605 1044 676 953 q 369 1135 533 1135 q 132 1044 203 1135 q 61 779 61 954 l 61 714 l 219 714 l 219 811 q 250 963 219 914 q 369 1013 281 1013 q 488 964 458 1013 q 518 811 518 915 l 518 585 l 61 585 l 61 353 q 133 81 61 175 q 369 -12 204 -12 m 369 111 q 250 163 281 111 q 219 318 219 214 l 219 461 l 518 461 l 518 318 q 488 163 518 214 q 369 111 457 111 "},"T":{"ha":556,"x_min":-1,"x_max":558,"o":"m 203 1008 l 203 0 l 360 0 l 360 1008 l 558 1008 l 558 1125 l -1 1125 l -1 1008 l 203 1008 "},"Ŧ":{"ha":556,"x_min":-1,"x_max":558,"o":"m 360 1008 l 558 1008 l 558 1125 l -1 1125 l -1 1008 l 203 1008 l 203 632 l 57 632 l 57 543 l 203 543 l 203 0 l 360 0 l 360 543 l 499 543 l 499 632 l 360 632 l 360 1008 "},"Ť":{"ha":556,"x_min":-1,"x_max":558,"o":"m 203 1008 l 203 0 l 360 0 l 360 1008 l 558 1008 l 558 1125 l -1 1125 l -1 1008 l 203 1008 m 83 1447 l 204 1207 l 350 1207 l 472 1447 l 358 1447 l 278 1285 l 197 1447 l 83 1447 "},"Ţ":{"ha":556,"x_min":-1,"x_max":558,"o":"m 203 1008 l 203 0 l 360 0 l 360 1008 l 558 1008 l 558 1125 l -1 1125 l -1 1008 l 203 1008 m 296 -326 q 422 -294 374 -326 q 469 -197 469 -261 q 427 -110 469 -143 q 315 -78 385 -78 l 315 0 l 240 0 l 240 -115 q 330 -141 301 -124 q 358 -193 358 -158 q 335 -234 358 -221 q 274 -247 311 -247 q 203 -237 236 -247 l 203 -312 q 296 -326 256 -326 "},"Ț":{"ha":556,"x_min":-1,"x_max":558,"o":"m 203 1008 l 203 0 l 360 0 l 360 1008 l 558 1008 l 558 1125 l -1 1125 l -1 1008 l 203 1008 m 201 -325 l 239 -399 q 328 -355 306 -396 q 353 -231 351 -314 l 354 -87 l 203 -87 l 203 -239 l 279 -239 q 261 -301 279 -281 q 201 -325 243 -322 "},"Ṫ":{"ha":556,"x_min":-1,"x_max":558,"o":"m 203 1008 l 203 0 l 360 0 l 360 1008 l 558 1008 l 558 1125 l -1 1125 l -1 1008 l 203 1008 m 203 1419 l 203 1254 l 353 1254 l 353 1419 l 203 1419 "},"U":{"ha":754,"x_min":78,"x_max":676,"o":"m 378 -12 q 561 35 496 -12 q 651 167 626 82 q 676 379 676 251 l 676 1125 l 528 1125 l 528 372 q 498 178 528 244 q 378 111 468 111 q 258 178 288 111 q 228 372 228 244 l 228 1125 l 78 1125 l 78 379 q 103 167 78 251 q 194 35 128 82 q 378 -12 260 -12 "},"Ú":{"ha":754,"x_min":78,"x_max":676,"o":"m 378 -12 q 561 35 496 -12 q 651 167 626 82 q 676 379 676 251 l 676 1125 l 528 1125 l 528 372 q 498 178 528 244 q 378 111 468 111 q 258 178 288 111 q 228 372 228 244 l 228 1125 l 78 1125 l 78 379 q 103 167 78 251 q 194 35 128 82 q 378 -12 260 -12 m 421 1467 l 339 1192 l 414 1192 l 569 1467 l 421 1467 "},"Ŭ":{"ha":754,"x_min":78,"x_max":676,"o":"m 378 -12 q 561 35 496 -12 q 651 167 626 82 q 676 379 676 251 l 676 1125 l 528 1125 l 528 372 q 498 178 528 244 q 378 111 468 111 q 258 178 288 111 q 228 372 228 244 l 228 1125 l 78 1125 l 78 379 q 103 167 78 251 q 194 35 128 82 q 378 -12 260 -12 m 378 1213 q 517 1264 474 1213 q 561 1401 561 1315 l 474 1401 q 378 1297 474 1297 q 306 1323 328 1297 q 282 1401 283 1349 l 196 1401 q 240 1264 196 1315 q 378 1213 283 1213 "},"Û":{"ha":754,"x_min":78,"x_max":676,"o":"m 378 -12 q 561 35 496 -12 q 651 167 626 82 q 676 379 676 251 l 676 1125 l 528 1125 l 528 372 q 498 178 528 244 q 378 111 468 111 q 258 178 288 111 q 228 372 228 244 l 228 1125 l 78 1125 l 78 379 q 103 167 78 251 q 194 35 128 82 q 378 -12 260 -12 m 301 1447 l 182 1204 l 293 1204 l 376 1372 l 461 1204 l 574 1204 l 453 1447 l 301 1447 "},"Ȕ":{"ha":754,"x_min":78,"x_max":676,"o":"m 378 -12 q 561 35 496 -12 q 651 167 626 82 q 676 379 676 251 l 676 1125 l 528 1125 l 528 372 q 498 178 528 244 q 378 111 468 111 q 258 178 288 111 q 228 372 228 244 l 228 1125 l 78 1125 l 78 379 q 103 167 78 251 q 194 35 128 82 q 378 -12 260 -12 m 104 1447 l 260 1211 l 335 1211 l 254 1447 l 104 1447 m 335 1447 l 438 1211 l 513 1211 l 457 1447 l 335 1447 "},"Ü":{"ha":754,"x_min":78,"x_max":676,"o":"m 378 -12 q 561 35 496 -12 q 651 167 626 82 q 676 379 676 251 l 676 1125 l 528 1125 l 528 372 q 498 178 528 244 q 378 111 468 111 q 258 178 288 111 q 228 372 228 244 l 228 1125 l 78 1125 l 78 379 q 103 167 78 251 q 194 35 128 82 q 378 -12 260 -12 m 183 1447 l 183 1293 l 333 1293 l 333 1447 l 183 1447 m 422 1447 l 422 1293 l 572 1293 l 572 1447 l 422 1447 "},"Ụ":{"ha":754,"x_min":78,"x_max":676,"o":"m 378 -12 q 561 35 496 -12 q 651 167 626 82 q 676 379 676 251 l 676 1125 l 528 1125 l 528 372 q 498 178 528 244 q 378 111 468 111 q 258 178 288 111 q 228 372 228 244 l 228 1125 l 78 1125 l 78 379 q 103 167 78 251 q 194 35 128 82 q 378 -12 260 -12 m 303 -87 l 303 -244 l 453 -244 l 453 -87 l 303 -87 "},"Ù":{"ha":754,"x_min":78,"x_max":676,"o":"m 378 -12 q 561 35 496 -12 q 651 167 626 82 q 676 379 676 251 l 676 1125 l 528 1125 l 528 372 q 498 178 528 244 q 378 111 468 111 q 258 178 288 111 q 228 372 228 244 l 228 1125 l 78 1125 l 78 379 q 103 167 78 251 q 194 35 128 82 q 378 -12 260 -12 m 189 1467 l 343 1192 l 417 1192 l 338 1467 l 189 1467 "},"Ủ":{"ha":754,"x_min":78,"x_max":676,"o":"m 378 -12 q 561 35 496 -12 q 651 167 626 82 q 676 379 676 251 l 676 1125 l 528 1125 l 528 372 q 498 178 528 244 q 378 111 468 111 q 258 178 288 111 q 228 372 228 244 l 228 1125 l 78 1125 l 78 379 q 103 167 78 251 q 194 35 128 82 q 378 -12 260 -12 m 332 1261 l 379 1206 q 494 1265 456 1232 q 533 1354 533 1297 q 490 1444 533 1414 q 379 1475 447 1475 q 267 1461 321 1475 l 267 1386 q 338 1396 300 1396 q 399 1383 375 1396 q 422 1342 422 1369 q 400 1299 422 1317 q 332 1261 378 1281 "},"Ư":{"ha":754,"x_min":78,"x_max":776,"o":"m 776 1228 l 661 1228 q 644 1150 661 1175 q 586 1125 626 1125 l 528 1125 l 528 372 q 498 178 528 244 q 378 111 468 111 q 258 178 288 111 q 228 372 228 244 l 228 1125 l 78 1125 l 78 379 q 103 167 78 251 q 194 35 128 82 q 378 -12 260 -12 q 561 35 496 -12 q 651 167 626 82 q 676 379 676 251 l 676 1061 q 776 1228 776 1097 "},"Ứ":{"ha":754,"x_min":78,"x_max":776,"o":"m 776 1228 l 661 1228 q 644 1150 661 1175 q 586 1125 626 1125 l 528 1125 l 528 372 q 498 178 528 244 q 378 111 468 111 q 258 178 288 111 q 228 372 228 244 l 228 1125 l 78 1125 l 78 379 q 103 167 78 251 q 194 35 128 82 q 378 -12 260 -12 q 561 35 496 -12 q 651 167 626 82 q 676 379 676 251 l 676 1061 q 776 1228 776 1097 m 421 1467 l 339 1192 l 414 1192 l 569 1467 l 421 1467 "},"Ự":{"ha":754,"x_min":78,"x_max":776,"o":"m 776 1228 l 661 1228 q 644 1150 661 1175 q 586 1125 626 1125 l 528 1125 l 528 372 q 498 178 528 244 q 378 111 468 111 q 258 178 288 111 q 228 372 228 244 l 228 1125 l 78 1125 l 78 379 q 103 167 78 251 q 194 35 128 82 q 378 -12 260 -12 q 561 35 496 -12 q 651 167 626 82 q 676 379 676 251 l 676 1061 q 776 1228 776 1097 m 303 -87 l 303 -244 l 453 -244 l 453 -87 l 303 -87 "},"Ừ":{"ha":754,"x_min":78,"x_max":776,"o":"m 776 1228 l 661 1228 q 644 1150 661 1175 q 586 1125 626 1125 l 528 1125 l 528 372 q 498 178 528 244 q 378 111 468 111 q 258 178 288 111 q 228 372 228 244 l 228 1125 l 78 1125 l 78 379 q 103 167 78 251 q 194 35 128 82 q 378 -12 260 -12 q 561 35 496 -12 q 651 167 626 82 q 676 379 676 251 l 676 1061 q 776 1228 776 1097 m 189 1467 l 343 1192 l 417 1192 l 338 1467 l 189 1467 "},"Ử":{"ha":754,"x_min":78,"x_max":776,"o":"m 776 1228 l 661 1228 q 644 1150 661 1175 q 586 1125 626 1125 l 528 1125 l 528 372 q 498 178 528 244 q 378 111 468 111 q 258 178 288 111 q 228 372 228 244 l 228 1125 l 78 1125 l 78 379 q 103 167 78 251 q 194 35 128 82 q 378 -12 260 -12 q 561 35 496 -12 q 651 167 626 82 q 676 379 676 251 l 676 1061 q 776 1228 776 1097 m 332 1261 l 379 1206 q 494 1265 456 1232 q 533 1354 533 1297 q 490 1444 533 1414 q 379 1475 447 1475 q 267 1461 321 1475 l 267 1386 q 338 1396 300 1396 q 399 1383 375 1396 q 422 1342 422 1369 q 400 1299 422 1317 q 332 1261 378 1281 "},"Ữ":{"ha":754,"x_min":78,"x_max":776,"o":"m 776 1228 l 661 1228 q 644 1150 661 1175 q 586 1125 626 1125 l 528 1125 l 528 372 q 498 178 528 244 q 378 111 468 111 q 258 178 288 111 q 228 372 228 244 l 228 1125 l 78 1125 l 78 379 q 103 167 78 251 q 194 35 128 82 q 378 -12 260 -12 q 561 35 496 -12 q 651 167 626 82 q 676 379 676 251 l 676 1061 q 776 1228 776 1097 m 483 1294 q 563 1335 540 1294 q 586 1447 586 1376 l 503 1447 q 492 1402 503 1415 q 457 1389 482 1389 q 420 1397 438 1389 q 375 1421 403 1404 q 326 1447 347 1438 q 281 1456 304 1456 q 169 1306 169 1456 l 254 1306 q 265 1349 254 1336 q 301 1363 276 1363 q 336 1355 319 1363 q 381 1332 353 1347 q 433 1304 410 1314 q 483 1294 456 1294 "},"Ű":{"ha":754,"x_min":78,"x_max":676,"o":"m 378 -12 q 561 35 496 -12 q 651 167 626 82 q 676 379 676 251 l 676 1125 l 528 1125 l 528 372 q 498 178 528 244 q 378 111 468 111 q 258 178 288 111 q 228 372 228 244 l 228 1125 l 78 1125 l 78 379 q 103 167 78 251 q 194 35 128 82 q 378 -12 260 -12 m 313 1449 l 258 1211 l 333 1211 l 435 1449 l 313 1449 m 514 1449 l 433 1211 l 510 1211 l 664 1449 l 514 1449 "},"Ȗ":{"ha":754,"x_min":78,"x_max":676,"o":"m 378 -12 q 561 35 496 -12 q 651 167 626 82 q 676 379 676 251 l 676 1125 l 528 1125 l 528 372 q 498 178 528 244 q 378 111 468 111 q 258 178 288 111 q 228 372 228 244 l 228 1125 l 78 1125 l 78 379 q 103 167 78 251 q 194 35 128 82 q 378 -12 260 -12 m 194 1240 l 282 1240 q 305 1334 283 1306 q 378 1363 326 1363 q 452 1335 431 1363 q 474 1240 474 1307 l 561 1240 q 521 1392 561 1338 q 378 1447 481 1447 q 235 1393 275 1447 q 194 1240 196 1339 "},"Ū":{"ha":754,"x_min":78,"x_max":676,"o":"m 378 -12 q 561 35 496 -12 q 651 167 626 82 q 676 379 676 251 l 676 1125 l 528 1125 l 528 372 q 498 178 528 244 q 378 111 468 111 q 258 178 288 111 q 228 372 228 244 l 228 1125 l 78 1125 l 78 379 q 103 167 78 251 q 194 35 128 82 q 378 -12 260 -12 m 244 1364 l 244 1274 l 511 1274 l 511 1364 l 244 1364 "},"Ų":{"ha":754,"x_min":78,"x_max":676,"o":"m 676 1125 l 528 1125 l 528 372 q 498 178 528 244 q 378 111 468 111 q 258 178 288 111 q 228 372 228 244 l 228 1125 l 78 1125 l 78 379 q 102 169 78 253 q 190 37 126 85 q 368 -12 254 -11 q 281 -92 318 -39 q 243 -201 243 -146 q 294 -297 243 -272 q 436 -321 346 -321 q 486 -317 463 -321 l 511 -243 q 467 -246 486 -246 q 356 -179 356 -246 q 389 -91 356 -137 q 468 -4 422 -44 q 631 116 586 21 q 676 379 676 211 l 676 1125 "},"Ů":{"ha":754,"x_min":78,"x_max":676,"o":"m 378 -12 q 561 35 496 -12 q 651 167 626 82 q 676 379 676 251 l 676 1125 l 528 1125 l 528 372 q 498 178 528 244 q 378 111 468 111 q 258 178 288 111 q 228 372 228 244 l 228 1125 l 78 1125 l 78 379 q 103 167 78 251 q 194 35 128 82 q 378 -12 260 -12 m 378 1150 q 490 1192 447 1150 q 533 1306 533 1235 q 491 1418 533 1376 q 378 1460 449 1460 q 265 1418 307 1460 q 222 1306 222 1376 q 265 1192 222 1235 q 378 1150 308 1150 m 378 1225 q 319 1247 340 1225 q 297 1306 297 1268 q 319 1365 297 1344 q 378 1386 340 1386 q 437 1365 415 1386 q 458 1306 458 1343 q 436 1247 458 1268 q 378 1225 414 1225 "},"Ũ":{"ha":754,"x_min":78,"x_max":676,"o":"m 378 -12 q 561 35 496 -12 q 651 167 626 82 q 676 379 676 251 l 676 1125 l 528 1125 l 528 372 q 498 178 528 244 q 378 111 468 111 q 258 178 288 111 q 228 372 228 244 l 228 1125 l 78 1125 l 78 379 q 103 167 78 251 q 194 35 128 82 q 378 -12 260 -12 m 483 1294 q 563 1335 540 1294 q 586 1447 586 1376 l 503 1447 q 492 1402 503 1415 q 457 1389 482 1389 q 420 1397 438 1389 q 375 1421 403 1404 q 326 1447 347 1438 q 281 1456 304 1456 q 169 1306 169 1456 l 254 1306 q 265 1349 254 1336 q 301 1363 276 1363 q 336 1355 319 1363 q 381 1332 353 1347 q 433 1304 410 1314 q 483 1294 456 1294 "},"V":{"ha":701,"x_min":32,"x_max":669,"o":"m 32 1125 l 283 0 l 421 0 l 669 1125 l 526 1125 l 357 296 l 179 1125 l 32 1125 "},"W":{"ha":1013,"x_min":50,"x_max":963,"o":"m 50 1125 l 233 0 l 353 0 l 511 833 l 668 0 l 782 0 l 963 1125 l 835 1125 l 717 313 l 564 1121 l 453 1121 l 301 317 l 181 1125 l 50 1125 "},"Ẃ":{"ha":1013,"x_min":50,"x_max":963,"o":"m 50 1125 l 233 0 l 353 0 l 511 833 l 668 0 l 782 0 l 963 1125 l 835 1125 l 717 313 l 564 1121 l 453 1121 l 301 317 l 181 1125 l 50 1125 m 550 1467 l 468 1192 l 543 1192 l 699 1467 l 550 1467 "},"Ŵ":{"ha":1013,"x_min":50,"x_max":963,"o":"m 50 1125 l 233 0 l 353 0 l 511 833 l 668 0 l 782 0 l 963 1125 l 835 1125 l 717 313 l 564 1121 l 453 1121 l 301 317 l 181 1125 l 50 1125 m 431 1447 l 311 1204 l 422 1204 l 506 1372 l 590 1204 l 703 1204 l 582 1447 l 431 1447 "},"Ẅ":{"ha":1013,"x_min":50,"x_max":963,"o":"m 50 1125 l 233 0 l 353 0 l 511 833 l 668 0 l 782 0 l 963 1125 l 835 1125 l 717 313 l 564 1121 l 453 1121 l 301 317 l 181 1125 l 50 1125 m 313 1447 l 313 1293 l 463 1293 l 463 1447 l 313 1447 m 551 1447 l 551 1293 l 701 1293 l 701 1447 l 551 1447 "},"Ẁ":{"ha":1013,"x_min":50,"x_max":963,"o":"m 50 1125 l 233 0 l 353 0 l 511 833 l 668 0 l 782 0 l 963 1125 l 835 1125 l 717 313 l 564 1121 l 453 1121 l 301 317 l 181 1125 l 50 1125 m 318 1467 l 472 1192 l 546 1192 l 467 1467 l 318 1467 "},"X":{"ha":669,"x_min":18,"x_max":651,"o":"m 253 589 l 18 0 l 164 0 l 322 424 l 506 0 l 651 0 l 404 576 l 640 1125 l 494 1125 l 339 728 l 168 1125 l 22 1125 l 253 589 "},"Y":{"ha":668,"x_min":17,"x_max":651,"o":"m 260 397 l 260 0 l 410 0 l 410 397 l 651 1125 l 504 1125 l 335 582 l 163 1125 l 17 1125 l 260 397 "},"Ý":{"ha":668,"x_min":17,"x_max":651,"o":"m 260 397 l 260 0 l 410 0 l 410 397 l 651 1125 l 504 1125 l 335 582 l 163 1125 l 17 1125 l 260 397 m 378 1467 l 296 1192 l 371 1192 l 526 1467 l 378 1467 "},"Ŷ":{"ha":668,"x_min":17,"x_max":651,"o":"m 260 397 l 260 0 l 410 0 l 410 397 l 651 1125 l 504 1125 l 335 582 l 163 1125 l 17 1125 l 260 397 m 258 1447 l 139 1204 l 250 1204 l 333 1372 l 418 1204 l 531 1204 l 410 1447 l 258 1447 "},"Ÿ":{"ha":668,"x_min":17,"x_max":651,"o":"m 260 397 l 260 0 l 410 0 l 410 397 l 651 1125 l 504 1125 l 335 582 l 163 1125 l 17 1125 l 260 397 m 140 1447 l 140 1293 l 290 1293 l 290 1447 l 140 1447 m 379 1447 l 379 1293 l 529 1293 l 529 1447 l 379 1447 "},"Ỵ":{"ha":668,"x_min":17,"x_max":651,"o":"m 260 397 l 260 0 l 410 0 l 410 397 l 651 1125 l 504 1125 l 335 582 l 163 1125 l 17 1125 l 260 397 m 260 -87 l 260 -244 l 410 -244 l 410 -87 l 260 -87 "},"Ỳ":{"ha":668,"x_min":17,"x_max":651,"o":"m 260 397 l 260 0 l 410 0 l 410 397 l 651 1125 l 504 1125 l 335 582 l 163 1125 l 17 1125 l 260 397 m 146 1467 l 300 1192 l 374 1192 l 294 1467 l 146 1467 "},"Ỷ":{"ha":668,"x_min":17,"x_max":651,"o":"m 260 397 l 260 0 l 410 0 l 410 397 l 651 1125 l 504 1125 l 335 582 l 163 1125 l 17 1125 l 260 397 m 289 1261 l 336 1206 q 451 1265 413 1232 q 490 1354 490 1297 q 447 1444 490 1414 q 336 1475 404 1475 q 224 1461 278 1475 l 224 1386 q 294 1396 257 1396 q 356 1383 332 1396 q 379 1342 379 1369 q 357 1299 379 1317 q 289 1261 335 1281 "},"Ȳ":{"ha":668,"x_min":17,"x_max":651,"o":"m 260 397 l 260 0 l 410 0 l 410 397 l 651 1125 l 504 1125 l 335 582 l 163 1125 l 17 1125 l 260 397 m 201 1364 l 201 1274 l 468 1274 l 468 1364 l 201 1364 "},"Ỹ":{"ha":668,"x_min":17,"x_max":651,"o":"m 260 397 l 260 0 l 410 0 l 410 397 l 651 1125 l 504 1125 l 335 582 l 163 1125 l 17 1125 l 260 397 m 440 1294 q 520 1335 497 1294 q 543 1447 543 1376 l 460 1447 q 449 1402 460 1415 q 414 1389 439 1389 q 377 1397 394 1389 q 332 1421 360 1404 q 283 1447 304 1438 q 238 1456 261 1456 q 126 1306 126 1456 l 211 1306 q 222 1349 211 1336 q 258 1363 233 1363 q 293 1355 276 1363 q 338 1332 310 1347 q 390 1304 367 1314 q 440 1294 413 1294 "},"Z":{"ha":579,"x_min":53,"x_max":550,"o":"m 53 113 l 53 0 l 550 0 l 550 113 l 201 113 l 550 1057 l 550 1125 l 74 1125 l 74 1013 l 383 1013 l 53 113 "},"Ź":{"ha":579,"x_min":53,"x_max":550,"o":"m 53 113 l 53 0 l 550 0 l 550 113 l 201 113 l 550 1057 l 550 1125 l 74 1125 l 74 1013 l 383 1013 l 53 113 m 333 1467 l 251 1192 l 326 1192 l 482 1467 l 333 1467 "},"Ž":{"ha":579,"x_min":53,"x_max":550,"o":"m 53 113 l 53 0 l 550 0 l 550 113 l 201 113 l 550 1057 l 550 1125 l 74 1125 l 74 1013 l 383 1013 l 53 113 m 96 1447 l 217 1207 l 363 1207 l 485 1447 l 371 1447 l 290 1285 l 210 1447 l 96 1447 "},"Ż":{"ha":579,"x_min":53,"x_max":550,"o":"m 53 113 l 53 0 l 550 0 l 550 113 l 201 113 l 550 1057 l 550 1125 l 74 1125 l 74 1013 l 383 1013 l 53 113 m 215 1419 l 215 1254 l 365 1254 l 365 1419 l 215 1419 "},"a":{"ha":592,"x_min":58,"x_max":538,"o":"m 219 -11 q 324 26 283 -11 q 382 118 365 64 q 401 0 386 79 l 538 0 q 524 193 524 103 l 524 560 q 472 751 524 688 q 304 814 419 814 q 131 759 192 814 q 64 583 71 704 l 63 554 l 210 549 l 210 589 q 294 703 210 703 q 359 670 343 703 q 375 558 375 638 l 375 501 q 201 422 263 456 q 99 328 139 388 q 58 175 58 269 q 79 85 58 128 q 137 15 100 42 q 219 -11 174 -11 m 278 117 q 225 144 243 117 q 207 221 207 171 q 230 301 207 267 q 283 355 253 335 q 375 411 314 375 l 375 183 q 335 140 363 163 q 278 117 307 117 "},"á":{"ha":592,"x_min":58,"x_max":538,"o":"m 219 -11 q 324 26 283 -11 q 382 118 365 64 q 401 0 386 79 l 538 0 q 524 193 524 103 l 524 560 q 472 751 524 688 q 304 814 419 814 q 131 759 192 814 q 64 583 71 704 l 63 554 l 210 549 l 210 589 q 294 703 210 703 q 359 670 343 703 q 375 558 375 638 l 375 501 q 201 422 263 456 q 99 328 139 388 q 58 175 58 269 q 79 85 58 128 q 137 15 100 42 q 219 -11 174 -11 m 278 117 q 225 144 243 117 q 207 221 207 171 q 230 301 207 267 q 283 355 253 335 q 375 411 314 375 l 375 183 q 335 140 363 163 q 278 117 307 117 m 347 1144 l 265 869 l 340 869 l 496 1144 l 347 1144 "},"ă":{"ha":592,"x_min":58,"x_max":538,"o":"m 219 -11 q 324 26 283 -11 q 382 118 365 64 q 401 0 386 79 l 538 0 q 524 193 524 103 l 524 560 q 472 751 524 688 q 304 814 419 814 q 131 759 192 814 q 64 583 71 704 l 63 554 l 210 549 l 210 589 q 294 703 210 703 q 359 670 343 703 q 375 558 375 638 l 375 501 q 201 422 263 456 q 99 328 139 388 q 58 175 58 269 q 79 85 58 128 q 137 15 100 42 q 219 -11 174 -11 m 278 117 q 225 144 243 117 q 207 221 207 171 q 230 301 207 267 q 283 355 253 335 q 375 411 314 375 l 375 183 q 335 140 363 163 q 278 117 307 117 m 304 890 q 444 942 400 890 q 488 1079 488 993 l 400 1079 q 304 975 400 975 q 232 1001 254 975 q 208 1079 210 1026 l 122 1079 q 166 942 122 993 q 304 890 210 890 "},"ắ":{"ha":592,"x_min":58,"x_max":538,"o":"m 219 -11 q 324 26 283 -11 q 382 118 365 64 q 401 0 386 79 l 538 0 q 524 193 524 103 l 524 560 q 472 751 524 688 q 304 814 419 814 q 131 759 192 814 q 64 583 71 704 l 63 554 l 210 549 l 210 589 q 294 703 210 703 q 359 670 343 703 q 375 558 375 638 l 375 501 q 201 422 263 456 q 99 328 139 388 q 58 175 58 269 q 79 85 58 128 q 137 15 100 42 q 219 -11 174 -11 m 278 117 q 225 144 243 117 q 207 221 207 171 q 230 301 207 267 q 283 355 253 335 q 375 411 314 375 l 375 183 q 335 140 363 163 q 278 117 307 117 m 322 1285 l 233 1121 l 322 1121 l 471 1285 l 322 1285 m 304 864 q 444 915 400 864 q 488 1053 488 967 l 400 1053 q 304 949 400 949 q 232 974 254 949 q 208 1053 210 1000 l 122 1053 q 166 915 122 967 q 304 864 210 864 "},"ặ":{"ha":592,"x_min":58,"x_max":538,"o":"m 219 -11 q 324 26 283 -11 q 382 118 365 64 q 401 0 386 79 l 538 0 q 524 193 524 103 l 524 560 q 472 751 524 688 q 304 814 419 814 q 131 759 192 814 q 64 583 71 704 l 63 554 l 210 549 l 210 589 q 294 703 210 703 q 359 670 343 703 q 375 558 375 638 l 375 501 q 201 422 263 456 q 99 328 139 388 q 58 175 58 269 q 79 85 58 128 q 137 15 100 42 q 219 -11 174 -11 m 278 117 q 225 144 243 117 q 207 221 207 171 q 230 301 207 267 q 283 355 253 335 q 375 411 314 375 l 375 183 q 335 140 363 163 q 278 117 307 117 m 221 -87 l 221 -244 l 371 -244 l 371 -87 l 221 -87 m 304 890 q 444 942 400 890 q 488 1079 488 993 l 400 1079 q 304 975 400 975 q 232 1001 254 975 q 208 1079 210 1026 l 122 1079 q 166 942 122 993 q 304 890 210 890 "},"ằ":{"ha":592,"x_min":58,"x_max":538,"o":"m 219 -11 q 324 26 283 -11 q 382 118 365 64 q 401 0 386 79 l 538 0 q 524 193 524 103 l 524 560 q 472 751 524 688 q 304 814 419 814 q 131 759 192 814 q 64 583 71 704 l 63 554 l 210 549 l 210 589 q 294 703 210 703 q 359 670 343 703 q 375 558 375 638 l 375 501 q 201 422 263 456 q 99 328 139 388 q 58 175 58 269 q 79 85 58 128 q 137 15 100 42 q 219 -11 174 -11 m 278 117 q 225 144 243 117 q 207 221 207 171 q 230 301 207 267 q 283 355 253 335 q 375 411 314 375 l 375 183 q 335 140 363 163 q 278 117 307 117 m 132 1285 l 281 1121 l 369 1121 l 281 1285 l 132 1285 m 304 864 q 444 915 400 864 q 488 1053 488 967 l 400 1053 q 304 949 400 949 q 232 974 254 949 q 208 1053 210 1000 l 122 1053 q 166 915 122 967 q 304 864 210 864 "},"ẳ":{"ha":592,"x_min":58,"x_max":538,"o":"m 219 -11 q 324 26 283 -11 q 382 118 365 64 q 401 0 386 79 l 538 0 q 524 193 524 103 l 524 560 q 472 751 524 688 q 304 814 419 814 q 131 759 192 814 q 64 583 71 704 l 63 554 l 210 549 l 210 589 q 294 703 210 703 q 359 670 343 703 q 375 558 375 638 l 375 501 q 201 422 263 456 q 99 328 139 388 q 58 175 58 269 q 79 85 58 128 q 137 15 100 42 q 219 -11 174 -11 m 278 117 q 225 144 243 117 q 207 221 207 171 q 230 301 207 267 q 283 355 253 335 q 375 411 314 375 l 375 183 q 335 140 363 163 q 278 117 307 117 m 263 1136 l 310 1081 q 440 1229 440 1133 q 401 1319 440 1289 q 299 1350 361 1350 q 197 1336 244 1350 l 197 1261 q 261 1271 226 1271 q 310 1258 292 1271 q 329 1217 329 1244 q 313 1174 329 1192 q 263 1136 297 1156 m 304 890 q 444 942 400 890 q 488 1079 488 993 l 400 1079 q 304 975 400 975 q 232 1001 254 975 q 208 1079 210 1026 l 122 1079 q 166 942 122 993 q 304 890 210 890 "},"ẵ":{"ha":592,"x_min":58,"x_max":538,"o":"m 219 -11 q 324 26 283 -11 q 382 118 365 64 q 401 0 386 79 l 538 0 q 524 193 524 103 l 524 560 q 472 751 524 688 q 304 814 419 814 q 131 759 192 814 q 64 583 71 704 l 63 554 l 210 549 l 210 589 q 294 703 210 703 q 359 670 343 703 q 375 558 375 638 l 375 501 q 201 422 263 456 q 99 328 139 388 q 58 175 58 269 q 79 85 58 128 q 137 15 100 42 q 219 -11 174 -11 m 278 117 q 225 144 243 117 q 207 221 207 171 q 230 301 207 267 q 283 355 253 335 q 375 411 314 375 l 375 183 q 335 140 363 163 q 278 117 307 117 m 303 890 q 442 942 399 890 q 486 1079 486 993 l 399 1079 q 303 975 399 975 q 231 1001 253 975 q 207 1079 208 1026 l 121 1079 q 165 942 121 993 q 303 890 208 890 m 410 1147 q 490 1188 467 1147 q 513 1300 513 1229 l 429 1300 q 419 1255 429 1268 q 383 1242 408 1242 q 347 1249 364 1242 q 301 1274 329 1257 q 252 1299 274 1290 q 207 1308 231 1308 q 96 1158 96 1308 l 181 1158 q 192 1202 181 1189 q 228 1215 203 1215 q 263 1208 246 1215 q 307 1185 279 1200 q 359 1157 336 1167 q 410 1147 382 1147 "},"â":{"ha":592,"x_min":58,"x_max":538,"o":"m 219 -11 q 324 26 283 -11 q 382 118 365 64 q 401 0 386 79 l 538 0 q 524 193 524 103 l 524 560 q 472 751 524 688 q 304 814 419 814 q 131 759 192 814 q 64 583 71 704 l 63 554 l 210 549 l 210 589 q 294 703 210 703 q 359 670 343 703 q 375 558 375 638 l 375 501 q 201 422 263 456 q 99 328 139 388 q 58 175 58 269 q 79 85 58 128 q 137 15 100 42 q 219 -11 174 -11 m 278 117 q 225 144 243 117 q 207 221 207 171 q 230 301 207 267 q 283 355 253 335 q 375 411 314 375 l 375 183 q 335 140 363 163 q 278 117 307 117 m 228 1125 l 108 882 l 219 882 l 303 1050 l 388 882 l 500 882 l 379 1125 l 228 1125 "},"ấ":{"ha":592,"x_min":58,"x_max":683,"o":"m 219 -11 q 324 26 283 -11 q 382 118 365 64 q 401 0 386 79 l 538 0 q 524 193 524 103 l 524 560 q 472 751 524 688 q 304 814 419 814 q 131 759 192 814 q 64 583 71 704 l 63 554 l 210 549 l 210 589 q 294 703 210 703 q 359 670 343 703 q 375 558 375 638 l 375 501 q 201 422 263 456 q 99 328 139 388 q 58 175 58 269 q 79 85 58 128 q 137 15 100 42 q 219 -11 174 -11 m 278 117 q 225 144 243 117 q 207 221 207 171 q 230 301 207 267 q 283 355 253 335 q 375 411 314 375 l 375 183 q 335 140 363 163 q 278 117 307 117 m 554 1186 l 481 1026 l 572 1026 l 683 1186 l 554 1186 m 228 1097 l 108 882 l 219 882 l 303 1022 l 388 882 l 500 882 l 379 1097 l 228 1097 "},"ậ":{"ha":592,"x_min":58,"x_max":538,"o":"m 219 -11 q 324 26 283 -11 q 382 118 365 64 q 401 0 386 79 l 538 0 q 524 193 524 103 l 524 560 q 472 751 524 688 q 304 814 419 814 q 131 759 192 814 q 64 583 71 704 l 63 554 l 210 549 l 210 589 q 294 703 210 703 q 359 670 343 703 q 375 558 375 638 l 375 501 q 201 422 263 456 q 99 328 139 388 q 58 175 58 269 q 79 85 58 128 q 137 15 100 42 q 219 -11 174 -11 m 278 117 q 225 144 243 117 q 207 221 207 171 q 230 301 207 267 q 283 355 253 335 q 375 411 314 375 l 375 183 q 335 140 363 163 q 278 117 307 117 m 221 -87 l 221 -244 l 371 -244 l 371 -87 l 221 -87 m 228 1097 l 108 882 l 219 882 l 303 1022 l 388 882 l 500 882 l 379 1097 l 228 1097 "},"ầ":{"ha":592,"x_min":58,"x_max":607,"o":"m 219 -11 q 324 26 283 -11 q 382 118 365 64 q 401 0 386 79 l 538 0 q 524 193 524 103 l 524 560 q 472 751 524 688 q 304 814 419 814 q 131 759 192 814 q 64 583 71 704 l 63 554 l 210 549 l 210 589 q 294 703 210 703 q 359 670 343 703 q 375 558 375 638 l 375 501 q 201 422 263 456 q 99 328 139 388 q 58 175 58 269 q 79 85 58 128 q 137 15 100 42 q 219 -11 174 -11 m 278 117 q 225 144 243 117 q 207 221 207 171 q 230 301 207 267 q 283 355 253 335 q 375 411 314 375 l 375 183 q 335 140 363 163 q 278 117 307 117 m 404 1186 l 515 1026 l 607 1026 l 533 1186 l 404 1186 m 228 1097 l 108 882 l 219 882 l 303 1022 l 388 882 l 500 882 l 379 1097 l 228 1097 "},"ẩ":{"ha":592,"x_min":58,"x_max":644,"o":"m 219 -11 q 324 26 283 -11 q 382 118 365 64 q 401 0 386 79 l 538 0 q 524 193 524 103 l 524 560 q 472 751 524 688 q 304 814 419 814 q 131 759 192 814 q 64 583 71 704 l 63 554 l 210 549 l 210 589 q 294 703 210 703 q 359 670 343 703 q 375 558 375 638 l 375 501 q 201 422 263 456 q 99 328 139 388 q 58 175 58 269 q 79 85 58 128 q 137 15 100 42 q 219 -11 174 -11 m 278 117 q 225 144 243 117 q 207 221 207 171 q 230 301 207 267 q 283 355 253 335 q 375 411 314 375 l 375 183 q 335 140 363 163 q 278 117 307 117 m 467 1051 l 514 996 q 611 1055 578 1022 q 644 1144 644 1088 q 605 1235 644 1204 q 503 1265 565 1265 q 401 1251 449 1265 l 401 1176 q 465 1186 431 1186 q 515 1173 496 1186 q 533 1132 533 1160 q 517 1089 533 1107 q 467 1051 501 1071 m 228 1097 l 108 882 l 219 882 l 303 1022 l 388 882 l 500 882 l 379 1097 l 228 1097 "},"ẫ":{"ha":592,"x_min":58,"x_max":538,"o":"m 219 -11 q 324 26 283 -11 q 382 118 365 64 q 401 0 386 79 l 538 0 q 524 193 524 103 l 524 560 q 472 751 524 688 q 304 814 419 814 q 131 759 192 814 q 64 583 71 704 l 63 554 l 210 549 l 210 589 q 294 703 210 703 q 359 670 343 703 q 375 558 375 638 l 375 501 q 201 422 263 456 q 99 328 139 388 q 58 175 58 269 q 79 85 58 128 q 137 15 100 42 q 219 -11 174 -11 m 278 117 q 225 144 243 117 q 207 221 207 171 q 230 301 207 267 q 283 355 253 335 q 375 411 314 375 l 375 183 q 335 140 363 163 q 278 117 307 117 m 228 1097 l 108 882 l 219 882 l 303 1022 l 388 882 l 500 882 l 379 1097 l 228 1097 m 410 1161 q 490 1202 467 1161 q 513 1314 513 1243 l 429 1314 q 419 1269 429 1282 q 383 1256 408 1256 q 347 1263 364 1256 q 301 1288 329 1271 q 252 1313 274 1304 q 207 1322 231 1322 q 96 1172 96 1322 l 181 1172 q 192 1216 181 1203 q 228 1229 203 1229 q 263 1222 246 1229 q 307 1199 279 1214 q 359 1171 336 1181 q 410 1161 382 1161 "},"ȁ":{"ha":592,"x_min":31,"x_max":538,"o":"m 219 -11 q 324 26 283 -11 q 382 118 365 64 q 401 0 386 79 l 538 0 q 524 193 524 103 l 524 560 q 472 751 524 688 q 304 814 419 814 q 131 759 192 814 q 64 583 71 704 l 63 554 l 210 549 l 210 589 q 294 703 210 703 q 359 670 343 703 q 375 558 375 638 l 375 501 q 201 422 263 456 q 99 328 139 388 q 58 175 58 269 q 79 85 58 128 q 137 15 100 42 q 219 -11 174 -11 m 278 117 q 225 144 243 117 q 207 221 207 171 q 230 301 207 267 q 283 355 253 335 q 375 411 314 375 l 375 183 q 335 140 363 163 q 278 117 307 117 m 31 1125 l 186 889 l 261 889 l 181 1125 l 31 1125 m 261 1125 l 364 889 l 439 889 l 383 1125 l 261 1125 "},"ä":{"ha":592,"x_min":58,"x_max":538,"o":"m 219 -11 q 324 26 283 -11 q 382 118 365 64 q 401 0 386 79 l 538 0 q 524 193 524 103 l 524 560 q 472 751 524 688 q 304 814 419 814 q 131 759 192 814 q 64 583 71 704 l 63 554 l 210 549 l 210 589 q 294 703 210 703 q 359 670 343 703 q 375 558 375 638 l 375 501 q 201 422 263 456 q 99 328 139 388 q 58 175 58 269 q 79 85 58 128 q 137 15 100 42 q 219 -11 174 -11 m 278 117 q 225 144 243 117 q 207 221 207 171 q 230 301 207 267 q 283 355 253 335 q 375 411 314 375 l 375 183 q 335 140 363 163 q 278 117 307 117 m 110 1125 l 110 971 l 260 971 l 260 1125 l 110 1125 m 349 1125 l 349 971 l 499 971 l 499 1125 l 349 1125 "},"ạ":{"ha":592,"x_min":58,"x_max":538,"o":"m 219 -11 q 324 26 283 -11 q 382 118 365 64 q 401 0 386 79 l 538 0 q 524 193 524 103 l 524 560 q 472 751 524 688 q 304 814 419 814 q 131 759 192 814 q 64 583 71 704 l 63 554 l 210 549 l 210 589 q 294 703 210 703 q 359 670 343 703 q 375 558 375 638 l 375 501 q 201 422 263 456 q 99 328 139 388 q 58 175 58 269 q 79 85 58 128 q 137 15 100 42 q 219 -11 174 -11 m 278 117 q 225 144 243 117 q 207 221 207 171 q 230 301 207 267 q 283 355 253 335 q 375 411 314 375 l 375 183 q 335 140 363 163 q 278 117 307 117 m 221 -87 l 221 -244 l 371 -244 l 371 -87 l 221 -87 "},"à":{"ha":592,"x_min":58,"x_max":538,"o":"m 219 -11 q 324 26 283 -11 q 382 118 365 64 q 401 0 386 79 l 538 0 q 524 193 524 103 l 524 560 q 472 751 524 688 q 304 814 419 814 q 131 759 192 814 q 64 583 71 704 l 63 554 l 210 549 l 210 589 q 294 703 210 703 q 359 670 343 703 q 375 558 375 638 l 375 501 q 201 422 263 456 q 99 328 139 388 q 58 175 58 269 q 79 85 58 128 q 137 15 100 42 q 219 -11 174 -11 m 278 117 q 225 144 243 117 q 207 221 207 171 q 230 301 207 267 q 283 355 253 335 q 375 411 314 375 l 375 183 q 335 140 363 163 q 278 117 307 117 m 115 1144 l 269 869 l 343 869 l 264 1144 l 115 1144 "},"ả":{"ha":592,"x_min":58,"x_max":538,"o":"m 219 -11 q 324 26 283 -11 q 382 118 365 64 q 401 0 386 79 l 538 0 q 524 193 524 103 l 524 560 q 472 751 524 688 q 304 814 419 814 q 131 759 192 814 q 64 583 71 704 l 63 554 l 210 549 l 210 589 q 294 703 210 703 q 359 670 343 703 q 375 558 375 638 l 375 501 q 201 422 263 456 q 99 328 139 388 q 58 175 58 269 q 79 85 58 128 q 137 15 100 42 q 219 -11 174 -11 m 278 117 q 225 144 243 117 q 207 221 207 171 q 230 301 207 267 q 283 355 253 335 q 375 411 314 375 l 375 183 q 335 140 363 163 q 278 117 307 117 m 258 939 l 306 883 q 421 942 382 910 q 460 1032 460 975 q 417 1122 460 1092 q 306 1153 374 1153 q 193 1139 247 1153 l 193 1064 q 264 1074 226 1074 q 325 1060 301 1074 q 349 1019 349 1047 q 326 976 349 994 q 258 939 304 958 "},"ȃ":{"ha":592,"x_min":58,"x_max":538,"o":"m 219 -11 q 324 26 283 -11 q 382 118 365 64 q 401 0 386 79 l 538 0 q 524 193 524 103 l 524 560 q 472 751 524 688 q 304 814 419 814 q 131 759 192 814 q 64 583 71 704 l 63 554 l 210 549 l 210 589 q 294 703 210 703 q 359 670 343 703 q 375 558 375 638 l 375 501 q 201 422 263 456 q 99 328 139 388 q 58 175 58 269 q 79 85 58 128 q 137 15 100 42 q 219 -11 174 -11 m 278 117 q 225 144 243 117 q 207 221 207 171 q 230 301 207 267 q 283 355 253 335 q 375 411 314 375 l 375 183 q 335 140 363 163 q 278 117 307 117 m 121 918 l 208 918 q 231 1012 210 983 q 304 1040 253 1040 q 378 1013 357 1040 q 400 918 400 985 l 488 918 q 447 1070 488 1015 q 304 1125 407 1125 q 162 1071 201 1125 q 121 918 122 1017 "},"ā":{"ha":592,"x_min":58,"x_max":538,"o":"m 219 -11 q 324 26 283 -11 q 382 118 365 64 q 401 0 386 79 l 538 0 q 524 193 524 103 l 524 560 q 472 751 524 688 q 304 814 419 814 q 131 759 192 814 q 64 583 71 704 l 63 554 l 210 549 l 210 589 q 294 703 210 703 q 359 670 343 703 q 375 558 375 638 l 375 501 q 201 422 263 456 q 99 328 139 388 q 58 175 58 269 q 79 85 58 128 q 137 15 100 42 q 219 -11 174 -11 m 278 117 q 225 144 243 117 q 207 221 207 171 q 230 301 207 267 q 283 355 253 335 q 375 411 314 375 l 375 183 q 335 140 363 163 q 278 117 307 117 m 171 1042 l 171 951 l 438 951 l 438 1042 l 171 1042 "},"ą":{"ha":592,"x_min":58,"x_max":554,"o":"m 510 -246 q 399 -179 399 -246 q 433 -88 399 -136 q 515 0 468 -40 l 538 0 q 524 193 524 103 l 524 560 q 472 751 524 688 q 304 814 419 814 q 131 759 192 814 q 64 583 71 704 l 63 554 l 210 549 l 210 589 q 294 703 210 703 q 359 670 343 703 q 375 558 375 638 l 375 501 q 201 422 263 456 q 99 328 139 388 q 58 175 58 269 q 79 85 58 128 q 137 15 100 42 q 219 -11 174 -11 q 324 26 283 -11 q 382 118 365 64 q 401 0 386 79 l 440 0 q 368 -42 404 -11 q 309 -116 332 -74 q 286 -201 286 -158 q 338 -297 286 -272 q 479 -321 389 -321 q 529 -317 506 -321 l 554 -243 q 510 -246 529 -246 m 375 411 l 375 183 q 335 140 363 163 q 278 117 307 117 q 225 144 243 117 q 207 221 207 171 q 230 301 207 267 q 283 355 253 335 q 375 411 314 375 "},"å":{"ha":592,"x_min":58,"x_max":538,"o":"m 219 -11 q 324 26 283 -11 q 382 118 365 64 q 401 0 386 79 l 538 0 q 524 193 524 103 l 524 560 q 472 751 524 688 q 304 814 419 814 q 131 759 192 814 q 64 583 71 704 l 63 554 l 210 549 l 210 589 q 294 703 210 703 q 359 670 343 703 q 375 558 375 638 l 375 501 q 201 422 263 456 q 99 328 139 388 q 58 175 58 269 q 79 85 58 128 q 137 15 100 42 q 219 -11 174 -11 m 278 117 q 225 144 243 117 q 207 221 207 171 q 230 301 207 267 q 283 355 253 335 q 375 411 314 375 l 375 183 q 335 140 363 163 q 278 117 307 117 m 304 828 q 417 870 374 828 q 460 983 460 913 q 417 1096 460 1054 q 304 1138 375 1138 q 191 1096 233 1138 q 149 983 149 1054 q 192 870 149 913 q 304 828 235 828 m 304 903 q 245 924 267 903 q 224 983 224 946 q 245 1043 224 1022 q 304 1064 267 1064 q 363 1042 342 1064 q 385 983 385 1021 q 363 924 385 946 q 304 903 340 903 "},"ǻ":{"ha":592,"x_min":58,"x_max":538,"o":"m 219 -11 q 324 26 283 -11 q 382 118 365 64 q 401 0 386 79 l 538 0 q 524 193 524 103 l 524 560 q 472 751 524 688 q 304 814 419 814 q 131 759 192 814 q 64 583 71 704 l 63 554 l 210 549 l 210 589 q 294 703 210 703 q 359 670 343 703 q 375 558 375 638 l 375 501 q 201 422 263 456 q 99 328 139 388 q 58 175 58 269 q 79 85 58 128 q 137 15 100 42 q 219 -11 174 -11 m 278 117 q 225 144 243 117 q 207 221 207 171 q 230 301 207 267 q 283 355 253 335 q 375 411 314 375 l 375 183 q 335 140 363 163 q 278 117 307 117 m 304 828 q 417 870 374 828 q 460 983 460 913 q 417 1096 460 1054 q 304 1138 375 1138 q 191 1096 233 1138 q 149 983 149 1054 q 192 870 149 913 q 304 828 235 828 m 304 903 q 245 924 267 903 q 224 983 224 946 q 245 1043 224 1022 q 304 1064 267 1064 q 363 1042 342 1064 q 385 983 385 1021 q 363 924 385 946 q 304 903 340 903 m 347 1479 l 265 1204 l 340 1204 l 496 1479 l 347 1479 "},"ã":{"ha":592,"x_min":58,"x_max":538,"o":"m 219 -11 q 324 26 283 -11 q 382 118 365 64 q 401 0 386 79 l 538 0 q 524 193 524 103 l 524 560 q 472 751 524 688 q 304 814 419 814 q 131 759 192 814 q 64 583 71 704 l 63 554 l 210 549 l 210 589 q 294 703 210 703 q 359 670 343 703 q 375 558 375 638 l 375 501 q 201 422 263 456 q 99 328 139 388 q 58 175 58 269 q 79 85 58 128 q 137 15 100 42 q 219 -11 174 -11 m 278 117 q 225 144 243 117 q 207 221 207 171 q 230 301 207 267 q 283 355 253 335 q 375 411 314 375 l 375 183 q 335 140 363 163 q 278 117 307 117 m 410 972 q 490 1013 467 972 q 513 1125 513 1054 l 429 1125 q 419 1080 429 1093 q 383 1067 408 1067 q 347 1074 364 1067 q 301 1099 329 1082 q 252 1124 274 1115 q 207 1133 231 1133 q 96 983 96 1133 l 181 983 q 192 1027 181 1014 q 228 1040 203 1040 q 263 1033 246 1040 q 307 1010 279 1025 q 359 982 336 992 q 410 972 382 972 "},"æ":{"ha":907,"x_min":60,"x_max":846,"o":"m 846 279 l 697 279 l 697 244 q 680 143 697 179 q 618 107 663 107 q 557 143 576 107 q 534 226 538 179 q 531 354 531 274 l 531 392 l 629 413 q 738 448 694 429 q 810 507 781 467 q 839 615 839 547 q 790 761 839 708 q 643 814 740 814 q 526 785 576 814 q 454 710 475 757 q 396 785 436 757 q 297 814 356 814 q 126 748 188 814 q 63 568 64 682 l 210 568 q 297 700 210 700 q 364 665 346 700 q 382 558 382 629 l 382 454 l 274 425 q 115 338 169 396 q 60 175 60 279 q 83 83 60 125 q 147 15 106 40 q 238 -11 188 -11 q 357 33 307 -11 q 438 151 407 78 q 497 33 449 78 q 617 -11 544 -11 q 790 56 733 -11 q 846 246 846 122 l 846 279 m 531 472 l 531 551 q 551 656 531 619 q 621 693 571 693 q 683 669 664 693 q 703 606 703 644 q 681 530 703 554 q 607 490 658 506 l 531 472 m 382 368 l 382 293 q 353 153 382 203 q 281 104 324 104 q 229 133 250 104 q 208 207 208 161 q 236 291 208 258 q 318 347 264 324 q 347 358 325 350 q 382 368 369 365 "},"ǽ":{"ha":907,"x_min":60,"x_max":846,"o":"m 846 279 l 697 279 l 697 244 q 680 143 697 179 q 618 107 663 107 q 557 143 576 107 q 534 226 538 179 q 531 354 531 274 l 531 392 l 629 413 q 738 448 694 429 q 810 507 781 467 q 839 615 839 547 q 790 761 839 708 q 643 814 740 814 q 526 785 576 814 q 454 710 475 757 q 396 785 436 757 q 297 814 356 814 q 126 748 188 814 q 63 568 64 682 l 210 568 q 297 700 210 700 q 364 665 346 700 q 382 558 382 629 l 382 454 l 274 425 q 115 338 169 396 q 60 175 60 279 q 83 83 60 125 q 147 15 106 40 q 238 -11 188 -11 q 357 33 307 -11 q 438 151 407 78 q 497 33 449 78 q 617 -11 544 -11 q 790 56 733 -11 q 846 246 846 122 l 846 279 m 531 472 l 531 551 q 551 656 531 619 q 621 693 571 693 q 683 669 664 693 q 703 606 703 644 q 681 530 703 554 q 607 490 658 506 l 531 472 m 382 368 l 382 293 q 353 153 382 203 q 281 104 324 104 q 229 133 250 104 q 208 207 208 161 q 236 291 208 258 q 318 347 264 324 q 347 358 325 350 q 382 368 369 365 m 497 1144 l 415 869 l 490 869 l 646 1144 l 497 1144 "},"b":{"ha":621,"x_min":78,"x_max":561,"o":"m 363 -11 q 561 318 561 -11 l 561 513 q 524 720 561 626 q 378 814 488 814 q 226 739 292 814 l 226 1125 l 78 1125 l 78 0 l 226 0 l 226 58 q 363 -11 290 -11 m 332 106 q 226 142 272 106 l 226 657 q 326 697 278 697 q 396 649 379 697 q 413 513 413 601 l 413 318 q 398 158 413 210 q 332 106 383 106 "},"ḃ":{"ha":621,"x_min":78,"x_max":561,"o":"m 363 -11 q 561 318 561 -11 l 561 513 q 524 720 561 626 q 378 814 488 814 q 226 739 292 814 l 226 1125 l 78 1125 l 78 0 l 226 0 l 226 58 q 363 -11 290 -11 m 332 106 q 226 142 272 106 l 226 657 q 326 697 278 697 q 396 649 379 697 q 413 513 413 601 l 413 318 q 398 158 413 210 q 332 106 383 106 m 78 1419 l 78 1254 l 228 1254 l 228 1419 l 78 1419 "},"c":{"ha":571,"x_min":60,"x_max":514,"o":"m 294 -11 q 466 53 418 -11 q 514 247 514 117 l 514 303 l 379 303 l 379 238 q 364 133 379 167 q 297 99 349 99 q 244 113 263 99 q 217 165 225 128 q 208 271 208 201 l 208 524 q 215 633 208 596 q 240 688 222 671 q 296 704 258 704 q 362 673 344 704 q 379 563 379 642 l 379 514 l 514 514 l 514 561 q 495 703 514 649 q 428 786 476 758 q 294 814 381 814 q 149 777 200 814 q 78 671 97 740 q 60 493 60 601 l 60 308 q 78 134 60 203 q 149 27 97 65 q 294 -11 200 -11 "},"ć":{"ha":571,"x_min":60,"x_max":514,"o":"m 294 -11 q 466 53 418 -11 q 514 247 514 117 l 514 303 l 379 303 l 379 238 q 364 133 379 167 q 297 99 349 99 q 244 113 263 99 q 217 165 225 128 q 208 271 208 201 l 208 524 q 215 633 208 596 q 240 688 222 671 q 296 704 258 704 q 362 673 344 704 q 379 563 379 642 l 379 514 l 514 514 l 514 561 q 495 703 514 649 q 428 786 476 758 q 294 814 381 814 q 149 777 200 814 q 78 671 97 740 q 60 493 60 601 l 60 308 q 78 134 60 203 q 149 27 97 65 q 294 -11 200 -11 m 329 1144 l 247 869 l 322 869 l 478 1144 l 329 1144 "},"č":{"ha":571,"x_min":60,"x_max":514,"o":"m 294 -11 q 466 53 418 -11 q 514 247 514 117 l 514 303 l 379 303 l 379 238 q 364 133 379 167 q 297 99 349 99 q 244 113 263 99 q 217 165 225 128 q 208 271 208 201 l 208 524 q 215 633 208 596 q 240 688 222 671 q 296 704 258 704 q 362 673 344 704 q 379 563 379 642 l 379 514 l 514 514 l 514 561 q 495 703 514 649 q 428 786 476 758 q 294 814 381 814 q 149 777 200 814 q 78 671 97 740 q 60 493 60 601 l 60 308 q 78 134 60 203 q 149 27 97 65 q 294 -11 200 -11 m 92 1125 l 213 885 l 358 885 l 481 1125 l 367 1125 l 286 963 l 206 1125 l 92 1125 "},"ç":{"ha":571,"x_min":60,"x_max":514,"o":"m 379 514 l 514 514 l 514 561 q 495 703 514 649 q 428 786 476 758 q 294 814 381 814 q 149 777 200 814 q 78 671 97 740 q 60 493 60 601 l 60 308 q 99 83 60 161 q 249 -8 139 4 l 249 -115 q 338 -141 310 -124 q 367 -193 367 -158 q 343 -234 367 -221 q 282 -247 319 -247 q 211 -237 244 -247 l 211 -312 q 304 -326 264 -326 q 430 -294 382 -326 q 478 -197 478 -261 q 435 -110 478 -143 q 324 -78 393 -78 l 324 -10 q 472 61 429 -3 q 514 247 514 125 l 514 303 l 379 303 l 379 238 q 364 133 379 167 q 297 99 349 99 q 244 113 263 99 q 217 165 225 128 q 208 271 208 201 l 208 524 q 215 633 208 596 q 240 688 222 671 q 296 704 258 704 q 362 673 344 704 q 379 563 379 642 l 379 514 "},"ĉ":{"ha":571,"x_min":60,"x_max":514,"o":"m 294 -11 q 466 53 418 -11 q 514 247 514 117 l 514 303 l 379 303 l 379 238 q 364 133 379 167 q 297 99 349 99 q 244 113 263 99 q 217 165 225 128 q 208 271 208 201 l 208 524 q 215 633 208 596 q 240 688 222 671 q 296 704 258 704 q 362 673 344 704 q 379 563 379 642 l 379 514 l 514 514 l 514 561 q 495 703 514 649 q 428 786 476 758 q 294 814 381 814 q 149 777 200 814 q 78 671 97 740 q 60 493 60 601 l 60 308 q 78 134 60 203 q 149 27 97 65 q 294 -11 200 -11 m 210 1125 l 90 882 l 201 882 l 285 1050 l 369 882 l 482 882 l 361 1125 l 210 1125 "},"ċ":{"ha":571,"x_min":60,"x_max":514,"o":"m 294 -11 q 466 53 418 -11 q 514 247 514 117 l 514 303 l 379 303 l 379 238 q 364 133 379 167 q 297 99 349 99 q 244 113 263 99 q 217 165 225 128 q 208 271 208 201 l 208 524 q 215 633 208 596 q 240 688 222 671 q 296 704 258 704 q 362 673 344 704 q 379 563 379 642 l 379 514 l 514 514 l 514 561 q 495 703 514 649 q 428 786 476 758 q 294 814 381 814 q 149 777 200 814 q 78 671 97 740 q 60 493 60 601 l 60 308 q 78 134 60 203 q 149 27 97 65 q 294 -11 200 -11 m 211 1097 l 211 932 l 361 932 l 361 1097 l 211 1097 "},"d":{"ha":614,"x_min":60,"x_max":539,"o":"m 258 -11 q 390 51 332 -11 l 390 0 l 539 0 l 539 1125 l 390 1125 l 390 751 q 257 814 328 814 q 102 722 144 814 q 60 471 60 631 l 60 315 q 108 65 60 142 q 258 -11 156 -11 m 299 106 q 226 156 244 106 q 208 303 208 206 l 208 529 q 296 697 208 697 q 390 663 339 697 l 390 136 q 299 106 343 106 "},"ð":{"ha":654,"x_min":72,"x_max":614,"o":"m 315 -12 q 516 76 454 -12 q 578 329 578 165 l 578 524 q 557 747 578 649 q 490 946 536 846 l 614 979 l 614 1054 l 453 1007 q 327 1105 407 1074 q 114 1138 247 1136 l 107 1040 q 253 1022 201 1039 q 336 969 306 1004 l 211 933 l 211 858 l 376 910 q 425 724 413 854 q 290 774 369 774 q 118 677 164 774 q 72 406 72 581 l 72 313 q 91 133 72 203 q 163 26 110 64 q 315 -12 217 -12 m 319 106 q 239 151 258 106 q 219 286 219 197 l 221 394 q 244 591 221 531 q 328 651 267 651 q 376 642 354 651 q 412 620 399 633 q 428 606 425 607 q 431 476 431 528 l 429 304 q 408 153 429 201 q 319 106 388 106 "},"ď":{"ha":731,"x_min":60,"x_max":758,"o":"m 258 -11 q 390 51 332 -11 l 390 0 l 539 0 l 539 1125 l 390 1125 l 390 751 q 257 814 328 814 q 102 722 144 814 q 60 471 60 631 l 60 315 q 108 65 60 142 q 258 -11 156 -11 m 299 106 q 226 156 244 106 q 208 303 208 206 l 208 529 q 296 697 208 697 q 390 663 339 697 l 390 136 q 299 106 343 106 m 604 847 l 628 783 q 726 851 694 807 q 758 968 758 894 l 758 1125 l 606 1125 l 606 965 l 685 965 q 663 891 685 922 q 604 847 642 860 "},"đ":{"ha":631,"x_min":60,"x_max":621,"o":"m 258 -11 q 390 51 332 -11 l 390 0 l 539 0 l 539 943 l 621 943 l 621 1025 l 539 1025 l 539 1125 l 390 1125 l 390 1025 l 235 1025 l 235 943 l 390 943 l 390 751 q 257 814 328 814 q 102 722 144 814 q 60 471 60 631 l 60 315 q 108 65 60 142 q 258 -11 156 -11 m 299 106 q 226 156 244 106 q 208 303 208 206 l 208 529 q 296 697 208 697 q 390 663 339 697 l 390 136 q 299 106 343 106 "},"ḋ":{"ha":614,"x_min":60,"x_max":540,"o":"m 258 -11 q 390 51 332 -11 l 390 0 l 539 0 l 539 1125 l 390 1125 l 390 751 q 257 814 328 814 q 102 722 144 814 q 60 471 60 631 l 60 315 q 108 65 60 142 q 258 -11 156 -11 m 299 106 q 226 156 244 106 q 208 303 208 206 l 208 529 q 296 697 208 697 q 390 663 339 697 l 390 136 q 299 106 343 106 m 390 1419 l 390 1254 l 540 1254 l 540 1419 l 390 1419 "},"ǳ":{"ha":1096,"x_min":60,"x_max":1064,"o":"m 258 -11 q 390 51 332 -11 l 390 0 l 539 0 l 539 1125 l 390 1125 l 390 751 q 257 814 328 814 q 102 722 144 814 q 60 471 60 631 l 60 315 q 108 65 60 142 q 258 -11 156 -11 m 299 106 q 226 156 244 106 q 208 303 208 206 l 208 529 q 296 697 208 697 q 390 663 339 697 l 390 136 q 299 106 343 106 m 658 100 l 658 0 l 1058 0 l 1058 113 l 817 113 l 1064 722 l 1064 803 l 683 803 l 683 692 l 904 692 l 658 100 "},"ǆ":{"ha":1096,"x_min":60,"x_max":1064,"o":"m 258 -11 q 390 51 332 -11 l 390 0 l 539 0 l 539 1125 l 390 1125 l 390 751 q 257 814 328 814 q 102 722 144 814 q 60 471 60 631 l 60 315 q 108 65 60 142 q 258 -11 156 -11 m 299 106 q 226 156 244 106 q 208 303 208 206 l 208 529 q 296 697 208 697 q 390 663 339 697 l 390 136 q 299 106 343 106 m 658 100 l 658 0 l 1058 0 l 1058 113 l 817 113 l 1064 722 l 1064 803 l 683 803 l 683 692 l 904 692 l 658 100 m 661 1125 l 782 885 l 928 885 l 1050 1125 l 936 1125 l 856 963 l 775 1125 l 661 1125 "},"e":{"ha":585,"x_min":60,"x_max":525,"o":"m 297 -11 q 469 56 415 -11 q 524 249 524 122 l 524 279 l 379 279 l 379 231 q 362 131 379 164 q 296 99 344 99 q 234 123 253 99 q 212 183 215 147 q 208 292 208 219 l 208 399 l 525 399 l 525 464 q 509 660 525 588 q 444 774 493 733 q 297 814 394 814 q 112 737 164 814 q 60 493 60 660 l 60 310 q 81 129 60 199 q 153 24 101 60 q 297 -11 204 -11 m 379 479 l 208 479 l 208 522 q 215 633 208 594 q 241 688 222 671 q 296 704 260 704 q 363 669 347 704 q 379 551 379 633 l 379 479 "},"é":{"ha":585,"x_min":60,"x_max":525,"o":"m 297 -11 q 469 56 415 -11 q 524 249 524 122 l 524 279 l 379 279 l 379 231 q 362 131 379 164 q 296 99 344 99 q 234 123 253 99 q 212 183 215 147 q 208 292 208 219 l 208 399 l 525 399 l 525 464 q 509 660 525 588 q 444 774 493 733 q 297 814 394 814 q 112 737 164 814 q 60 493 60 660 l 60 310 q 81 129 60 199 q 153 24 101 60 q 297 -11 204 -11 m 379 479 l 208 479 l 208 522 q 215 633 208 594 q 241 688 222 671 q 296 704 260 704 q 363 669 347 704 q 379 551 379 633 l 379 479 m 336 1144 l 254 869 l 329 869 l 485 1144 l 336 1144 "},"ĕ":{"ha":585,"x_min":60,"x_max":525,"o":"m 297 -11 q 469 56 415 -11 q 524 249 524 122 l 524 279 l 379 279 l 379 231 q 362 131 379 164 q 296 99 344 99 q 234 123 253 99 q 212 183 215 147 q 208 292 208 219 l 208 399 l 525 399 l 525 464 q 509 660 525 588 q 444 774 493 733 q 297 814 394 814 q 112 737 164 814 q 60 493 60 660 l 60 310 q 81 129 60 199 q 153 24 101 60 q 297 -11 204 -11 m 379 479 l 208 479 l 208 522 q 215 633 208 594 q 241 688 222 671 q 296 704 260 704 q 363 669 347 704 q 379 551 379 633 l 379 479 m 293 890 q 433 942 389 890 q 476 1079 476 993 l 389 1079 q 293 975 389 975 q 221 1001 243 975 q 197 1079 199 1026 l 111 1079 q 155 942 111 993 q 293 890 199 890 "},"ě":{"ha":585,"x_min":60,"x_max":525,"o":"m 297 -11 q 469 56 415 -11 q 524 249 524 122 l 524 279 l 379 279 l 379 231 q 362 131 379 164 q 296 99 344 99 q 234 123 253 99 q 212 183 215 147 q 208 292 208 219 l 208 399 l 525 399 l 525 464 q 509 660 525 588 q 444 774 493 733 q 297 814 394 814 q 112 737 164 814 q 60 493 60 660 l 60 310 q 81 129 60 199 q 153 24 101 60 q 297 -11 204 -11 m 379 479 l 208 479 l 208 522 q 215 633 208 594 q 241 688 222 671 q 296 704 260 704 q 363 669 347 704 q 379 551 379 633 l 379 479 m 99 1125 l 219 885 l 365 885 l 488 1125 l 374 1125 l 293 963 l 213 1125 l 99 1125 "},"ê":{"ha":585,"x_min":60,"x_max":525,"o":"m 297 -11 q 469 56 415 -11 q 524 249 524 122 l 524 279 l 379 279 l 379 231 q 362 131 379 164 q 296 99 344 99 q 234 123 253 99 q 212 183 215 147 q 208 292 208 219 l 208 399 l 525 399 l 525 464 q 509 660 525 588 q 444 774 493 733 q 297 814 394 814 q 112 737 164 814 q 60 493 60 660 l 60 310 q 81 129 60 199 q 153 24 101 60 q 297 -11 204 -11 m 379 479 l 208 479 l 208 522 q 215 633 208 594 q 241 688 222 671 q 296 704 260 704 q 363 669 347 704 q 379 551 379 633 l 379 479 m 217 1125 l 97 882 l 208 882 l 292 1050 l 376 882 l 489 882 l 368 1125 l 217 1125 "},"ế":{"ha":585,"x_min":60,"x_max":672,"o":"m 297 -11 q 469 56 415 -11 q 524 249 524 122 l 524 279 l 379 279 l 379 231 q 362 131 379 164 q 296 99 344 99 q 234 123 253 99 q 212 183 215 147 q 208 292 208 219 l 208 399 l 525 399 l 525 464 q 509 660 525 588 q 444 774 493 733 q 297 814 394 814 q 112 737 164 814 q 60 493 60 660 l 60 310 q 81 129 60 199 q 153 24 101 60 q 297 -11 204 -11 m 379 479 l 208 479 l 208 522 q 215 633 208 594 q 241 688 222 671 q 296 704 260 704 q 363 669 347 704 q 379 551 379 633 l 379 479 m 543 1186 l 469 1026 l 561 1026 l 672 1186 l 543 1186 m 217 1097 l 97 882 l 208 882 l 292 1022 l 376 882 l 489 882 l 368 1097 l 217 1097 "},"ệ":{"ha":585,"x_min":60,"x_max":525,"o":"m 297 -11 q 469 56 415 -11 q 524 249 524 122 l 524 279 l 379 279 l 379 231 q 362 131 379 164 q 296 99 344 99 q 234 123 253 99 q 212 183 215 147 q 208 292 208 219 l 208 399 l 525 399 l 525 464 q 509 660 525 588 q 444 774 493 733 q 297 814 394 814 q 112 737 164 814 q 60 493 60 660 l 60 310 q 81 129 60 199 q 153 24 101 60 q 297 -11 204 -11 m 379 479 l 208 479 l 208 522 q 215 633 208 594 q 241 688 222 671 q 296 704 260 704 q 363 669 347 704 q 379 551 379 633 l 379 479 m 218 -87 l 218 -244 l 368 -244 l 368 -87 l 218 -87 m 217 1097 l 97 882 l 208 882 l 292 1022 l 376 882 l 489 882 l 368 1097 l 217 1097 "},"ề":{"ha":585,"x_min":60,"x_max":596,"o":"m 297 -11 q 469 56 415 -11 q 524 249 524 122 l 524 279 l 379 279 l 379 231 q 362 131 379 164 q 296 99 344 99 q 234 123 253 99 q 212 183 215 147 q 208 292 208 219 l 208 399 l 525 399 l 525 464 q 509 660 525 588 q 444 774 493 733 q 297 814 394 814 q 112 737 164 814 q 60 493 60 660 l 60 310 q 81 129 60 199 q 153 24 101 60 q 297 -11 204 -11 m 379 479 l 208 479 l 208 522 q 215 633 208 594 q 241 688 222 671 q 296 704 260 704 q 363 669 347 704 q 379 551 379 633 l 379 479 m 393 1186 l 504 1026 l 596 1026 l 522 1186 l 393 1186 m 217 1097 l 97 882 l 208 882 l 292 1022 l 376 882 l 489 882 l 368 1097 l 217 1097 "},"ể":{"ha":585,"x_min":60,"x_max":633,"o":"m 297 -11 q 469 56 415 -11 q 524 249 524 122 l 524 279 l 379 279 l 379 231 q 362 131 379 164 q 296 99 344 99 q 234 123 253 99 q 212 183 215 147 q 208 292 208 219 l 208 399 l 525 399 l 525 464 q 509 660 525 588 q 444 774 493 733 q 297 814 394 814 q 112 737 164 814 q 60 493 60 660 l 60 310 q 81 129 60 199 q 153 24 101 60 q 297 -11 204 -11 m 379 479 l 208 479 l 208 522 q 215 633 208 594 q 241 688 222 671 q 296 704 260 704 q 363 669 347 704 q 379 551 379 633 l 379 479 m 456 1051 l 503 996 q 600 1055 567 1022 q 633 1144 633 1088 q 594 1235 633 1204 q 492 1265 554 1265 q 390 1251 438 1265 l 390 1176 q 454 1186 419 1186 q 503 1173 485 1186 q 522 1132 522 1160 q 506 1089 522 1107 q 456 1051 490 1071 m 217 1097 l 97 882 l 208 882 l 292 1022 l 376 882 l 489 882 l 368 1097 l 217 1097 "},"ễ":{"ha":585,"x_min":60,"x_max":525,"o":"m 297 -11 q 469 56 415 -11 q 524 249 524 122 l 524 279 l 379 279 l 379 231 q 362 131 379 164 q 296 99 344 99 q 234 123 253 99 q 212 183 215 147 q 208 292 208 219 l 208 399 l 525 399 l 525 464 q 509 660 525 588 q 444 774 493 733 q 297 814 394 814 q 112 737 164 814 q 60 493 60 660 l 60 310 q 81 129 60 199 q 153 24 101 60 q 297 -11 204 -11 m 379 479 l 208 479 l 208 522 q 215 633 208 594 q 241 688 222 671 q 296 704 260 704 q 363 669 347 704 q 379 551 379 633 l 379 479 m 217 1097 l 97 882 l 208 882 l 292 1022 l 376 882 l 489 882 l 368 1097 l 217 1097 m 399 1161 q 478 1202 456 1161 q 501 1314 501 1243 l 418 1314 q 408 1269 418 1282 q 372 1256 397 1256 q 335 1263 353 1256 q 290 1288 318 1271 q 241 1313 263 1304 q 196 1322 219 1322 q 85 1172 85 1322 l 169 1172 q 181 1216 169 1203 q 217 1229 192 1229 q 251 1222 235 1229 q 296 1199 268 1214 q 348 1171 325 1181 q 399 1161 371 1161 "},"ȅ":{"ha":585,"x_min":19,"x_max":525,"o":"m 297 -11 q 469 56 415 -11 q 524 249 524 122 l 524 279 l 379 279 l 379 231 q 362 131 379 164 q 296 99 344 99 q 234 123 253 99 q 212 183 215 147 q 208 292 208 219 l 208 399 l 525 399 l 525 464 q 509 660 525 588 q 444 774 493 733 q 297 814 394 814 q 112 737 164 814 q 60 493 60 660 l 60 310 q 81 129 60 199 q 153 24 101 60 q 297 -11 204 -11 m 379 479 l 208 479 l 208 522 q 215 633 208 594 q 241 688 222 671 q 296 704 260 704 q 363 669 347 704 q 379 551 379 633 l 379 479 m 19 1125 l 175 889 l 250 889 l 169 1125 l 19 1125 m 250 1125 l 353 889 l 428 889 l 372 1125 l 250 1125 "},"ë":{"ha":585,"x_min":60,"x_max":525,"o":"m 297 -11 q 469 56 415 -11 q 524 249 524 122 l 524 279 l 379 279 l 379 231 q 362 131 379 164 q 296 99 344 99 q 234 123 253 99 q 212 183 215 147 q 208 292 208 219 l 208 399 l 525 399 l 525 464 q 509 660 525 588 q 444 774 493 733 q 297 814 394 814 q 112 737 164 814 q 60 493 60 660 l 60 310 q 81 129 60 199 q 153 24 101 60 q 297 -11 204 -11 m 379 479 l 208 479 l 208 522 q 215 633 208 594 q 241 688 222 671 q 296 704 260 704 q 363 669 347 704 q 379 551 379 633 l 379 479 m 99 1125 l 99 971 l 249 971 l 249 1125 l 99 1125 m 338 1125 l 338 971 l 488 971 l 488 1125 l 338 1125 "},"ė":{"ha":585,"x_min":60,"x_max":525,"o":"m 297 -11 q 469 56 415 -11 q 524 249 524 122 l 524 279 l 379 279 l 379 231 q 362 131 379 164 q 296 99 344 99 q 234 123 253 99 q 212 183 215 147 q 208 292 208 219 l 208 399 l 525 399 l 525 464 q 509 660 525 588 q 444 774 493 733 q 297 814 394 814 q 112 737 164 814 q 60 493 60 660 l 60 310 q 81 129 60 199 q 153 24 101 60 q 297 -11 204 -11 m 379 479 l 208 479 l 208 522 q 215 633 208 594 q 241 688 222 671 q 296 704 260 704 q 363 669 347 704 q 379 551 379 633 l 379 479 m 218 1097 l 218 932 l 368 932 l 368 1097 l 218 1097 "},"ẹ":{"ha":585,"x_min":60,"x_max":525,"o":"m 297 -11 q 469 56 415 -11 q 524 249 524 122 l 524 279 l 379 279 l 379 231 q 362 131 379 164 q 296 99 344 99 q 234 123 253 99 q 212 183 215 147 q 208 292 208 219 l 208 399 l 525 399 l 525 464 q 509 660 525 588 q 444 774 493 733 q 297 814 394 814 q 112 737 164 814 q 60 493 60 660 l 60 310 q 81 129 60 199 q 153 24 101 60 q 297 -11 204 -11 m 379 479 l 208 479 l 208 522 q 215 633 208 594 q 241 688 222 671 q 296 704 260 704 q 363 669 347 704 q 379 551 379 633 l 379 479 m 218 -87 l 218 -244 l 368 -244 l 368 -87 l 218 -87 "},"è":{"ha":585,"x_min":60,"x_max":525,"o":"m 297 -11 q 469 56 415 -11 q 524 249 524 122 l 524 279 l 379 279 l 379 231 q 362 131 379 164 q 296 99 344 99 q 234 123 253 99 q 212 183 215 147 q 208 292 208 219 l 208 399 l 525 399 l 525 464 q 509 660 525 588 q 444 774 493 733 q 297 814 394 814 q 112 737 164 814 q 60 493 60 660 l 60 310 q 81 129 60 199 q 153 24 101 60 q 297 -11 204 -11 m 379 479 l 208 479 l 208 522 q 215 633 208 594 q 241 688 222 671 q 296 704 260 704 q 363 669 347 704 q 379 551 379 633 l 379 479 m 104 1144 l 258 869 l 332 869 l 253 1144 l 104 1144 "},"ẻ":{"ha":585,"x_min":60,"x_max":525,"o":"m 297 -11 q 469 56 415 -11 q 524 249 524 122 l 524 279 l 379 279 l 379 231 q 362 131 379 164 q 296 99 344 99 q 234 123 253 99 q 212 183 215 147 q 208 292 208 219 l 208 399 l 525 399 l 525 464 q 509 660 525 588 q 444 774 493 733 q 297 814 394 814 q 112 737 164 814 q 60 493 60 660 l 60 310 q 81 129 60 199 q 153 24 101 60 q 297 -11 204 -11 m 379 479 l 208 479 l 208 522 q 215 633 208 594 q 241 688 222 671 q 296 704 260 704 q 363 669 347 704 q 379 551 379 633 l 379 479 m 247 939 l 294 883 q 410 942 371 910 q 449 1032 449 975 q 406 1122 449 1092 q 294 1153 363 1153 q 182 1139 236 1153 l 182 1064 q 253 1074 215 1074 q 314 1060 290 1074 q 338 1019 338 1047 q 315 976 338 994 q 247 939 293 958 "},"ȇ":{"ha":585,"x_min":60,"x_max":525,"o":"m 297 -11 q 469 56 415 -11 q 524 249 524 122 l 524 279 l 379 279 l 379 231 q 362 131 379 164 q 296 99 344 99 q 234 123 253 99 q 212 183 215 147 q 208 292 208 219 l 208 399 l 525 399 l 525 464 q 509 660 525 588 q 444 774 493 733 q 297 814 394 814 q 112 737 164 814 q 60 493 60 660 l 60 310 q 81 129 60 199 q 153 24 101 60 q 297 -11 204 -11 m 379 479 l 208 479 l 208 522 q 215 633 208 594 q 241 688 222 671 q 296 704 260 704 q 363 669 347 704 q 379 551 379 633 l 379 479 m 110 918 l 197 918 q 220 1012 199 983 q 293 1040 242 1040 q 367 1013 346 1040 q 389 918 389 985 l 476 918 q 436 1070 476 1015 q 293 1125 396 1125 q 151 1071 190 1125 q 110 918 111 1017 "},"ē":{"ha":585,"x_min":60,"x_max":525,"o":"m 297 -11 q 469 56 415 -11 q 524 249 524 122 l 524 279 l 379 279 l 379 231 q 362 131 379 164 q 296 99 344 99 q 234 123 253 99 q 212 183 215 147 q 208 292 208 219 l 208 399 l 525 399 l 525 464 q 509 660 525 588 q 444 774 493 733 q 297 814 394 814 q 112 737 164 814 q 60 493 60 660 l 60 310 q 81 129 60 199 q 153 24 101 60 q 297 -11 204 -11 m 379 479 l 208 479 l 208 522 q 215 633 208 594 q 241 688 222 671 q 296 704 260 704 q 363 669 347 704 q 379 551 379 633 l 379 479 m 160 1042 l 160 951 l 426 951 l 426 1042 l 160 1042 "},"ę":{"ha":585,"x_min":60,"x_max":525,"o":"m 208 292 l 208 399 l 525 399 l 525 464 q 509 660 525 588 q 444 774 493 733 q 297 814 394 814 q 112 737 164 814 q 60 493 60 660 l 60 310 q 103 77 60 154 q 261 -10 147 0 q 186 -89 217 -40 q 156 -187 156 -137 q 207 -283 156 -258 q 349 -307 258 -307 q 399 -303 376 -307 l 424 -229 q 379 -232 399 -232 q 268 -165 268 -232 q 296 -85 268 -128 q 364 -4 324 -43 q 485 77 447 13 q 524 249 524 142 l 524 279 l 379 279 l 379 231 q 362 131 379 164 q 296 99 344 99 q 234 123 253 99 q 212 183 215 147 q 208 292 208 219 m 208 479 l 208 522 q 215 633 208 594 q 241 688 222 671 q 296 704 260 704 q 363 669 347 704 q 379 551 379 633 l 379 479 l 208 479 "},"ẽ":{"ha":585,"x_min":60,"x_max":525,"o":"m 297 -11 q 469 56 415 -11 q 524 249 524 122 l 524 279 l 379 279 l 379 231 q 362 131 379 164 q 296 99 344 99 q 234 123 253 99 q 212 183 215 147 q 208 292 208 219 l 208 399 l 525 399 l 525 464 q 509 660 525 588 q 444 774 493 733 q 297 814 394 814 q 112 737 164 814 q 60 493 60 660 l 60 310 q 81 129 60 199 q 153 24 101 60 q 297 -11 204 -11 m 379 479 l 208 479 l 208 522 q 215 633 208 594 q 241 688 222 671 q 296 704 260 704 q 363 669 347 704 q 379 551 379 633 l 379 479 m 399 972 q 478 1013 456 972 q 501 1125 501 1054 l 418 1125 q 408 1080 418 1093 q 372 1067 397 1067 q 335 1074 353 1067 q 290 1099 318 1082 q 241 1124 263 1115 q 196 1133 219 1133 q 85 983 85 1133 l 169 983 q 181 1027 169 1014 q 217 1040 192 1040 q 251 1033 235 1040 q 296 1010 268 1025 q 348 982 325 992 q 399 972 371 972 "},"ə":{"ha":585,"x_min":60,"x_max":525,"o":"m 288 -12 q 473 65 421 -12 q 525 308 525 142 l 525 494 q 504 674 525 604 q 432 778 483 743 q 288 814 381 814 q 115 747 169 814 q 61 556 61 681 l 61 525 l 206 525 l 206 574 q 223 672 206 639 q 289 704 240 704 q 351 680 332 704 q 373 619 369 656 q 376 513 376 583 l 376 403 l 60 403 l 60 338 q 76 141 60 214 q 141 28 92 68 q 288 -12 190 -12 m 289 97 q 222 133 238 97 q 206 250 206 168 l 206 322 l 376 322 l 376 279 q 369 169 376 207 q 344 114 363 131 q 289 97 325 97 "},"f":{"ha":399,"x_min":26,"x_max":393,"o":"m 122 693 l 122 0 l 271 0 l 271 693 l 393 693 l 393 803 l 271 803 l 271 869 q 284 948 271 922 q 338 974 297 974 q 365 971 347 974 q 393 967 382 968 l 393 1078 q 296 1085 328 1085 q 185 1057 224 1085 q 135 978 147 1029 q 122 844 122 928 l 122 803 l 26 803 l 26 693 l 122 693 "},"ḟ":{"ha":399,"x_min":26,"x_max":393,"o":"m 122 693 l 122 0 l 271 0 l 271 693 l 393 693 l 393 803 l 271 803 l 271 869 q 284 948 271 922 q 338 974 297 974 q 365 971 347 974 q 393 967 382 968 l 393 1078 q 296 1085 328 1085 q 185 1057 224 1085 q 135 978 147 1029 q 122 844 122 928 l 122 803 l 26 803 l 26 693 l 122 693 m 197 1372 l 197 1207 l 347 1207 l 347 1372 l 197 1372 "},"g":{"ha":604,"x_min":28,"x_max":621,"o":"m 325 -249 q 505 -202 447 -249 q 563 -49 563 -156 q 376 147 563 131 q 315 152 357 149 q 251 158 272 156 q 201 170 217 161 q 185 194 185 179 q 197 232 185 213 q 211 256 208 251 q 288 246 250 246 q 458 319 407 246 q 510 524 510 392 q 502 601 510 557 q 485 671 494 646 q 544 699 494 681 q 621 722 593 717 l 583 818 l 561 808 q 494 766 525 792 q 453 725 463 740 q 392 792 432 769 q 288 814 351 814 q 119 741 176 814 q 61 528 61 668 q 84 380 61 435 q 154 289 107 325 q 86 215 107 246 q 65 143 65 185 q 85 92 65 115 q 143 57 106 68 q 60 -15 93 31 q 28 -124 28 -61 q 105 -225 28 -201 q 325 -249 182 -249 m 288 350 q 210 396 231 350 q 190 528 190 442 q 210 667 190 624 q 289 711 231 711 q 365 667 347 711 q 383 528 383 624 q 365 392 383 433 q 288 350 347 350 m 322 -132 q 215 -125 251 -132 q 165 -103 178 -118 q 153 -64 153 -89 q 172 -4 153 -32 q 213 40 192 24 l 339 29 q 425 5 401 24 q 449 -53 449 -14 q 418 -113 449 -94 q 322 -132 388 -132 "},"ǵ":{"ha":604,"x_min":28,"x_max":621,"o":"m 325 -249 q 505 -202 447 -249 q 563 -49 563 -156 q 376 147 563 131 q 315 152 357 149 q 251 158 272 156 q 201 170 217 161 q 185 194 185 179 q 197 232 185 213 q 211 256 208 251 q 288 246 250 246 q 458 319 407 246 q 510 524 510 392 q 502 601 510 557 q 485 671 494 646 q 544 699 494 681 q 621 722 593 717 l 583 818 l 561 808 q 494 766 525 792 q 453 725 463 740 q 392 792 432 769 q 288 814 351 814 q 119 741 176 814 q 61 528 61 668 q 84 380 61 435 q 154 289 107 325 q 86 215 107 246 q 65 143 65 185 q 85 92 65 115 q 143 57 106 68 q 60 -15 93 31 q 28 -124 28 -61 q 105 -225 28 -201 q 325 -249 182 -249 m 288 350 q 210 396 231 350 q 190 528 190 442 q 210 667 190 624 q 289 711 231 711 q 365 667 347 711 q 383 528 383 624 q 365 392 383 433 q 288 350 347 350 m 322 -132 q 215 -125 251 -132 q 165 -103 178 -118 q 153 -64 153 -89 q 172 -4 153 -32 q 213 40 192 24 l 339 29 q 425 5 401 24 q 449 -53 449 -14 q 418 -113 449 -94 q 322 -132 388 -132 m 346 1144 l 264 869 l 339 869 l 494 1144 l 346 1144 "},"ğ":{"ha":604,"x_min":28,"x_max":621,"o":"m 325 -249 q 505 -202 447 -249 q 563 -49 563 -156 q 376 147 563 131 q 315 152 357 149 q 251 158 272 156 q 201 170 217 161 q 185 194 185 179 q 197 232 185 213 q 211 256 208 251 q 288 246 250 246 q 458 319 407 246 q 510 524 510 392 q 502 601 510 557 q 485 671 494 646 q 544 699 494 681 q 621 722 593 717 l 583 818 l 561 808 q 494 766 525 792 q 453 725 463 740 q 392 792 432 769 q 288 814 351 814 q 119 741 176 814 q 61 528 61 668 q 84 380 61 435 q 154 289 107 325 q 86 215 107 246 q 65 143 65 185 q 85 92 65 115 q 143 57 106 68 q 60 -15 93 31 q 28 -124 28 -61 q 105 -225 28 -201 q 325 -249 182 -249 m 288 350 q 210 396 231 350 q 190 528 190 442 q 210 667 190 624 q 289 711 231 711 q 365 667 347 711 q 383 528 383 624 q 365 392 383 433 q 288 350 347 350 m 322 -132 q 215 -125 251 -132 q 165 -103 178 -118 q 153 -64 153 -89 q 172 -4 153 -32 q 213 40 192 24 l 339 29 q 425 5 401 24 q 449 -53 449 -14 q 418 -113 449 -94 q 322 -132 388 -132 m 303 890 q 442 942 399 890 q 486 1079 486 993 l 399 1079 q 303 975 399 975 q 231 1001 253 975 q 207 1079 208 1026 l 121 1079 q 165 942 121 993 q 303 890 208 890 "},"ǧ":{"ha":604,"x_min":28,"x_max":621,"o":"m 325 -249 q 505 -202 447 -249 q 563 -49 563 -156 q 376 147 563 131 q 315 152 357 149 q 251 158 272 156 q 201 170 217 161 q 185 194 185 179 q 197 232 185 213 q 211 256 208 251 q 288 246 250 246 q 458 319 407 246 q 510 524 510 392 q 502 601 510 557 q 485 671 494 646 q 544 699 494 681 q 621 722 593 717 l 583 818 l 561 808 q 494 766 525 792 q 453 725 463 740 q 392 792 432 769 q 288 814 351 814 q 119 741 176 814 q 61 528 61 668 q 84 380 61 435 q 154 289 107 325 q 86 215 107 246 q 65 143 65 185 q 85 92 65 115 q 143 57 106 68 q 60 -15 93 31 q 28 -124 28 -61 q 105 -225 28 -201 q 325 -249 182 -249 m 288 350 q 210 396 231 350 q 190 528 190 442 q 210 667 190 624 q 289 711 231 711 q 365 667 347 711 q 383 528 383 624 q 365 392 383 433 q 288 350 347 350 m 322 -132 q 215 -125 251 -132 q 165 -103 178 -118 q 153 -64 153 -89 q 172 -4 153 -32 q 213 40 192 24 l 339 29 q 425 5 401 24 q 449 -53 449 -14 q 418 -113 449 -94 q 322 -132 388 -132 m 108 1125 l 229 885 l 375 885 l 497 1125 l 383 1125 l 303 963 l 222 1125 l 108 1125 "},"ĝ":{"ha":604,"x_min":28,"x_max":621,"o":"m 325 -249 q 505 -202 447 -249 q 563 -49 563 -156 q 376 147 563 131 q 315 152 357 149 q 251 158 272 156 q 201 170 217 161 q 185 194 185 179 q 197 232 185 213 q 211 256 208 251 q 288 246 250 246 q 458 319 407 246 q 510 524 510 392 q 502 601 510 557 q 485 671 494 646 q 544 699 494 681 q 621 722 593 717 l 583 818 l 561 808 q 494 766 525 792 q 453 725 463 740 q 392 792 432 769 q 288 814 351 814 q 119 741 176 814 q 61 528 61 668 q 84 380 61 435 q 154 289 107 325 q 86 215 107 246 q 65 143 65 185 q 85 92 65 115 q 143 57 106 68 q 60 -15 93 31 q 28 -124 28 -61 q 105 -225 28 -201 q 325 -249 182 -249 m 288 350 q 210 396 231 350 q 190 528 190 442 q 210 667 190 624 q 289 711 231 711 q 365 667 347 711 q 383 528 383 624 q 365 392 383 433 q 288 350 347 350 m 322 -132 q 215 -125 251 -132 q 165 -103 178 -118 q 153 -64 153 -89 q 172 -4 153 -32 q 213 40 192 24 l 339 29 q 425 5 401 24 q 449 -53 449 -14 q 418 -113 449 -94 q 322 -132 388 -132 m 226 1125 l 107 882 l 218 882 l 301 1050 l 386 882 l 499 882 l 378 1125 l 226 1125 "},"ģ":{"ha":604,"x_min":28,"x_max":621,"o":"m 325 -249 q 505 -202 447 -249 q 563 -49 563 -156 q 376 147 563 131 q 315 152 357 149 q 251 158 272 156 q 201 170 217 161 q 185 194 185 179 q 197 232 185 213 q 211 256 208 251 q 288 246 250 246 q 458 319 407 246 q 510 524 510 392 q 502 601 510 557 q 485 671 494 646 q 544 699 494 681 q 621 722 593 717 l 583 818 l 561 808 q 494 766 525 792 q 453 725 463 740 q 392 792 432 769 q 288 814 351 814 q 119 741 176 814 q 61 528 61 668 q 84 380 61 435 q 154 289 107 325 q 86 215 107 246 q 65 143 65 185 q 85 92 65 115 q 143 57 106 68 q 60 -15 93 31 q 28 -124 28 -61 q 105 -225 28 -201 q 325 -249 182 -249 m 288 350 q 210 396 231 350 q 190 528 190 442 q 210 667 190 624 q 289 711 231 711 q 365 667 347 711 q 383 528 383 624 q 365 392 383 433 q 288 350 347 350 m 322 -132 q 215 -125 251 -132 q 165 -103 178 -118 q 153 -64 153 -89 q 172 -4 153 -32 q 213 40 192 24 l 339 29 q 425 5 401 24 q 449 -53 449 -14 q 418 -113 449 -94 q 322 -132 388 -132 m 379 1126 l 342 1200 q 252 1156 275 1197 q 228 1032 229 1115 l 226 889 l 378 889 l 378 1040 l 301 1040 q 319 1103 301 1082 q 379 1126 338 1124 "},"ġ":{"ha":604,"x_min":28,"x_max":621,"o":"m 325 -249 q 505 -202 447 -249 q 563 -49 563 -156 q 376 147 563 131 q 315 152 357 149 q 251 158 272 156 q 201 170 217 161 q 185 194 185 179 q 197 232 185 213 q 211 256 208 251 q 288 246 250 246 q 458 319 407 246 q 510 524 510 392 q 502 601 510 557 q 485 671 494 646 q 544 699 494 681 q 621 722 593 717 l 583 818 l 561 808 q 494 766 525 792 q 453 725 463 740 q 392 792 432 769 q 288 814 351 814 q 119 741 176 814 q 61 528 61 668 q 84 380 61 435 q 154 289 107 325 q 86 215 107 246 q 65 143 65 185 q 85 92 65 115 q 143 57 106 68 q 60 -15 93 31 q 28 -124 28 -61 q 105 -225 28 -201 q 325 -249 182 -249 m 288 350 q 210 396 231 350 q 190 528 190 442 q 210 667 190 624 q 289 711 231 711 q 365 667 347 711 q 383 528 383 624 q 365 392 383 433 q 288 350 347 350 m 322 -132 q 215 -125 251 -132 q 165 -103 178 -118 q 153 -64 153 -89 q 172 -4 153 -32 q 213 40 192 24 l 339 29 q 425 5 401 24 q 449 -53 449 -14 q 418 -113 449 -94 q 322 -132 388 -132 m 228 1097 l 228 932 l 378 932 l 378 1097 l 228 1097 "},"h":{"ha":618,"x_min":79,"x_max":549,"o":"m 79 1125 l 79 0 l 228 0 l 228 644 q 336 697 288 697 q 386 675 372 697 q 400 607 400 653 l 400 0 l 549 0 l 549 650 q 522 767 549 719 q 429 814 494 814 q 228 719 328 814 l 228 1125 l 79 1125 "},"ħ":{"ha":618,"x_min":-8,"x_max":549,"o":"m 79 958 l 79 0 l 228 0 l 228 644 q 336 697 288 697 q 386 675 372 697 q 400 607 400 653 l 400 0 l 549 0 l 549 650 q 521 767 549 719 q 428 814 493 814 q 228 719 325 814 l 228 958 l 397 958 l 397 1042 l 228 1042 l 228 1125 l 79 1125 l 79 1042 l -8 1042 l -8 958 l 79 958 "},"ĥ":{"ha":618,"x_min":-42,"x_max":549,"o":"m 79 1125 l 79 0 l 228 0 l 228 644 q 336 697 288 697 q 386 675 372 697 q 400 607 400 653 l 400 0 l 549 0 l 549 650 q 522 767 549 719 q 429 814 494 814 q 228 719 328 814 l 228 1125 l 79 1125 m 78 1447 l -42 1204 l 69 1204 l 153 1372 l 238 1204 l 350 1204 l 229 1447 l 78 1447 "},"i":{"ha":318,"x_min":85,"x_max":233,"o":"m 85 1078 l 85 922 l 233 922 l 233 1078 l 85 1078 m 85 803 l 85 0 l 233 0 l 233 803 l 85 803 "},"ı":{"ha":311,"x_min":85,"x_max":233,"o":"m 85 803 l 85 0 l 233 0 l 233 803 l 85 803 "},"í":{"ha":311,"x_min":85,"x_max":351,"o":"m 85 803 l 85 0 l 233 0 l 233 803 l 85 803 m 203 1144 l 121 869 l 196 869 l 351 1144 l 203 1144 "},"ĭ":{"ha":311,"x_min":-22,"x_max":343,"o":"m 85 803 l 85 0 l 233 0 l 233 803 l 85 803 m 160 890 q 299 942 256 890 q 343 1079 343 993 l 256 1079 q 160 975 256 975 q 88 1001 110 975 q 64 1079 65 1026 l -22 1079 q 22 942 -22 993 q 160 890 65 890 "},"î":{"ha":311,"x_min":-36,"x_max":356,"o":"m 85 803 l 85 0 l 233 0 l 233 803 l 85 803 m 83 1125 l -36 882 l 75 882 l 158 1050 l 243 882 l 356 882 l 235 1125 l 83 1125 "},"ȉ":{"ha":311,"x_min":-114,"x_max":294,"o":"m 85 803 l 85 0 l 233 0 l 233 803 l 85 803 m -114 1125 l 42 889 l 117 889 l 36 1125 l -114 1125 m 117 1125 l 219 889 l 294 889 l 239 1125 l 117 1125 "},"ï":{"ha":311,"x_min":-35,"x_max":354,"o":"m 85 803 l 85 0 l 233 0 l 233 803 l 85 803 m -35 1125 l -35 971 l 115 971 l 115 1125 l -35 1125 m 204 1125 l 204 971 l 354 971 l 354 1125 l 204 1125 "},"ị":{"ha":318,"x_min":85,"x_max":235,"o":"m 85 1078 l 85 922 l 233 922 l 233 1078 l 85 1078 m 85 803 l 85 0 l 233 0 l 233 803 l 85 803 m 85 -87 l 85 -244 l 235 -244 l 235 -87 l 85 -87 "},"ì":{"ha":311,"x_min":-29,"x_max":233,"o":"m 85 803 l 85 0 l 233 0 l 233 803 l 85 803 m -29 1144 l 125 869 l 199 869 l 119 1144 l -29 1144 "},"ỉ":{"ha":311,"x_min":49,"x_max":315,"o":"m 85 803 l 85 0 l 233 0 l 233 803 l 85 803 m 114 939 l 161 883 q 276 942 238 910 q 315 1032 315 975 q 272 1122 315 1092 q 161 1153 229 1153 q 49 1139 103 1153 l 49 1064 q 119 1074 82 1074 q 181 1060 157 1074 q 204 1019 204 1047 q 182 976 204 994 q 114 939 160 958 "},"ȋ":{"ha":311,"x_min":-24,"x_max":343,"o":"m 85 803 l 85 0 l 233 0 l 233 803 l 85 803 m -24 918 l 64 918 q 87 1012 65 983 q 160 1040 108 1040 q 234 1013 213 1040 q 256 918 256 985 l 343 918 q 303 1070 343 1015 q 160 1125 263 1125 q 17 1071 57 1125 q -24 918 -22 1017 "},"ĳ":{"ha":638,"x_min":85,"x_max":564,"o":"m 85 1078 l 85 922 l 233 922 l 233 1078 l 85 1078 m 85 803 l 85 0 l 233 0 l 233 803 l 85 803 m 414 1078 l 414 922 l 564 922 l 564 1078 l 414 1078 m 368 -203 q 511 -153 460 -203 q 563 -8 563 -103 l 563 803 l 414 803 l 414 7 q 395 -65 414 -39 q 331 -90 376 -90 q 292 -86 321 -90 l 292 -193 q 368 -203 314 -203 "},"ī":{"ha":311,"x_min":26,"x_max":293,"o":"m 85 803 l 85 0 l 233 0 l 233 803 l 85 803 m 26 1042 l 26 951 l 293 951 l 293 1042 l 26 1042 "},"į":{"ha":318,"x_min":-31,"x_max":238,"o":"m 85 1078 l 85 922 l 233 922 l 233 1078 l 85 1078 m 85 803 l 85 0 l 233 0 l 233 803 l 85 803 m 163 -321 q 213 -317 189 -321 l 238 -243 q 193 -246 213 -246 q 82 -179 82 -246 q 117 -88 82 -136 q 199 0 151 -40 l 124 0 q 51 -42 88 -11 q -8 -116 15 -74 q -31 -201 -31 -158 q 21 -297 -31 -272 q 163 -321 72 -321 "},"ĩ":{"ha":311,"x_min":-49,"x_max":368,"o":"m 85 803 l 85 0 l 233 0 l 233 803 l 85 803 m 265 972 q 345 1013 322 972 q 368 1125 368 1054 l 285 1125 q 274 1080 285 1093 q 239 1067 264 1067 q 202 1074 219 1067 q 157 1099 185 1082 q 108 1124 129 1115 q 63 1133 86 1133 q -49 983 -49 1133 l 36 983 q 47 1027 36 1014 q 83 1040 58 1040 q 118 1033 101 1040 q 163 1010 135 1025 q 215 982 192 992 q 265 972 238 972 "},"j":{"ha":319,"x_min":-26,"x_max":246,"o":"m 96 1078 l 96 922 l 246 922 l 246 1078 l 96 1078 m 50 -203 q 193 -153 142 -203 q 244 -8 244 -103 l 244 803 l 96 803 l 96 7 q 77 -65 96 -39 q 13 -90 58 -90 q -26 -86 3 -90 l -26 -193 q 50 -203 -4 -203 "},"ȷ":{"ha":319,"x_min":-26,"x_max":244,"o":"m 50 -203 q 193 -153 142 -203 q 244 -8 244 -103 l 244 803 l 96 803 l 96 7 q 77 -65 96 -39 q 13 -90 58 -90 q -26 -86 3 -90 l -26 -193 q 50 -203 -4 -203 "},"ĵ":{"ha":319,"x_min":-26,"x_max":367,"o":"m 50 -203 q 193 -153 142 -203 q 244 -8 244 -103 l 244 803 l 96 803 l 96 7 q 77 -65 96 -39 q 13 -90 58 -90 q -26 -86 3 -90 l -26 -193 q 50 -203 -4 -203 m 94 1125 l -25 882 l 86 882 l 169 1050 l 254 882 l 367 882 l 246 1125 l 94 1125 "},"k":{"ha":596,"x_min":78,"x_max":599,"o":"m 78 1126 l 78 1 l 226 1 l 226 308 l 294 411 l 444 0 l 593 0 l 410 489 l 599 803 l 443 803 l 226 456 l 226 1126 l 78 1126 "},"ķ":{"ha":596,"x_min":78,"x_max":599,"o":"m 78 1126 l 78 1 l 226 1 l 226 308 l 294 411 l 444 0 l 593 0 l 410 489 l 599 803 l 443 803 l 226 456 l 226 1126 l 78 1126 m 222 -325 l 260 -399 q 349 -355 326 -396 q 374 -231 372 -314 l 375 -87 l 224 -87 l 224 -239 l 300 -239 q 282 -301 300 -281 q 222 -325 264 -322 "},"ĸ":{"ha":597,"x_min":82,"x_max":592,"o":"m 82 803 l 82 0 l 231 0 l 231 278 l 308 394 l 443 0 l 592 0 l 408 496 l 592 803 l 442 803 l 231 450 l 231 803 l 82 803 "},"l":{"ha":318,"x_min":89,"x_max":238,"o":"m 89 1125 l 89 0 l 238 0 l 238 1125 l 89 1125 "},"ĺ":{"ha":318,"x_min":89,"x_max":356,"o":"m 89 1125 l 89 0 l 238 0 l 238 1125 l 89 1125 m 207 1467 l 125 1192 l 200 1192 l 356 1467 l 207 1467 "},"ľ":{"ha":429,"x_min":89,"x_max":457,"o":"m 89 1125 l 89 0 l 238 0 l 238 1125 l 89 1125 m 303 847 l 326 783 q 425 851 393 807 q 457 968 457 894 l 457 1125 l 304 1125 l 304 965 l 383 965 q 362 891 383 922 q 303 847 340 860 "},"ļ":{"ha":318,"x_min":88,"x_max":240,"o":"m 89 1125 l 89 0 l 238 0 l 238 1125 l 89 1125 m 88 -325 l 125 -399 q 215 -355 192 -396 q 239 -231 238 -314 l 240 -87 l 89 -87 l 89 -239 l 165 -239 q 147 -301 165 -281 q 88 -325 129 -322 "},"ŀ":{"ha":394,"x_min":89,"x_max":414,"o":"m 89 1125 l 89 0 l 238 0 l 238 1125 l 89 1125 m 306 683 l 306 531 l 414 531 l 414 683 l 306 683 "},"ǉ":{"ha":638,"x_min":89,"x_max":564,"o":"m 89 1125 l 89 0 l 238 0 l 238 1125 l 89 1125 m 414 1078 l 414 922 l 564 922 l 564 1078 l 414 1078 m 368 -203 q 511 -153 460 -203 q 563 -8 563 -103 l 563 803 l 414 803 l 414 7 q 395 -65 414 -39 q 331 -90 376 -90 q 292 -86 321 -90 l 292 -193 q 368 -203 314 -203 "},"ł":{"ha":371,"x_min":24,"x_max":351,"o":"m 118 578 l 118 0 l 267 0 l 267 646 l 351 688 l 351 803 l 267 761 l 267 1125 l 118 1125 l 118 693 l 24 649 l 24 532 l 118 578 "},"m":{"ha":944,"x_min":75,"x_max":874,"o":"m 75 803 l 75 0 l 213 0 l 213 654 q 276 702 243 685 q 342 719 310 719 q 390 697 374 719 q 407 621 407 674 l 407 0 l 543 0 l 543 631 l 543 654 q 606 702 572 685 q 672 719 640 719 q 721 697 704 719 q 738 621 738 674 l 738 0 l 874 0 l 874 631 q 834 771 874 725 q 732 817 794 817 q 532 715 615 817 q 401 817 504 817 q 301 794 349 817 q 213 726 253 771 l 213 803 l 75 803 "},"ṁ":{"ha":944,"x_min":75,"x_max":874,"o":"m 75 803 l 75 0 l 213 0 l 213 654 q 276 702 243 685 q 342 719 310 719 q 390 697 374 719 q 407 621 407 674 l 407 0 l 543 0 l 543 631 l 543 654 q 606 702 572 685 q 672 719 640 719 q 721 697 704 719 q 738 621 738 674 l 738 0 l 874 0 l 874 631 q 834 771 874 725 q 732 817 794 817 q 532 715 615 817 q 401 817 504 817 q 301 794 349 817 q 213 726 253 771 l 213 803 l 75 803 m 397 1097 l 397 932 l 547 932 l 547 1097 l 397 1097 "},"n":{"ha":610,"x_min":75,"x_max":540,"o":"m 75 803 l 75 0 l 224 0 l 224 647 q 328 697 283 697 q 378 675 364 697 q 392 607 392 653 l 392 0 l 540 0 l 540 650 q 513 767 540 719 q 419 814 485 814 q 224 724 319 814 l 224 803 l 75 803 "},"ń":{"ha":610,"x_min":75,"x_max":540,"o":"m 75 803 l 75 0 l 224 0 l 224 647 q 328 697 283 697 q 378 675 364 697 q 392 607 392 653 l 392 0 l 540 0 l 540 650 q 513 767 540 719 q 419 814 485 814 q 224 724 319 814 l 224 803 l 75 803 m 349 1144 l 267 869 l 342 869 l 497 1144 l 349 1144 "},"ŉ":{"ha":696,"x_min":14,"x_max":639,"o":"m 14 903 l 38 839 q 136 906 104 863 q 168 1024 168 950 l 168 1181 l 15 1181 l 15 1021 l 94 1021 q 73 947 94 978 q 14 903 51 915 m 174 803 l 174 0 l 322 0 l 322 647 q 426 697 382 697 q 476 675 463 697 q 490 607 490 653 l 490 0 l 639 0 l 639 650 q 611 767 639 719 q 518 814 583 814 q 322 724 418 814 l 322 803 l 174 803 "},"ň":{"ha":610,"x_min":75,"x_max":540,"o":"m 75 803 l 75 0 l 224 0 l 224 647 q 328 697 283 697 q 378 675 364 697 q 392 607 392 653 l 392 0 l 540 0 l 540 650 q 513 767 540 719 q 419 814 485 814 q 224 724 319 814 l 224 803 l 75 803 m 111 1125 l 232 885 l 378 885 l 500 1125 l 386 1125 l 306 963 l 225 1125 l 111 1125 "},"ņ":{"ha":610,"x_min":75,"x_max":540,"o":"m 75 803 l 75 0 l 224 0 l 224 647 q 328 697 283 697 q 378 675 364 697 q 392 607 392 653 l 392 0 l 540 0 l 540 650 q 513 767 540 719 q 419 814 485 814 q 224 724 319 814 l 224 803 l 75 803 m 229 -325 l 267 -399 q 356 -355 333 -396 q 381 -231 379 -314 l 382 -87 l 231 -87 l 231 -239 l 307 -239 q 289 -301 307 -281 q 229 -325 271 -322 "},"ŋ":{"ha":539,"x_min":61,"x_max":526,"o":"m 214 -143 l 214 -256 l 258 -256 q 453 -192 381 -256 q 526 -8 526 -129 l 526 650 q 499 767 526 719 q 407 814 472 814 q 210 724 306 814 l 210 803 l 61 803 l 61 0 l 210 0 l 210 647 q 314 697 269 697 q 365 675 351 697 q 378 607 378 653 l 378 -7 q 365 -85 378 -56 q 316 -128 351 -114 q 214 -143 281 -143 "},"ǌ":{"ha":929,"x_min":75,"x_max":856,"o":"m 75 803 l 75 0 l 224 0 l 224 647 q 328 697 283 697 q 378 675 364 697 q 392 607 392 653 l 392 0 l 540 0 l 540 650 q 513 767 540 719 q 419 814 485 814 q 224 724 319 814 l 224 803 l 75 803 m 706 1078 l 706 922 l 856 922 l 856 1078 l 706 1078 m 660 -203 q 803 -153 751 -203 q 854 -8 854 -103 l 854 803 l 706 803 l 706 7 q 687 -65 706 -39 q 622 -90 668 -90 q 583 -86 613 -90 l 583 -193 q 660 -203 606 -203 "},"ñ":{"ha":610,"x_min":75,"x_max":540,"o":"m 75 803 l 75 0 l 224 0 l 224 647 q 328 697 283 697 q 378 675 364 697 q 392 607 392 653 l 392 0 l 540 0 l 540 650 q 513 767 540 719 q 419 814 485 814 q 224 724 319 814 l 224 803 l 75 803 m 411 972 q 491 1013 468 972 q 514 1125 514 1054 l 431 1125 q 420 1080 431 1093 q 385 1067 410 1067 q 348 1074 365 1067 q 303 1099 331 1082 q 253 1124 275 1115 q 208 1133 232 1133 q 97 983 97 1133 l 182 983 q 193 1027 182 1014 q 229 1040 204 1040 q 264 1033 247 1040 q 308 1010 281 1025 q 360 982 338 992 q 411 972 383 972 "},"o":{"ha":589,"x_min":60,"x_max":528,"o":"m 294 -11 q 474 65 421 -11 q 528 285 528 140 l 528 518 q 474 738 528 663 q 294 814 421 814 q 113 738 167 814 q 60 518 60 663 l 60 285 q 113 65 60 140 q 294 -11 167 -11 m 294 99 q 235 122 254 99 q 213 181 217 146 q 208 275 208 215 l 208 526 q 213 622 208 586 q 235 681 217 657 q 294 704 254 704 q 353 681 335 704 q 375 622 371 657 q 379 526 379 586 l 379 275 q 375 181 379 215 q 353 122 371 146 q 294 99 335 99 "},"ó":{"ha":589,"x_min":60,"x_max":528,"o":"m 294 -11 q 474 65 421 -11 q 528 285 528 140 l 528 518 q 474 738 528 663 q 294 814 421 814 q 113 738 167 814 q 60 518 60 663 l 60 285 q 113 65 60 140 q 294 -11 167 -11 m 294 99 q 235 122 254 99 q 213 181 217 146 q 208 275 208 215 l 208 526 q 213 622 208 586 q 235 681 217 657 q 294 704 254 704 q 353 681 335 704 q 375 622 371 657 q 379 526 379 586 l 379 275 q 375 181 379 215 q 353 122 371 146 q 294 99 335 99 m 338 1144 l 256 869 l 331 869 l 486 1144 l 338 1144 "},"ŏ":{"ha":589,"x_min":60,"x_max":528,"o":"m 294 -11 q 474 65 421 -11 q 528 285 528 140 l 528 518 q 474 738 528 663 q 294 814 421 814 q 113 738 167 814 q 60 518 60 663 l 60 285 q 113 65 60 140 q 294 -11 167 -11 m 294 99 q 235 122 254 99 q 213 181 217 146 q 208 275 208 215 l 208 526 q 213 622 208 586 q 235 681 217 657 q 294 704 254 704 q 353 681 335 704 q 375 622 371 657 q 379 526 379 586 l 379 275 q 375 181 379 215 q 353 122 371 146 q 294 99 335 99 m 294 890 q 434 942 390 890 q 478 1079 478 993 l 390 1079 q 294 975 390 975 q 222 1001 244 975 q 199 1079 200 1026 l 113 1079 q 156 942 113 993 q 294 890 200 890 "},"ô":{"ha":589,"x_min":60,"x_max":528,"o":"m 294 -11 q 474 65 421 -11 q 528 285 528 140 l 528 518 q 474 738 528 663 q 294 814 421 814 q 113 738 167 814 q 60 518 60 663 l 60 285 q 113 65 60 140 q 294 -11 167 -11 m 294 99 q 235 122 254 99 q 213 181 217 146 q 208 275 208 215 l 208 526 q 213 622 208 586 q 235 681 217 657 q 294 704 254 704 q 353 681 335 704 q 375 622 371 657 q 379 526 379 586 l 379 275 q 375 181 379 215 q 353 122 371 146 q 294 99 335 99 m 218 1125 l 99 882 l 210 882 l 293 1050 l 378 882 l 490 882 l 369 1125 l 218 1125 "},"ố":{"ha":589,"x_min":60,"x_max":674,"o":"m 294 -11 q 474 65 421 -11 q 528 285 528 140 l 528 518 q 474 738 528 663 q 294 814 421 814 q 113 738 167 814 q 60 518 60 663 l 60 285 q 113 65 60 140 q 294 -11 167 -11 m 294 99 q 235 122 254 99 q 213 181 217 146 q 208 275 208 215 l 208 526 q 213 622 208 586 q 235 681 217 657 q 294 704 254 704 q 353 681 335 704 q 375 622 371 657 q 379 526 379 586 l 379 275 q 375 181 379 215 q 353 122 371 146 q 294 99 335 99 m 544 1186 l 471 1026 l 563 1026 l 674 1186 l 544 1186 m 218 1097 l 99 882 l 210 882 l 293 1022 l 378 882 l 490 882 l 369 1097 l 218 1097 "},"ộ":{"ha":589,"x_min":60,"x_max":528,"o":"m 294 -11 q 474 65 421 -11 q 528 285 528 140 l 528 518 q 474 738 528 663 q 294 814 421 814 q 113 738 167 814 q 60 518 60 663 l 60 285 q 113 65 60 140 q 294 -11 167 -11 m 294 99 q 235 122 254 99 q 213 181 217 146 q 208 275 208 215 l 208 526 q 213 622 208 586 q 235 681 217 657 q 294 704 254 704 q 353 681 335 704 q 375 622 371 657 q 379 526 379 586 l 379 275 q 375 181 379 215 q 353 122 371 146 q 294 99 335 99 m 219 -87 l 219 -244 l 369 -244 l 369 -87 l 219 -87 m 218 1097 l 99 882 l 210 882 l 293 1022 l 378 882 l 490 882 l 369 1097 l 218 1097 "},"ồ":{"ha":589,"x_min":60,"x_max":597,"o":"m 294 -11 q 474 65 421 -11 q 528 285 528 140 l 528 518 q 474 738 528 663 q 294 814 421 814 q 113 738 167 814 q 60 518 60 663 l 60 285 q 113 65 60 140 q 294 -11 167 -11 m 294 99 q 235 122 254 99 q 213 181 217 146 q 208 275 208 215 l 208 526 q 213 622 208 586 q 235 681 217 657 q 294 704 254 704 q 353 681 335 704 q 375 622 371 657 q 379 526 379 586 l 379 275 q 375 181 379 215 q 353 122 371 146 q 294 99 335 99 m 394 1186 l 506 1026 l 597 1026 l 524 1186 l 394 1186 m 218 1097 l 99 882 l 210 882 l 293 1022 l 378 882 l 490 882 l 369 1097 l 218 1097 "},"ổ":{"ha":589,"x_min":60,"x_max":635,"o":"m 294 -11 q 474 65 421 -11 q 528 285 528 140 l 528 518 q 474 738 528 663 q 294 814 421 814 q 113 738 167 814 q 60 518 60 663 l 60 285 q 113 65 60 140 q 294 -11 167 -11 m 294 99 q 235 122 254 99 q 213 181 217 146 q 208 275 208 215 l 208 526 q 213 622 208 586 q 235 681 217 657 q 294 704 254 704 q 353 681 335 704 q 375 622 371 657 q 379 526 379 586 l 379 275 q 375 181 379 215 q 353 122 371 146 q 294 99 335 99 m 457 1051 l 504 996 q 601 1055 568 1022 q 635 1144 635 1088 q 595 1235 635 1204 q 493 1265 556 1265 q 392 1251 439 1265 l 392 1176 q 456 1186 421 1186 q 505 1173 486 1186 q 524 1132 524 1160 q 508 1089 524 1107 q 457 1051 492 1071 m 218 1097 l 99 882 l 210 882 l 293 1022 l 378 882 l 490 882 l 369 1097 l 218 1097 "},"ỗ":{"ha":589,"x_min":60,"x_max":528,"o":"m 294 -11 q 474 65 421 -11 q 528 285 528 140 l 528 518 q 474 738 528 663 q 294 814 421 814 q 113 738 167 814 q 60 518 60 663 l 60 285 q 113 65 60 140 q 294 -11 167 -11 m 294 99 q 235 122 254 99 q 213 181 217 146 q 208 275 208 215 l 208 526 q 213 622 208 586 q 235 681 217 657 q 294 704 254 704 q 353 681 335 704 q 375 622 371 657 q 379 526 379 586 l 379 275 q 375 181 379 215 q 353 122 371 146 q 294 99 335 99 m 218 1097 l 99 882 l 210 882 l 293 1022 l 378 882 l 490 882 l 369 1097 l 218 1097 m 400 1161 q 480 1202 457 1161 q 503 1314 503 1243 l 419 1314 q 409 1269 419 1282 q 374 1256 399 1256 q 337 1263 354 1256 q 292 1288 319 1271 q 242 1313 264 1304 q 197 1322 221 1322 q 86 1172 86 1322 l 171 1172 q 182 1216 171 1203 q 218 1229 193 1229 q 253 1222 236 1229 q 297 1199 269 1214 q 349 1171 326 1181 q 400 1161 372 1161 "},"ȍ":{"ha":589,"x_min":21,"x_max":528,"o":"m 294 -11 q 474 65 421 -11 q 528 285 528 140 l 528 518 q 474 738 528 663 q 294 814 421 814 q 113 738 167 814 q 60 518 60 663 l 60 285 q 113 65 60 140 q 294 -11 167 -11 m 294 99 q 235 122 254 99 q 213 181 217 146 q 208 275 208 215 l 208 526 q 213 622 208 586 q 235 681 217 657 q 294 704 254 704 q 353 681 335 704 q 375 622 371 657 q 379 526 379 586 l 379 275 q 375 181 379 215 q 353 122 371 146 q 294 99 335 99 m 21 1125 l 176 889 l 251 889 l 171 1125 l 21 1125 m 251 1125 l 354 889 l 429 889 l 374 1125 l 251 1125 "},"ö":{"ha":589,"x_min":60,"x_max":528,"o":"m 294 -11 q 474 65 421 -11 q 528 285 528 140 l 528 518 q 474 738 528 663 q 294 814 421 814 q 113 738 167 814 q 60 518 60 663 l 60 285 q 113 65 60 140 q 294 -11 167 -11 m 294 99 q 235 122 254 99 q 213 181 217 146 q 208 275 208 215 l 208 526 q 213 622 208 586 q 235 681 217 657 q 294 704 254 704 q 353 681 335 704 q 375 622 371 657 q 379 526 379 586 l 379 275 q 375 181 379 215 q 353 122 371 146 q 294 99 335 99 m 100 1125 l 100 971 l 250 971 l 250 1125 l 100 1125 m 339 1125 l 339 971 l 489 971 l 489 1125 l 339 1125 "},"ȫ":{"ha":589,"x_min":60,"x_max":528,"o":"m 294 -11 q 474 65 421 -11 q 528 285 528 140 l 528 518 q 474 738 528 663 q 294 814 421 814 q 113 738 167 814 q 60 518 60 663 l 60 285 q 113 65 60 140 q 294 -11 167 -11 m 294 99 q 235 122 254 99 q 213 181 217 146 q 208 275 208 215 l 208 526 q 213 622 208 586 q 235 681 217 657 q 294 704 254 704 q 353 681 335 704 q 375 622 371 657 q 379 526 379 586 l 379 275 q 375 181 379 215 q 353 122 371 146 q 294 99 335 99 m 100 1125 l 100 971 l 250 971 l 250 1125 l 100 1125 m 339 1125 l 339 971 l 489 971 l 489 1125 l 339 1125 m 161 1364 l 161 1274 l 428 1274 l 428 1364 l 161 1364 "},"ȱ":{"ha":589,"x_min":60,"x_max":528,"o":"m 294 -11 q 474 65 421 -11 q 528 285 528 140 l 528 518 q 474 738 528 663 q 294 814 421 814 q 113 738 167 814 q 60 518 60 663 l 60 285 q 113 65 60 140 q 294 -11 167 -11 m 294 99 q 235 122 254 99 q 213 181 217 146 q 208 275 208 215 l 208 526 q 213 622 208 586 q 235 681 217 657 q 294 704 254 704 q 353 681 335 704 q 375 622 371 657 q 379 526 379 586 l 379 275 q 375 181 379 215 q 353 122 371 146 q 294 99 335 99 m 219 1097 l 219 932 l 369 932 l 369 1097 l 219 1097 m 161 1336 l 161 1246 l 428 1246 l 428 1336 l 161 1336 "},"ọ":{"ha":589,"x_min":60,"x_max":528,"o":"m 294 -11 q 474 65 421 -11 q 528 285 528 140 l 528 518 q 474 738 528 663 q 294 814 421 814 q 113 738 167 814 q 60 518 60 663 l 60 285 q 113 65 60 140 q 294 -11 167 -11 m 294 99 q 235 122 254 99 q 213 181 217 146 q 208 275 208 215 l 208 526 q 213 622 208 586 q 235 681 217 657 q 294 704 254 704 q 353 681 335 704 q 375 622 371 657 q 379 526 379 586 l 379 275 q 375 181 379 215 q 353 122 371 146 q 294 99 335 99 m 219 -87 l 219 -244 l 369 -244 l 369 -87 l 219 -87 "},"ò":{"ha":589,"x_min":60,"x_max":528,"o":"m 294 -11 q 474 65 421 -11 q 528 285 528 140 l 528 518 q 474 738 528 663 q 294 814 421 814 q 113 738 167 814 q 60 518 60 663 l 60 285 q 113 65 60 140 q 294 -11 167 -11 m 294 99 q 235 122 254 99 q 213 181 217 146 q 208 275 208 215 l 208 526 q 213 622 208 586 q 235 681 217 657 q 294 704 254 704 q 353 681 335 704 q 375 622 371 657 q 379 526 379 586 l 379 275 q 375 181 379 215 q 353 122 371 146 q 294 99 335 99 m 106 1144 l 260 869 l 333 869 l 254 1144 l 106 1144 "},"ỏ":{"ha":589,"x_min":60,"x_max":528,"o":"m 294 -11 q 474 65 421 -11 q 528 285 528 140 l 528 518 q 474 738 528 663 q 294 814 421 814 q 113 738 167 814 q 60 518 60 663 l 60 285 q 113 65 60 140 q 294 -11 167 -11 m 294 99 q 235 122 254 99 q 213 181 217 146 q 208 275 208 215 l 208 526 q 213 622 208 586 q 235 681 217 657 q 294 704 254 704 q 353 681 335 704 q 375 622 371 657 q 379 526 379 586 l 379 275 q 375 181 379 215 q 353 122 371 146 q 294 99 335 99 m 249 939 l 296 883 q 411 942 372 910 q 450 1032 450 975 q 407 1122 450 1092 q 296 1153 364 1153 q 183 1139 238 1153 l 183 1064 q 254 1074 217 1074 q 315 1060 292 1074 q 339 1019 339 1047 q 317 976 339 994 q 249 939 294 958 "},"ơ":{"ha":589,"x_min":60,"x_max":528,"o":"m 528 906 l 413 906 q 401 838 413 863 q 365 807 390 814 q 294 814 331 814 q 113 738 167 814 q 60 518 60 663 l 60 285 q 113 65 60 140 q 294 -11 167 -11 q 474 65 421 -11 q 528 285 528 140 l 528 518 q 460 756 528 686 q 528 906 528 799 m 379 526 l 379 275 q 375 181 379 215 q 353 122 371 146 q 294 99 335 99 q 235 122 254 99 q 213 181 217 146 q 208 275 208 215 l 208 526 q 213 622 208 586 q 235 681 217 657 q 294 704 254 704 q 353 681 335 704 q 375 622 371 657 q 379 526 379 586 "},"ớ":{"ha":589,"x_min":60,"x_max":528,"o":"m 528 906 l 413 906 q 401 838 413 863 q 365 807 390 814 q 294 814 331 814 q 113 738 167 814 q 60 518 60 663 l 60 285 q 113 65 60 140 q 294 -11 167 -11 q 474 65 421 -11 q 528 285 528 140 l 528 518 q 460 756 528 686 q 528 906 528 799 m 379 526 l 379 275 q 375 181 379 215 q 353 122 371 146 q 294 99 335 99 q 235 122 254 99 q 213 181 217 146 q 208 275 208 215 l 208 526 q 213 622 208 586 q 235 681 217 657 q 294 704 254 704 q 353 681 335 704 q 375 622 371 657 q 379 526 379 586 m 338 1144 l 256 869 l 331 869 l 486 1144 l 338 1144 "},"ợ":{"ha":589,"x_min":60,"x_max":528,"o":"m 528 906 l 413 906 q 401 838 413 863 q 365 807 390 814 q 294 814 331 814 q 113 738 167 814 q 60 518 60 663 l 60 285 q 113 65 60 140 q 294 -11 167 -11 q 474 65 421 -11 q 528 285 528 140 l 528 518 q 460 756 528 686 q 528 906 528 799 m 379 526 l 379 275 q 375 181 379 215 q 353 122 371 146 q 294 99 335 99 q 235 122 254 99 q 213 181 217 146 q 208 275 208 215 l 208 526 q 213 622 208 586 q 235 681 217 657 q 294 704 254 704 q 353 681 335 704 q 375 622 371 657 q 379 526 379 586 m 219 -87 l 219 -244 l 369 -244 l 369 -87 l 219 -87 "},"ờ":{"ha":589,"x_min":60,"x_max":528,"o":"m 528 906 l 413 906 q 401 838 413 863 q 365 807 390 814 q 294 814 331 814 q 113 738 167 814 q 60 518 60 663 l 60 285 q 113 65 60 140 q 294 -11 167 -11 q 474 65 421 -11 q 528 285 528 140 l 528 518 q 460 756 528 686 q 528 906 528 799 m 379 526 l 379 275 q 375 181 379 215 q 353 122 371 146 q 294 99 335 99 q 235 122 254 99 q 213 181 217 146 q 208 275 208 215 l 208 526 q 213 622 208 586 q 235 681 217 657 q 294 704 254 704 q 353 681 335 704 q 375 622 371 657 q 379 526 379 586 m 106 1144 l 260 869 l 333 869 l 254 1144 l 106 1144 "},"ở":{"ha":589,"x_min":60,"x_max":528,"o":"m 528 906 l 413 906 q 401 838 413 863 q 365 807 390 814 q 294 814 331 814 q 113 738 167 814 q 60 518 60 663 l 60 285 q 113 65 60 140 q 294 -11 167 -11 q 474 65 421 -11 q 528 285 528 140 l 528 518 q 460 756 528 686 q 528 906 528 799 m 379 526 l 379 275 q 375 181 379 215 q 353 122 371 146 q 294 99 335 99 q 235 122 254 99 q 213 181 217 146 q 208 275 208 215 l 208 526 q 213 622 208 586 q 235 681 217 657 q 294 704 254 704 q 353 681 335 704 q 375 622 371 657 q 379 526 379 586 m 249 939 l 296 883 q 411 942 372 910 q 450 1032 450 975 q 407 1122 450 1092 q 296 1153 364 1153 q 183 1139 238 1153 l 183 1064 q 254 1074 217 1074 q 315 1060 292 1074 q 339 1019 339 1047 q 317 976 339 994 q 249 939 294 958 "},"ỡ":{"ha":589,"x_min":60,"x_max":528,"o":"m 528 906 l 413 906 q 401 838 413 863 q 365 807 390 814 q 294 814 331 814 q 113 738 167 814 q 60 518 60 663 l 60 285 q 113 65 60 140 q 294 -11 167 -11 q 474 65 421 -11 q 528 285 528 140 l 528 518 q 460 756 528 686 q 528 906 528 799 m 379 526 l 379 275 q 375 181 379 215 q 353 122 371 146 q 294 99 335 99 q 235 122 254 99 q 213 181 217 146 q 208 275 208 215 l 208 526 q 213 622 208 586 q 235 681 217 657 q 294 704 254 704 q 353 681 335 704 q 375 622 371 657 q 379 526 379 586 m 400 972 q 480 1013 457 972 q 503 1125 503 1054 l 419 1125 q 409 1080 419 1093 q 374 1067 399 1067 q 337 1074 354 1067 q 292 1099 319 1082 q 242 1124 264 1115 q 197 1133 221 1133 q 86 983 86 1133 l 171 983 q 182 1027 171 1014 q 218 1040 193 1040 q 253 1033 236 1040 q 297 1010 269 1025 q 349 982 326 992 q 400 972 372 972 "},"ő":{"ha":589,"x_min":60,"x_max":581,"o":"m 294 -11 q 474 65 421 -11 q 528 285 528 140 l 528 518 q 474 738 528 663 q 294 814 421 814 q 113 738 167 814 q 60 518 60 663 l 60 285 q 113 65 60 140 q 294 -11 167 -11 m 294 99 q 235 122 254 99 q 213 181 217 146 q 208 275 208 215 l 208 526 q 213 622 208 586 q 235 681 217 657 q 294 704 254 704 q 353 681 335 704 q 375 622 371 657 q 379 526 379 586 l 379 275 q 375 181 379 215 q 353 122 371 146 q 294 99 335 99 m 229 1126 l 175 889 l 250 889 l 351 1126 l 229 1126 m 431 1126 l 350 889 l 426 889 l 581 1126 l 431 1126 "},"ȏ":{"ha":589,"x_min":60,"x_max":528,"o":"m 294 -11 q 474 65 421 -11 q 528 285 528 140 l 528 518 q 474 738 528 663 q 294 814 421 814 q 113 738 167 814 q 60 518 60 663 l 60 285 q 113 65 60 140 q 294 -11 167 -11 m 294 99 q 235 122 254 99 q 213 181 217 146 q 208 275 208 215 l 208 526 q 213 622 208 586 q 235 681 217 657 q 294 704 254 704 q 353 681 335 704 q 375 622 371 657 q 379 526 379 586 l 379 275 q 375 181 379 215 q 353 122 371 146 q 294 99 335 99 m 111 918 l 199 918 q 222 1012 200 983 q 294 1040 243 1040 q 369 1013 347 1040 q 390 918 390 985 l 478 918 q 438 1070 478 1015 q 294 1125 397 1125 q 152 1071 192 1125 q 111 918 113 1017 "},"ō":{"ha":589,"x_min":60,"x_max":528,"o":"m 294 -11 q 474 65 421 -11 q 528 285 528 140 l 528 518 q 474 738 528 663 q 294 814 421 814 q 113 738 167 814 q 60 518 60 663 l 60 285 q 113 65 60 140 q 294 -11 167 -11 m 294 99 q 235 122 254 99 q 213 181 217 146 q 208 275 208 215 l 208 526 q 213 622 208 586 q 235 681 217 657 q 294 704 254 704 q 353 681 335 704 q 375 622 371 657 q 379 526 379 586 l 379 275 q 375 181 379 215 q 353 122 371 146 q 294 99 335 99 m 161 1042 l 161 951 l 428 951 l 428 1042 l 161 1042 "},"ǫ":{"ha":589,"x_min":60,"x_max":528,"o":"m 294 814 q 113 738 167 814 q 60 518 60 663 l 60 285 q 110 68 60 143 q 282 -11 161 -7 q 205 -90 236 -42 q 174 -190 174 -139 q 225 -285 174 -261 q 367 -310 276 -310 q 417 -306 394 -310 l 442 -232 q 397 -235 417 -235 q 286 -168 286 -235 q 319 -81 286 -128 q 397 6 351 -33 q 497 103 467 33 q 528 285 528 174 l 528 518 q 474 738 528 663 q 294 814 421 814 m 208 275 l 208 526 q 213 622 208 586 q 235 681 217 657 q 294 704 254 704 q 353 681 335 704 q 375 622 371 657 q 379 526 379 586 l 379 275 q 375 181 379 215 q 353 122 371 146 q 294 99 335 99 q 235 122 254 99 q 213 181 217 146 q 208 275 208 215 "},"ø":{"ha":589,"x_min":60,"x_max":528,"o":"m 456 760 l 510 911 l 458 928 l 410 792 q 294 814 361 814 q 113 738 167 814 q 60 518 60 663 l 60 285 q 142 35 60 101 l 89 -117 l 133 -132 l 185 8 q 294 -11 231 -11 q 474 65 421 -11 q 528 285 528 140 l 528 518 q 456 760 528 692 m 208 222 l 208 275 l 208 526 q 213 622 208 586 q 235 681 217 657 q 294 704 254 704 q 364 661 346 704 l 208 222 m 379 526 l 379 275 q 375 181 379 215 q 353 122 371 146 q 294 99 335 99 q 229 132 249 99 l 379 549 l 379 526 "},"ǿ":{"ha":589,"x_min":60,"x_max":528,"o":"m 456 760 l 510 911 l 458 928 l 410 792 q 294 814 361 814 q 113 738 167 814 q 60 518 60 663 l 60 285 q 142 35 60 101 l 89 -117 l 133 -132 l 185 8 q 294 -11 231 -11 q 474 65 421 -11 q 528 285 528 140 l 528 518 q 456 760 528 692 m 208 222 l 208 275 l 208 526 q 213 622 208 586 q 235 681 217 657 q 294 704 254 704 q 364 661 346 704 l 208 222 m 379 526 l 379 275 q 375 181 379 215 q 353 122 371 146 q 294 99 335 99 q 229 132 249 99 l 379 549 l 379 526 m 338 1144 l 256 869 l 331 869 l 486 1144 l 338 1144 "},"õ":{"ha":589,"x_min":60,"x_max":528,"o":"m 294 -11 q 474 65 421 -11 q 528 285 528 140 l 528 518 q 474 738 528 663 q 294 814 421 814 q 113 738 167 814 q 60 518 60 663 l 60 285 q 113 65 60 140 q 294 -11 167 -11 m 294 99 q 235 122 254 99 q 213 181 217 146 q 208 275 208 215 l 208 526 q 213 622 208 586 q 235 681 217 657 q 294 704 254 704 q 353 681 335 704 q 375 622 371 657 q 379 526 379 586 l 379 275 q 375 181 379 215 q 353 122 371 146 q 294 99 335 99 m 400 972 q 480 1013 457 972 q 503 1125 503 1054 l 419 1125 q 409 1080 419 1093 q 374 1067 399 1067 q 337 1074 354 1067 q 292 1099 319 1082 q 242 1124 264 1115 q 197 1133 221 1133 q 86 983 86 1133 l 171 983 q 182 1027 171 1014 q 218 1040 193 1040 q 253 1033 236 1040 q 297 1010 269 1025 q 349 982 326 992 q 400 972 372 972 "},"ȭ":{"ha":589,"x_min":60,"x_max":528,"o":"m 294 -11 q 474 65 421 -11 q 528 285 528 140 l 528 518 q 474 738 528 663 q 294 814 421 814 q 113 738 167 814 q 60 518 60 663 l 60 285 q 113 65 60 140 q 294 -11 167 -11 m 294 99 q 235 122 254 99 q 213 181 217 146 q 208 275 208 215 l 208 526 q 213 622 208 586 q 235 681 217 657 q 294 704 254 704 q 353 681 335 704 q 375 622 371 657 q 379 526 379 586 l 379 275 q 375 181 379 215 q 353 122 371 146 q 294 99 335 99 m 400 972 q 480 1013 457 972 q 503 1125 503 1054 l 419 1125 q 409 1080 419 1093 q 374 1067 399 1067 q 337 1074 354 1067 q 292 1099 319 1082 q 242 1124 264 1115 q 197 1133 221 1133 q 86 983 86 1133 l 171 983 q 182 1027 171 1014 q 218 1040 193 1040 q 253 1033 236 1040 q 297 1010 269 1025 q 349 982 326 992 q 400 972 372 972 m 161 1372 l 161 1282 l 428 1282 l 428 1372 l 161 1372 "},"œ":{"ha":951,"x_min":79,"x_max":872,"o":"m 314 -11 q 476 86 432 -11 q 653 -11 518 -11 q 819 47 765 -11 q 872 226 872 106 l 872 279 l 724 279 l 724 225 q 703 134 724 160 q 638 111 683 108 q 576 149 596 113 q 553 231 557 185 q 550 354 550 276 l 550 404 l 872 404 l 872 472 q 856 665 872 592 q 792 776 839 738 q 658 814 746 814 q 546 789 593 814 q 476 719 499 764 q 307 814 426 814 q 131 739 183 814 q 79 521 79 664 l 79 282 q 133 64 79 139 q 314 -11 186 -11 m 314 111 q 255 134 274 111 q 232 191 236 157 q 228 282 228 225 l 228 521 q 233 613 228 578 q 256 670 238 647 q 314 693 274 693 q 373 670 354 693 q 397 613 392 647 q 401 521 401 578 l 401 282 q 397 191 401 225 q 373 134 392 157 q 314 111 354 111 m 724 479 l 550 479 l 550 522 q 567 648 550 603 q 638 693 585 693 q 708 649 692 693 q 724 522 724 604 l 724 479 "},"p":{"ha":619,"x_min":75,"x_max":560,"o":"m 75 803 l 75 -264 l 224 -264 l 224 60 q 360 -11 289 -11 q 515 80 469 -11 q 560 318 560 171 l 560 513 q 523 720 560 626 q 376 814 486 814 q 224 739 289 814 l 224 803 l 75 803 m 331 106 q 224 142 272 106 l 224 656 q 325 697 274 697 q 394 649 378 697 q 411 513 411 601 l 411 318 q 397 158 411 210 q 331 106 382 106 "},"ṗ":{"ha":619,"x_min":75,"x_max":560,"o":"m 75 803 l 75 -264 l 224 -264 l 224 60 q 360 -11 289 -11 q 515 80 469 -11 q 560 318 560 171 l 560 513 q 523 720 560 626 q 376 814 486 814 q 224 739 289 814 l 224 803 l 75 803 m 331 106 q 224 142 272 106 l 224 656 q 325 697 274 697 q 394 649 378 697 q 411 513 411 601 l 411 318 q 397 158 411 210 q 331 106 382 106 m 235 1097 l 235 932 l 385 932 l 385 1097 l 235 1097 "},"þ":{"ha":621,"x_min":76,"x_max":561,"o":"m 76 1125 l 76 -264 l 225 -264 l 225 60 q 361 -11 290 -11 q 516 80 471 -11 q 561 318 561 171 l 561 513 q 524 720 561 626 q 378 814 488 814 q 225 739 290 814 l 225 1125 l 76 1125 m 332 106 q 225 142 274 106 l 225 656 q 325 697 275 697 q 395 649 378 697 q 413 513 413 601 l 413 318 q 398 158 413 211 q 332 106 383 106 "},"q":{"ha":615,"x_min":61,"x_max":540,"o":"m 392 51 l 392 -264 l 540 -264 l 540 803 l 392 803 l 392 751 q 258 814 329 814 q 103 722 146 814 q 61 471 61 631 l 61 315 q 109 65 61 142 q 260 -11 157 -11 q 392 51 333 -11 m 300 106 q 228 156 246 106 q 210 303 210 206 l 210 529 q 297 697 210 697 q 392 663 340 697 l 392 136 q 300 106 347 106 "},"r":{"ha":446,"x_min":79,"x_max":429,"o":"m 79 803 l 79 0 l 228 0 l 228 586 q 283 647 254 629 q 347 664 311 664 q 429 647 385 664 l 429 811 q 406 813 418 813 q 313 785 357 813 q 228 689 269 757 l 228 803 l 79 803 "},"ŕ":{"ha":446,"x_min":79,"x_max":447,"o":"m 79 803 l 79 0 l 228 0 l 228 586 q 283 647 254 629 q 347 664 311 664 q 429 647 385 664 l 429 811 q 406 813 418 813 q 313 785 357 813 q 228 689 269 757 l 228 803 l 79 803 m 299 1144 l 217 869 l 292 869 l 447 1144 l 299 1144 "},"ř":{"ha":446,"x_min":61,"x_max":450,"o":"m 79 803 l 79 0 l 228 0 l 228 586 q 283 647 254 629 q 347 664 311 664 q 429 647 385 664 l 429 811 q 406 813 418 813 q 313 785 357 813 q 228 689 269 757 l 228 803 l 79 803 m 61 1125 l 182 885 l 328 885 l 450 1125 l 336 1125 l 256 963 l 175 1125 l 61 1125 "},"ŗ":{"ha":446,"x_min":78,"x_max":429,"o":"m 79 803 l 79 0 l 228 0 l 228 586 q 283 647 254 629 q 347 664 311 664 q 429 647 385 664 l 429 811 q 406 813 418 813 q 313 785 357 813 q 228 689 269 757 l 228 803 l 79 803 m 78 -325 l 115 -399 q 205 -355 182 -396 q 229 -231 228 -314 l 231 -87 l 79 -87 l 79 -239 l 156 -239 q 138 -301 156 -281 q 78 -325 119 -322 "},"ȑ":{"ha":446,"x_min":-18,"x_max":429,"o":"m 79 803 l 79 0 l 228 0 l 228 586 q 283 647 254 629 q 347 664 311 664 q 429 647 385 664 l 429 811 q 406 813 418 813 q 313 785 357 813 q 228 689 269 757 l 228 803 l 79 803 m -18 1125 l 138 889 l 213 889 l 132 1125 l -18 1125 m 213 1125 l 315 889 l 390 889 l 335 1125 l 213 1125 "},"ȓ":{"ha":446,"x_min":72,"x_max":439,"o":"m 79 803 l 79 0 l 228 0 l 228 586 q 283 647 254 629 q 347 664 311 664 q 429 647 385 664 l 429 811 q 406 813 418 813 q 313 785 357 813 q 228 689 269 757 l 228 803 l 79 803 m 72 918 l 160 918 q 183 1012 161 983 q 256 1040 204 1040 q 330 1013 308 1040 q 351 918 351 985 l 439 918 q 399 1070 439 1015 q 256 1125 358 1125 q 113 1071 153 1125 q 72 918 74 1017 "},"s":{"ha":519,"x_min":35,"x_max":483,"o":"m 261 -11 q 424 42 364 -11 q 483 194 483 94 q 453 314 483 264 q 369 411 422 364 l 228 542 q 188 622 188 576 q 208 681 186 657 q 267 704 231 704 q 333 669 311 704 q 365 565 356 633 l 465 603 q 405 755 457 696 q 261 814 353 814 q 110 761 165 814 q 54 613 54 708 q 80 505 54 549 q 153 421 106 461 l 290 303 q 356 185 356 247 q 331 123 356 147 q 267 99 306 99 q 194 136 219 99 q 158 251 168 174 l 35 214 q 103 50 43 111 q 261 -11 164 -11 "},"ś":{"ha":519,"x_min":35,"x_max":483,"o":"m 261 -11 q 424 42 364 -11 q 483 194 483 94 q 453 314 483 264 q 369 411 422 364 l 228 542 q 188 622 188 576 q 208 681 186 657 q 267 704 231 704 q 333 669 311 704 q 365 565 356 633 l 465 603 q 405 755 457 696 q 261 814 353 814 q 110 761 165 814 q 54 613 54 708 q 80 505 54 549 q 153 421 106 461 l 290 303 q 356 185 356 247 q 331 123 356 147 q 267 99 306 99 q 194 136 219 99 q 158 251 168 174 l 35 214 q 103 50 43 111 q 261 -11 164 -11 m 303 1144 l 221 869 l 296 869 l 451 1144 l 303 1144 "},"š":{"ha":519,"x_min":35,"x_max":483,"o":"m 261 -11 q 424 42 364 -11 q 483 194 483 94 q 453 314 483 264 q 369 411 422 364 l 228 542 q 188 622 188 576 q 208 681 186 657 q 267 704 231 704 q 333 669 311 704 q 365 565 356 633 l 465 603 q 405 755 457 696 q 261 814 353 814 q 110 761 165 814 q 54 613 54 708 q 80 505 54 549 q 153 421 106 461 l 290 303 q 356 185 356 247 q 331 123 356 147 q 267 99 306 99 q 194 136 219 99 q 158 251 168 174 l 35 214 q 103 50 43 111 q 261 -11 164 -11 m 65 1125 l 186 885 l 332 885 l 454 1125 l 340 1125 l 260 963 l 179 1125 l 65 1125 "},"ş":{"ha":519,"x_min":35,"x_max":483,"o":"m 297 -78 l 297 -10 q 434 51 385 0 q 483 194 483 103 q 453 314 483 264 q 369 411 422 364 l 228 542 q 188 622 188 576 q 208 681 186 657 q 267 704 231 704 q 333 669 311 704 q 365 565 356 633 l 465 603 q 405 755 457 696 q 261 814 353 814 q 110 761 165 814 q 54 613 54 708 q 80 505 54 549 q 153 421 106 461 l 290 303 q 356 185 356 247 q 331 123 356 147 q 267 99 306 99 q 194 136 219 99 q 158 251 168 174 l 35 214 q 91 63 42 122 q 222 -8 140 4 l 222 -115 q 312 -141 283 -124 q 340 -193 340 -158 q 317 -234 340 -221 q 256 -247 293 -247 q 185 -237 218 -247 l 185 -312 q 278 -326 238 -326 q 403 -294 356 -326 q 451 -197 451 -261 q 409 -110 451 -143 q 297 -78 367 -78 "},"ŝ":{"ha":519,"x_min":35,"x_max":483,"o":"m 261 -11 q 424 42 364 -11 q 483 194 483 94 q 453 314 483 264 q 369 411 422 364 l 228 542 q 188 622 188 576 q 208 681 186 657 q 267 704 231 704 q 333 669 311 704 q 365 565 356 633 l 465 603 q 405 755 457 696 q 261 814 353 814 q 110 761 165 814 q 54 613 54 708 q 80 505 54 549 q 153 421 106 461 l 290 303 q 356 185 356 247 q 331 123 356 147 q 267 99 306 99 q 194 136 219 99 q 158 251 168 174 l 35 214 q 103 50 43 111 q 261 -11 164 -11 m 183 1125 l 64 882 l 175 882 l 258 1050 l 343 882 l 456 882 l 335 1125 l 183 1125 "},"ș":{"ha":519,"x_min":35,"x_max":483,"o":"m 261 -11 q 424 42 364 -11 q 483 194 483 94 q 453 314 483 264 q 369 411 422 364 l 228 542 q 188 622 188 576 q 208 681 186 657 q 267 704 231 704 q 333 669 311 704 q 365 565 356 633 l 465 603 q 405 755 457 696 q 261 814 353 814 q 110 761 165 814 q 54 613 54 708 q 80 505 54 549 q 153 421 106 461 l 290 303 q 356 185 356 247 q 331 123 356 147 q 267 99 306 99 q 194 136 219 99 q 158 251 168 174 l 35 214 q 103 50 43 111 q 261 -11 164 -11 m 183 -325 l 221 -399 q 310 -355 288 -396 q 335 -231 333 -314 l 336 -87 l 185 -87 l 185 -239 l 261 -239 q 243 -301 261 -281 q 183 -325 225 -322 "},"ṡ":{"ha":519,"x_min":35,"x_max":483,"o":"m 261 -11 q 424 42 364 -11 q 483 194 483 94 q 453 314 483 264 q 369 411 422 364 l 228 542 q 188 622 188 576 q 208 681 186 657 q 267 704 231 704 q 333 669 311 704 q 365 565 356 633 l 465 603 q 405 755 457 696 q 261 814 353 814 q 110 761 165 814 q 54 613 54 708 q 80 505 54 549 q 153 421 106 461 l 290 303 q 356 185 356 247 q 331 123 356 147 q 267 99 306 99 q 194 136 219 99 q 158 251 168 174 l 35 214 q 103 50 43 111 q 261 -11 164 -11 m 185 1097 l 185 932 l 335 932 l 335 1097 l 185 1097 "},"ß":{"ha":715,"x_min":82,"x_max":638,"o":"m 310 111 l 310 -12 q 559 73 481 -12 q 638 322 638 158 q 591 500 638 428 q 458 594 544 572 q 562 691 528 631 q 596 849 596 751 q 531 1064 596 990 q 335 1138 465 1138 q 147 1061 211 1138 q 82 850 82 985 l 82 0 l 231 0 l 231 851 q 253 975 231 935 q 339 1015 276 1015 q 426 972 403 1015 q 450 849 450 929 q 420 703 450 761 q 321 644 390 644 l 319 521 q 447 467 404 521 q 490 322 490 414 q 476 205 490 250 q 422 135 461 160 q 310 111 382 111 "},"t":{"ha":428,"x_min":31,"x_max":393,"o":"m 289 -11 q 392 -3 336 -11 l 392 107 q 338 103 365 103 q 279 122 294 103 q 264 190 264 142 l 264 704 l 393 704 l 393 803 l 264 803 l 264 1038 l 115 1038 l 115 803 l 31 803 l 31 704 l 115 704 l 115 181 q 157 37 117 85 q 289 -11 197 -11 "},"ŧ":{"ha":339,"x_min":31,"x_max":403,"o":"m 264 472 l 403 472 l 403 549 l 264 549 l 264 704 l 393 704 l 393 803 l 264 803 l 264 1038 l 115 1038 l 115 803 l 31 803 l 31 704 l 115 704 l 115 549 l 36 549 l 36 472 l 115 472 l 115 181 q 157 37 117 85 q 289 -11 197 -11 q 392 -3 336 -11 l 392 107 q 338 103 365 103 q 279 122 294 103 q 264 190 264 142 l 264 472 "},"ť":{"ha":460,"x_min":31,"x_max":476,"o":"m 289 -11 q 392 -3 336 -11 l 392 107 q 338 103 365 103 q 279 122 294 103 q 264 190 264 142 l 264 704 l 393 704 l 393 803 l 264 803 l 264 1038 l 115 1038 l 115 803 l 31 803 l 31 704 l 115 704 l 115 181 q 157 37 117 85 q 289 -11 197 -11 m 322 924 l 346 860 q 444 927 413 883 q 476 1044 476 971 l 476 1201 l 324 1201 l 324 1042 l 403 1042 q 381 967 403 999 q 322 924 360 936 "},"ţ":{"ha":428,"x_min":31,"x_max":481,"o":"m 326 -78 l 326 -10 q 392 -3 368 -7 l 392 107 q 338 103 365 103 q 279 122 294 103 q 264 190 264 142 l 264 704 l 393 704 l 393 803 l 264 803 l 264 1038 l 115 1038 l 115 803 l 31 803 l 31 704 l 115 704 l 115 181 q 148 48 117 94 q 251 -8 179 1 l 251 -115 q 341 -141 313 -124 q 369 -193 369 -158 q 346 -234 369 -221 q 285 -247 322 -247 q 214 -237 247 -247 l 214 -312 q 307 -326 267 -326 q 433 -294 385 -326 q 481 -197 481 -261 q 438 -110 481 -143 q 326 -78 396 -78 "},"ț":{"ha":428,"x_min":31,"x_max":393,"o":"m 289 -11 q 392 -3 336 -11 l 392 107 q 338 103 365 103 q 279 122 294 103 q 264 190 264 142 l 264 704 l 393 704 l 393 803 l 264 803 l 264 1038 l 115 1038 l 115 803 l 31 803 l 31 704 l 115 704 l 115 181 q 157 37 117 85 q 289 -11 197 -11 m 213 -325 l 250 -399 q 340 -355 317 -396 q 364 -231 363 -314 l 365 -87 l 214 -87 l 214 -239 l 290 -239 q 272 -301 290 -281 q 213 -325 254 -322 "},"ṫ":{"ha":428,"x_min":31,"x_max":393,"o":"m 289 -11 q 392 -3 336 -11 l 392 107 q 338 103 365 103 q 279 122 294 103 q 264 190 264 142 l 264 704 l 393 704 l 393 803 l 264 803 l 264 1038 l 115 1038 l 115 803 l 31 803 l 31 704 l 115 704 l 115 181 q 157 37 117 85 q 289 -11 197 -11 m 115 1332 l 115 1167 l 265 1167 l 265 1332 l 115 1332 "},"u":{"ha":611,"x_min":69,"x_max":535,"o":"m 190 -11 q 386 79 290 -11 l 386 0 l 535 0 l 535 803 l 386 803 l 386 156 q 282 106 326 106 q 232 128 246 106 q 218 197 218 151 l 218 803 l 69 803 l 69 153 q 97 36 69 83 q 190 -11 125 -11 "},"ú":{"ha":611,"x_min":69,"x_max":535,"o":"m 190 -11 q 386 79 290 -11 l 386 0 l 535 0 l 535 803 l 386 803 l 386 156 q 282 106 326 106 q 232 128 246 106 q 218 197 218 151 l 218 803 l 69 803 l 69 153 q 97 36 69 83 q 190 -11 125 -11 m 349 1144 l 267 869 l 342 869 l 497 1144 l 349 1144 "},"ŭ":{"ha":611,"x_min":69,"x_max":535,"o":"m 190 -11 q 386 79 290 -11 l 386 0 l 535 0 l 535 803 l 386 803 l 386 156 q 282 106 326 106 q 232 128 246 106 q 218 197 218 151 l 218 803 l 69 803 l 69 153 q 97 36 69 83 q 190 -11 125 -11 m 306 890 q 445 942 401 890 q 489 1079 489 993 l 401 1079 q 306 975 401 975 q 233 1001 256 975 q 210 1079 211 1026 l 124 1079 q 167 942 124 993 q 306 890 211 890 "},"û":{"ha":611,"x_min":69,"x_max":535,"o":"m 190 -11 q 386 79 290 -11 l 386 0 l 535 0 l 535 803 l 386 803 l 386 156 q 282 106 326 106 q 232 128 246 106 q 218 197 218 151 l 218 803 l 69 803 l 69 153 q 97 36 69 83 q 190 -11 125 -11 m 229 1125 l 110 882 l 221 882 l 304 1050 l 389 882 l 501 882 l 381 1125 l 229 1125 "},"ȕ":{"ha":611,"x_min":32,"x_max":535,"o":"m 190 -11 q 386 79 290 -11 l 386 0 l 535 0 l 535 803 l 386 803 l 386 156 q 282 106 326 106 q 232 128 246 106 q 218 197 218 151 l 218 803 l 69 803 l 69 153 q 97 36 69 83 q 190 -11 125 -11 m 32 1125 l 188 889 l 263 889 l 182 1125 l 32 1125 m 263 1125 l 365 889 l 440 889 l 385 1125 l 263 1125 "},"ü":{"ha":611,"x_min":69,"x_max":535,"o":"m 190 -11 q 386 79 290 -11 l 386 0 l 535 0 l 535 803 l 386 803 l 386 156 q 282 106 326 106 q 232 128 246 106 q 218 197 218 151 l 218 803 l 69 803 l 69 153 q 97 36 69 83 q 190 -11 125 -11 m 111 1125 l 111 971 l 261 971 l 261 1125 l 111 1125 m 350 1125 l 350 971 l 500 971 l 500 1125 l 350 1125 "},"ụ":{"ha":611,"x_min":69,"x_max":535,"o":"m 190 -11 q 386 79 290 -11 l 386 0 l 535 0 l 535 803 l 386 803 l 386 156 q 282 106 326 106 q 232 128 246 106 q 218 197 218 151 l 218 803 l 69 803 l 69 153 q 97 36 69 83 q 190 -11 125 -11 m 231 -87 l 231 -244 l 381 -244 l 381 -87 l 231 -87 "},"ù":{"ha":611,"x_min":69,"x_max":535,"o":"m 190 -11 q 386 79 290 -11 l 386 0 l 535 0 l 535 803 l 386 803 l 386 156 q 282 106 326 106 q 232 128 246 106 q 218 197 218 151 l 218 803 l 69 803 l 69 153 q 97 36 69 83 q 190 -11 125 -11 m 117 1144 l 271 869 l 344 869 l 265 1144 l 117 1144 "},"ủ":{"ha":611,"x_min":69,"x_max":535,"o":"m 190 -11 q 386 79 290 -11 l 386 0 l 535 0 l 535 803 l 386 803 l 386 156 q 282 106 326 106 q 232 128 246 106 q 218 197 218 151 l 218 803 l 69 803 l 69 153 q 97 36 69 83 q 190 -11 125 -11 m 260 939 l 307 883 q 422 942 383 910 q 461 1032 461 975 q 418 1122 461 1092 q 307 1153 375 1153 q 194 1139 249 1153 l 194 1064 q 265 1074 228 1074 q 326 1060 303 1074 q 350 1019 350 1047 q 328 976 350 994 q 260 939 306 958 "},"ư":{"ha":611,"x_min":69,"x_max":611,"o":"m 611 906 l 496 906 q 478 828 496 853 q 421 803 461 803 l 386 803 l 386 156 q 282 106 326 106 q 232 128 246 106 q 218 197 218 151 l 218 803 l 69 803 l 69 153 q 97 36 69 83 q 190 -11 125 -11 q 386 79 290 -11 l 386 0 l 535 0 l 535 750 q 611 906 611 793 "},"ứ":{"ha":611,"x_min":69,"x_max":611,"o":"m 611 906 l 496 906 q 478 828 496 853 q 421 803 461 803 l 386 803 l 386 156 q 282 106 326 106 q 232 128 246 106 q 218 197 218 151 l 218 803 l 69 803 l 69 153 q 97 36 69 83 q 190 -11 125 -11 q 386 79 290 -11 l 386 0 l 535 0 l 535 750 q 611 906 611 793 m 349 1144 l 267 869 l 342 869 l 497 1144 l 349 1144 "},"ự":{"ha":611,"x_min":69,"x_max":611,"o":"m 611 906 l 496 906 q 478 828 496 853 q 421 803 461 803 l 386 803 l 386 156 q 282 106 326 106 q 232 128 246 106 q 218 197 218 151 l 218 803 l 69 803 l 69 153 q 97 36 69 83 q 190 -11 125 -11 q 386 79 290 -11 l 386 0 l 535 0 l 535 750 q 611 906 611 793 m 231 -87 l 231 -244 l 381 -244 l 381 -87 l 231 -87 "},"ừ":{"ha":611,"x_min":69,"x_max":611,"o":"m 611 906 l 496 906 q 478 828 496 853 q 421 803 461 803 l 386 803 l 386 156 q 282 106 326 106 q 232 128 246 106 q 218 197 218 151 l 218 803 l 69 803 l 69 153 q 97 36 69 83 q 190 -11 125 -11 q 386 79 290 -11 l 386 0 l 535 0 l 535 750 q 611 906 611 793 m 117 1144 l 271 869 l 344 869 l 265 1144 l 117 1144 "},"ử":{"ha":611,"x_min":69,"x_max":611,"o":"m 611 906 l 496 906 q 478 828 496 853 q 421 803 461 803 l 386 803 l 386 156 q 282 106 326 106 q 232 128 246 106 q 218 197 218 151 l 218 803 l 69 803 l 69 153 q 97 36 69 83 q 190 -11 125 -11 q 386 79 290 -11 l 386 0 l 535 0 l 535 750 q 611 906 611 793 m 260 939 l 307 883 q 422 942 383 910 q 461 1032 461 975 q 418 1122 461 1092 q 307 1153 375 1153 q 194 1139 249 1153 l 194 1064 q 265 1074 228 1074 q 326 1060 303 1074 q 350 1019 350 1047 q 328 976 350 994 q 260 939 306 958 "},"ữ":{"ha":611,"x_min":69,"x_max":611,"o":"m 611 906 l 496 906 q 478 828 496 853 q 421 803 461 803 l 386 803 l 386 156 q 282 106 326 106 q 232 128 246 106 q 218 197 218 151 l 218 803 l 69 803 l 69 153 q 97 36 69 83 q 190 -11 125 -11 q 386 79 290 -11 l 386 0 l 535 0 l 535 750 q 611 906 611 793 m 411 972 q 491 1013 468 972 q 514 1125 514 1054 l 431 1125 q 420 1080 431 1093 q 385 1067 410 1067 q 348 1074 365 1067 q 303 1099 331 1082 q 253 1124 275 1115 q 208 1133 232 1133 q 97 983 97 1133 l 182 983 q 193 1027 182 1014 q 229 1040 204 1040 q 264 1033 247 1040 q 308 1010 281 1025 q 360 982 338 992 q 411 972 383 972 "},"ű":{"ha":611,"x_min":69,"x_max":592,"o":"m 190 -11 q 386 79 290 -11 l 386 0 l 535 0 l 535 803 l 386 803 l 386 156 q 282 106 326 106 q 232 128 246 106 q 218 197 218 151 l 218 803 l 69 803 l 69 153 q 97 36 69 83 q 190 -11 125 -11 m 240 1126 l 186 889 l 261 889 l 363 1126 l 240 1126 m 442 1126 l 361 889 l 438 889 l 592 1126 l 442 1126 "},"ȗ":{"ha":611,"x_min":69,"x_max":535,"o":"m 190 -11 q 386 79 290 -11 l 386 0 l 535 0 l 535 803 l 386 803 l 386 156 q 282 106 326 106 q 232 128 246 106 q 218 197 218 151 l 218 803 l 69 803 l 69 153 q 97 36 69 83 q 190 -11 125 -11 m 122 918 l 210 918 q 233 1012 211 983 q 306 1040 254 1040 q 380 1013 358 1040 q 401 918 401 985 l 489 918 q 449 1070 489 1015 q 306 1125 408 1125 q 163 1071 203 1125 q 122 918 124 1017 "},"ū":{"ha":611,"x_min":69,"x_max":535,"o":"m 190 -11 q 386 79 290 -11 l 386 0 l 535 0 l 535 803 l 386 803 l 386 156 q 282 106 326 106 q 232 128 246 106 q 218 197 218 151 l 218 803 l 69 803 l 69 153 q 97 36 69 83 q 190 -11 125 -11 m 172 1042 l 172 951 l 439 951 l 439 1042 l 172 1042 "},"ų":{"ha":611,"x_min":69,"x_max":539,"o":"m 494 -246 q 383 -179 383 -246 q 418 -88 383 -136 q 500 0 453 -40 l 535 0 l 535 803 l 386 803 l 386 156 q 282 106 326 106 q 232 128 246 106 q 218 197 218 151 l 218 803 l 69 803 l 69 153 q 97 36 69 83 q 190 -11 125 -11 q 386 79 290 -11 l 386 0 l 425 0 q 353 -42 389 -11 q 294 -116 317 -74 q 271 -201 271 -158 q 322 -297 271 -272 q 464 -321 374 -321 q 514 -317 490 -321 l 539 -243 q 494 -246 514 -246 "},"ů":{"ha":611,"x_min":69,"x_max":535,"o":"m 190 -11 q 386 79 290 -11 l 386 0 l 535 0 l 535 803 l 386 803 l 386 156 q 282 106 326 106 q 232 128 246 106 q 218 197 218 151 l 218 803 l 69 803 l 69 153 q 97 36 69 83 q 190 -11 125 -11 m 306 828 q 418 870 375 828 q 461 983 461 913 q 419 1096 461 1054 q 306 1138 376 1138 q 192 1096 235 1138 q 150 983 150 1054 q 193 870 150 913 q 306 828 236 828 m 306 903 q 247 924 268 903 q 225 983 225 946 q 247 1043 225 1022 q 306 1064 268 1064 q 365 1042 343 1064 q 386 983 386 1021 q 364 924 386 946 q 306 903 342 903 "},"ũ":{"ha":611,"x_min":69,"x_max":535,"o":"m 190 -11 q 386 79 290 -11 l 386 0 l 535 0 l 535 803 l 386 803 l 386 156 q 282 106 326 106 q 232 128 246 106 q 218 197 218 151 l 218 803 l 69 803 l 69 153 q 97 36 69 83 q 190 -11 125 -11 m 411 972 q 491 1013 468 972 q 514 1125 514 1054 l 431 1125 q 420 1080 431 1093 q 385 1067 410 1067 q 348 1074 365 1067 q 303 1099 331 1082 q 253 1124 275 1115 q 208 1133 232 1133 q 97 983 97 1133 l 182 983 q 193 1027 182 1014 q 229 1040 204 1040 q 264 1033 247 1040 q 308 1010 281 1025 q 360 982 338 992 q 411 972 383 972 "},"v":{"ha":535,"x_min":21,"x_max":514,"o":"m 21 803 l 179 0 l 361 0 l 514 803 l 369 803 l 269 157 l 171 803 l 21 803 "},"w":{"ha":817,"x_min":39,"x_max":778,"o":"m 39 803 l 168 0 l 301 0 l 410 567 l 519 0 l 644 0 l 778 803 l 656 803 l 572 214 l 465 803 l 351 803 l 244 211 l 161 803 l 39 803 "},"ẃ":{"ha":817,"x_min":39,"x_max":778,"o":"m 39 803 l 168 0 l 301 0 l 410 567 l 519 0 l 644 0 l 778 803 l 656 803 l 572 214 l 465 803 l 351 803 l 244 211 l 161 803 l 39 803 m 451 1144 l 369 869 l 444 869 l 600 1144 l 451 1144 "},"ŵ":{"ha":817,"x_min":39,"x_max":778,"o":"m 39 803 l 168 0 l 301 0 l 410 567 l 519 0 l 644 0 l 778 803 l 656 803 l 572 214 l 465 803 l 351 803 l 244 211 l 161 803 l 39 803 m 332 1125 l 213 882 l 324 882 l 407 1050 l 492 882 l 604 882 l 483 1125 l 332 1125 "},"ẅ":{"ha":817,"x_min":39,"x_max":778,"o":"m 39 803 l 168 0 l 301 0 l 410 567 l 519 0 l 644 0 l 778 803 l 656 803 l 572 214 l 465 803 l 351 803 l 244 211 l 161 803 l 39 803 m 214 1125 l 214 971 l 364 971 l 364 1125 l 214 1125 m 453 1125 l 453 971 l 603 971 l 603 1125 l 453 1125 "},"ẁ":{"ha":817,"x_min":39,"x_max":778,"o":"m 39 803 l 168 0 l 301 0 l 410 567 l 519 0 l 644 0 l 778 803 l 656 803 l 572 214 l 465 803 l 351 803 l 244 211 l 161 803 l 39 803 m 219 1144 l 374 869 l 447 869 l 368 1144 l 219 1144 "},"x":{"ha":540,"x_min":13,"x_max":529,"o":"m 193 422 l 13 0 l 153 0 l 261 272 l 388 0 l 529 0 l 343 404 l 526 803 l 381 803 l 276 549 l 158 803 l 17 803 l 193 422 "},"y":{"ha":544,"x_min":17,"x_max":529,"o":"m 63 -87 l 63 -201 l 81 -201 q 256 -165 193 -201 q 338 -44 318 -129 l 529 803 l 379 803 l 275 203 l 167 803 l 17 803 q 178 119 108 408 l 185 92 l 203 8 q 208 -28 208 -19 q 177 -75 208 -62 q 63 -87 146 -87 "},"ý":{"ha":544,"x_min":17,"x_max":529,"o":"m 63 -87 l 63 -201 l 81 -201 q 256 -165 193 -201 q 338 -44 318 -129 l 529 803 l 379 803 l 275 203 l 167 803 l 17 803 q 178 119 108 408 l 185 92 l 203 8 q 208 -28 208 -19 q 177 -75 208 -62 q 63 -87 146 -87 m 315 1144 l 233 869 l 308 869 l 464 1144 l 315 1144 "},"ŷ":{"ha":544,"x_min":17,"x_max":529,"o":"m 63 -87 l 63 -201 l 81 -201 q 256 -165 193 -201 q 338 -44 318 -129 l 529 803 l 379 803 l 275 203 l 167 803 l 17 803 q 178 119 108 408 l 185 92 l 203 8 q 208 -28 208 -19 q 177 -75 208 -62 q 63 -87 146 -87 m 196 1125 l 76 882 l 188 882 l 271 1050 l 356 882 l 468 882 l 347 1125 l 196 1125 "},"ÿ":{"ha":544,"x_min":17,"x_max":529,"o":"m 63 -87 l 63 -201 l 81 -201 q 256 -165 193 -201 q 338 -44 318 -129 l 529 803 l 379 803 l 275 203 l 167 803 l 17 803 q 178 119 108 408 l 185 92 l 203 8 q 208 -28 208 -19 q 177 -75 208 -62 q 63 -87 146 -87 m 78 1125 l 78 971 l 228 971 l 228 1125 l 78 1125 m 317 1125 l 317 971 l 467 971 l 467 1125 l 317 1125 "},"ỵ":{"ha":544,"x_min":17,"x_max":529,"o":"m 63 -87 l 63 -201 l 81 -201 q 256 -165 193 -201 q 338 -44 318 -129 l 529 803 l 379 803 l 275 203 l 167 803 l 17 803 q 178 119 108 408 l 185 92 l 203 8 q 208 -28 208 -19 q 177 -75 208 -62 q 63 -87 146 -87 m 367 -87 l 367 -244 l 517 -244 l 517 -87 l 367 -87 "},"ỳ":{"ha":544,"x_min":17,"x_max":529,"o":"m 63 -87 l 63 -201 l 81 -201 q 256 -165 193 -201 q 338 -44 318 -129 l 529 803 l 379 803 l 275 203 l 167 803 l 17 803 q 178 119 108 408 l 185 92 l 203 8 q 208 -28 208 -19 q 177 -75 208 -62 q 63 -87 146 -87 m 83 1144 l 238 869 l 311 869 l 232 1144 l 83 1144 "},"ỷ":{"ha":544,"x_min":17,"x_max":529,"o":"m 63 -87 l 63 -201 l 81 -201 q 256 -165 193 -201 q 338 -44 318 -129 l 529 803 l 379 803 l 275 203 l 167 803 l 17 803 q 178 119 108 408 l 185 92 l 203 8 q 208 -28 208 -19 q 177 -75 208 -62 q 63 -87 146 -87 m 226 939 l 274 883 q 389 942 350 910 q 428 1032 428 975 q 385 1122 428 1092 q 274 1153 342 1153 q 161 1139 215 1153 l 161 1064 q 232 1074 194 1074 q 293 1060 269 1074 q 317 1019 317 1047 q 294 976 317 994 q 226 939 272 958 "},"ȳ":{"ha":544,"x_min":17,"x_max":529,"o":"m 63 -87 l 63 -201 l 81 -201 q 256 -165 193 -201 q 338 -44 318 -129 l 529 803 l 379 803 l 275 203 l 167 803 l 17 803 q 178 119 108 408 l 185 92 l 203 8 q 208 -28 208 -19 q 177 -75 208 -62 q 63 -87 146 -87 m 139 1042 l 139 951 l 406 951 l 406 1042 l 139 1042 "},"ỹ":{"ha":544,"x_min":17,"x_max":529,"o":"m 63 -87 l 63 -201 l 81 -201 q 256 -165 193 -201 q 338 -44 318 -129 l 529 803 l 379 803 l 275 203 l 167 803 l 17 803 q 178 119 108 408 l 185 92 l 203 8 q 208 -28 208 -19 q 177 -75 208 -62 q 63 -87 146 -87 m 378 972 q 458 1013 435 972 q 481 1125 481 1054 l 397 1125 q 387 1080 397 1093 q 351 1067 376 1067 q 315 1074 332 1067 q 269 1099 297 1082 q 220 1124 242 1115 q 175 1133 199 1133 q 64 983 64 1133 l 149 983 q 160 1027 149 1014 q 196 1040 171 1040 q 231 1033 214 1040 q 275 1010 247 1025 q 327 982 304 992 q 378 972 350 972 "},"z":{"ha":482,"x_min":44,"x_max":450,"o":"m 44 100 l 44 0 l 444 0 l 444 113 l 203 113 l 450 722 l 450 803 l 69 803 l 69 692 l 290 692 l 44 100 "},"ź":{"ha":482,"x_min":44,"x_max":450,"o":"m 44 100 l 44 0 l 444 0 l 444 113 l 203 113 l 450 722 l 450 803 l 69 803 l 69 692 l 290 692 l 44 100 m 285 1144 l 203 869 l 278 869 l 433 1144 l 285 1144 "},"ž":{"ha":482,"x_min":44,"x_max":450,"o":"m 44 100 l 44 0 l 444 0 l 444 113 l 203 113 l 450 722 l 450 803 l 69 803 l 69 692 l 290 692 l 44 100 m 47 1125 l 168 885 l 314 885 l 436 1125 l 322 1125 l 242 963 l 161 1125 l 47 1125 "},"ż":{"ha":482,"x_min":44,"x_max":450,"o":"m 44 100 l 44 0 l 444 0 l 444 113 l 203 113 l 450 722 l 450 803 l 69 803 l 69 692 l 290 692 l 44 100 m 167 1097 l 167 932 l 317 932 l 317 1097 l 167 1097 "},"ﬁ":{"ha":682,"x_min":26,"x_max":600,"o":"m 122 693 l 122 0 l 271 0 l 271 693 l 450 693 l 450 0 l 599 0 l 599 803 l 271 803 l 271 869 q 285 949 271 926 q 342 972 300 972 q 393 967 354 972 l 393 1078 q 313 1083 354 1083 q 165 1026 207 1083 q 122 844 122 969 l 122 803 l 26 803 l 26 693 l 122 693 m 464 1078 l 464 922 l 600 922 l 600 1078 l 464 1078 "},"ﬂ":{"ha":715,"x_min":26,"x_max":635,"o":"m 122 693 l 122 0 l 271 0 l 271 693 l 393 693 l 393 803 l 271 803 l 271 847 q 278 934 271 904 q 313 983 285 964 q 401 1001 340 1001 q 486 996 442 1001 l 486 0 l 635 0 l 635 1078 q 379 1113 479 1113 q 206 1073 263 1113 q 136 978 150 1033 q 122 844 122 924 l 122 803 l 26 803 l 26 693 l 122 693 "},"ª":{"ha":615,"x_min":107,"x_max":514,"o":"m 247 446 q 333 473 294 446 q 394 543 372 500 l 394 454 l 514 454 l 514 872 q 474 1076 514 1010 q 325 1142 433 1142 q 183 1079 235 1142 q 129 913 132 1017 l 251 913 q 324 1035 251 1035 q 371 1003 358 1035 q 383 914 383 972 l 383 840 l 356 831 q 223 778 272 801 q 140 711 174 754 q 107 600 107 668 q 147 490 107 533 q 247 446 186 446 m 296 560 q 254 578 269 560 q 239 631 239 597 q 258 693 239 667 q 306 738 278 719 q 383 782 333 756 l 383 625 q 347 579 371 599 q 296 560 324 560 "},"º":{"ha":615,"x_min":93,"x_max":522,"o":"m 308 444 q 471 513 419 444 q 522 701 522 581 l 522 885 q 471 1074 522 1006 q 308 1142 419 1142 q 142 1076 192 1142 q 93 885 93 1010 l 93 701 q 142 510 93 576 q 308 444 192 444 m 306 553 q 233 595 250 553 q 217 718 217 638 l 217 868 q 233 990 217 949 q 306 1032 249 1032 q 365 1010 346 1032 q 388 956 383 989 q 392 868 392 924 l 392 718 q 388 629 392 663 q 365 574 383 596 q 306 553 346 553 "},"А":{"ha":682,"x_min":25,"x_max":657,"o":"m 265 1125 l 25 0 l 174 0 l 226 283 l 456 283 l 507 0 l 657 0 l 415 1125 l 265 1125 m 435 396 l 247 396 l 342 903 l 435 396 "},"Б":{"ha":686,"x_min":88,"x_max":640,"o":"m 88 1125 l 88 0 l 288 0 q 556 78 471 0 q 640 329 640 156 q 601 528 640 457 q 485 628 563 599 q 279 657 407 657 l 244 657 l 244 1011 l 571 1011 l 571 1125 l 88 1125 m 289 113 l 244 113 l 244 543 l 285 543 q 409 522 364 543 q 473 455 454 500 q 492 331 492 410 q 470 193 492 240 q 406 129 449 146 q 289 113 364 113 "},"В":{"ha":728,"x_min":88,"x_max":676,"o":"m 88 1125 l 88 0 l 388 0 q 605 85 533 0 q 676 321 676 169 q 631 512 676 442 q 485 606 585 582 q 646 843 646 628 q 572 1056 646 988 q 346 1125 499 1125 l 88 1125 m 338 656 l 244 656 l 244 1008 l 282 1008 q 418 999 372 1008 q 487 953 464 989 q 510 843 510 918 q 472 698 510 740 q 338 656 435 656 m 350 113 l 244 113 l 244 536 l 338 536 q 482 483 438 536 q 526 321 526 429 q 511 200 526 244 q 458 134 496 156 q 350 113 419 113 "},"Г":{"ha":536,"x_min":88,"x_max":515,"o":"m 88 1125 l 88 0 l 244 0 l 244 1008 l 515 1008 l 515 1125 l 88 1125 "},"Ѓ":{"ha":536,"x_min":88,"x_max":515,"o":"m 88 1125 l 88 0 l 244 0 l 244 1008 l 515 1008 l 515 1125 l 88 1125 "},"Ґ":{"ha":524,"x_min":88,"x_max":517,"o":"m 88 1125 l 88 0 l 244 0 l 244 1008 l 517 1008 l 517 1275 l 418 1275 l 418 1125 l 88 1125 "},"Д":{"ha":871,"x_min":15,"x_max":840,"o":"m 15 113 l 15 -204 l 136 -204 l 149 0 l 707 0 l 719 -204 l 840 -204 l 840 113 l 732 113 l 732 1125 l 261 1125 l 243 792 q 206 412 232 549 q 148 214 181 275 q 67 113 115 153 l 15 113 m 576 113 l 213 113 q 296 215 265 163 q 350 393 326 267 q 383 754 374 519 l 394 1008 l 576 1008 l 576 113 "},"Е":{"ha":564,"x_min":88,"x_max":526,"o":"m 88 1125 l 88 0 l 526 0 l 526 113 l 244 113 l 244 525 l 471 525 l 471 636 l 244 636 l 244 1008 l 524 1008 l 524 1125 l 88 1125 "},"Ѐ":{"ha":564,"x_min":88,"x_max":526,"o":"m 88 1125 l 88 0 l 526 0 l 526 113 l 244 113 l 244 525 l 471 525 l 471 636 l 244 636 l 244 1008 l 524 1008 l 524 1125 l 88 1125 m 132 1467 l 286 1192 l 360 1192 l 281 1467 l 132 1467 "},"Ё":{"ha":564,"x_min":88,"x_max":526,"o":"m 88 1125 l 88 0 l 526 0 l 526 113 l 244 113 l 244 525 l 471 525 l 471 636 l 244 636 l 244 1008 l 524 1008 l 524 1125 l 88 1125 "},"Ж":{"ha":939,"x_min":6,"x_max":935,"o":"m 267 575 l 6 0 l 158 0 l 393 563 l 403 563 l 403 0 l 536 0 l 536 563 l 547 563 l 781 0 l 935 0 l 672 575 l 908 1125 l 756 1125 l 546 582 l 536 582 l 536 1125 l 403 1125 l 403 582 l 394 582 l 183 1125 l 32 1125 l 267 575 "},"З":{"ha":667,"x_min":35,"x_max":611,"o":"m 333 -12 q 611 317 611 -12 q 569 499 611 429 q 450 594 526 569 q 568 680 525 615 q 611 844 611 744 q 535 1057 611 979 q 321 1135 458 1135 q 110 1058 185 1135 q 35 847 35 982 l 35 810 l 183 810 l 183 846 q 222 970 189 926 q 326 1014 256 1014 q 431 969 399 1014 q 463 844 463 925 q 420 703 463 751 q 274 650 378 656 q 233 649 264 649 l 233 529 q 276 528 265 529 q 421 467 379 521 q 463 317 463 413 q 435 163 463 214 q 333 111 408 111 q 237 153 264 111 q 207 275 210 196 q 206 314 206 286 l 58 314 l 58 276 q 128 63 58 139 q 333 -12 199 -12 "},"И":{"ha":757,"x_min":88,"x_max":668,"o":"m 88 1125 l 88 0 l 204 0 l 531 792 l 531 0 l 668 0 l 668 1125 l 556 1125 l 226 346 l 226 1125 l 88 1125 "},"Й":{"ha":757,"x_min":88,"x_max":668,"o":"m 88 1125 l 88 0 l 204 0 l 531 792 l 531 0 l 668 0 l 668 1125 l 556 1125 l 226 346 l 226 1125 l 88 1125 "},"Ѝ":{"ha":757,"x_min":88,"x_max":668,"o":"m 88 1125 l 88 0 l 204 0 l 531 792 l 531 0 l 668 0 l 668 1125 l 556 1125 l 226 346 l 226 1125 l 88 1125 m 203 1467 l 357 1192 l 431 1192 l 351 1467 l 203 1467 "},"К":{"ha":706,"x_min":88,"x_max":689,"o":"m 88 1125 l 88 0 l 244 0 l 244 549 l 304 549 l 532 0 l 689 0 l 439 590 l 661 1125 l 504 1125 l 303 625 l 244 625 l 244 1125 l 88 1125 "},"Ќ":{"ha":706,"x_min":88,"x_max":689,"o":"m 88 1125 l 88 0 l 244 0 l 244 549 l 304 549 l 532 0 l 689 0 l 439 590 l 661 1125 l 504 1125 l 303 625 l 244 625 l 244 1125 l 88 1125 "},"Л":{"ha":807,"x_min":3,"x_max":718,"o":"m 3 117 l 3 0 q 39 -1 15 -1 q 208 57 149 -1 q 294 226 268 115 q 332 526 321 338 l 358 1008 l 561 1008 l 561 0 l 718 0 l 718 1125 l 224 1125 l 186 526 q 151 250 174 338 q 96 139 129 163 q 3 117 63 115 "},"М":{"ha":917,"x_min":85,"x_max":832,"o":"m 106 1125 l 85 0 l 210 0 l 218 757 l 414 0 l 503 0 l 700 757 l 708 0 l 832 0 l 811 1125 l 669 1125 l 458 258 l 247 1125 l 106 1125 "},"Н":{"ha":779,"x_min":88,"x_max":690,"o":"m 88 1125 l 88 0 l 244 0 l 244 526 l 533 526 l 533 0 l 690 0 l 690 1125 l 533 1125 l 533 639 l 244 639 l 244 1125 l 88 1125 "},"О":{"ha":750,"x_min":67,"x_max":683,"o":"m 375 -12 q 611 82 539 -12 q 683 351 683 176 l 683 779 q 611 1044 683 953 q 375 1135 539 1135 q 139 1044 211 1135 q 67 779 67 954 l 67 353 q 138 81 67 175 q 375 -12 210 -12 m 375 111 q 256 163 286 111 q 225 318 225 214 l 225 811 q 256 963 225 914 q 375 1013 286 1013 q 494 963 464 1013 q 525 811 525 914 l 525 318 q 494 163 525 214 q 375 111 464 111 "},"П":{"ha":794,"x_min":88,"x_max":707,"o":"m 88 1125 l 88 0 l 244 0 l 244 1013 l 550 1013 l 550 0 l 707 0 l 707 1125 l 88 1125 "},"Р":{"ha":665,"x_min":88,"x_max":644,"o":"m 88 1125 l 88 0 l 244 0 l 244 524 l 368 524 q 574 600 503 524 q 644 814 644 676 q 578 1046 644 967 q 367 1125 513 1125 l 88 1125 m 317 636 l 244 636 l 244 1013 l 318 1013 q 434 996 397 1013 q 483 939 471 979 q 496 813 496 899 q 479 704 496 742 q 424 651 463 667 q 317 636 386 636 "},"С":{"ha":714,"x_min":67,"x_max":653,"o":"m 369 -12 q 590 77 526 -12 q 653 335 653 167 l 653 418 l 504 418 l 504 335 q 497 210 504 256 q 460 138 489 164 q 371 111 431 111 q 284 132 315 111 q 239 201 253 153 q 225 336 225 250 l 225 782 q 235 910 225 863 q 276 985 244 958 q 371 1013 307 1013 q 462 988 433 1013 q 497 921 490 963 q 504 801 504 879 l 504 722 l 653 722 l 653 811 q 587 1053 653 971 q 369 1135 521 1135 q 133 1039 200 1135 q 67 758 67 943 l 67 361 q 135 87 67 186 q 369 -12 203 -12 "},"Т":{"ha":558,"x_min":1,"x_max":561,"o":"m 207 1008 l 207 0 l 364 0 l 364 1008 l 561 1008 l 561 1125 l 1 1125 l 1 1008 l 207 1008 "},"У":{"ha":628,"x_min":26,"x_max":611,"o":"m 74 -50 l 74 -171 q 147 -174 129 -174 q 297 -151 249 -174 q 363 -83 346 -128 q 399 60 381 -39 l 410 122 l 611 1125 l 461 1125 l 376 643 l 326 289 l 269 646 l 175 1125 l 26 1125 l 249 125 q 258 39 258 67 q 233 -32 258 -10 q 139 -54 207 -54 q 74 -50 111 -54 "},"Ў":{"ha":628,"x_min":26,"x_max":611,"o":"m 74 -50 l 74 -171 q 147 -174 129 -174 q 297 -151 249 -174 q 363 -83 346 -128 q 399 60 381 -39 l 410 122 l 611 1125 l 461 1125 l 376 643 l 326 289 l 269 646 l 175 1125 l 26 1125 l 249 125 q 258 39 258 67 q 233 -32 258 -10 q 139 -54 207 -54 q 74 -50 111 -54 "},"Ф":{"ha":919,"x_min":67,"x_max":853,"o":"m 379 139 l 379 -50 l 536 -50 l 536 139 q 626 135 582 135 q 793 203 733 135 q 853 432 853 272 l 853 713 q 791 943 853 874 q 607 1013 729 1013 q 536 1010 572 1013 l 536 1226 l 379 1226 l 379 1010 q 311 1013 351 1013 q 128 943 190 1013 q 67 713 67 874 l 67 432 q 132 201 67 267 q 331 135 197 135 q 379 139 350 135 m 340 229 q 256 246 283 229 q 219 304 229 263 q 210 432 210 346 l 210 713 q 221 838 210 794 q 258 900 232 882 q 331 918 283 918 q 379 915 346 918 l 379 232 q 340 229 363 229 m 588 229 q 536 232 561 229 l 536 915 q 585 918 564 918 q 664 900 638 918 q 700 840 690 882 q 710 713 710 797 l 710 432 q 699 306 710 349 q 663 246 689 263 q 588 229 638 229 "},"Х":{"ha":669,"x_min":18,"x_max":651,"o":"m 253 589 l 18 0 l 164 0 l 322 424 l 506 0 l 651 0 l 404 576 l 640 1125 l 494 1125 l 339 728 l 168 1125 l 22 1125 l 253 589 "},"Ч":{"ha":747,"x_min":68,"x_max":660,"o":"m 501 519 l 501 0 l 660 0 l 660 1125 l 501 1125 l 501 618 q 367 601 426 601 q 246 640 282 601 q 210 760 210 678 l 210 1125 l 68 1125 l 68 760 q 336 499 68 499 q 501 519 410 499 "},"Ц":{"ha":864,"x_min":88,"x_max":828,"o":"m 694 0 l 707 -204 l 828 -204 l 828 113 l 721 113 l 721 1125 l 564 1125 l 564 113 l 244 113 l 244 1125 l 88 1125 l 88 0 l 694 0 "},"Ш":{"ha":1042,"x_min":88,"x_max":954,"o":"m 88 1125 l 88 0 l 954 0 l 954 1125 l 797 1125 l 797 114 l 604 114 l 604 1125 l 447 1125 l 447 114 l 244 114 l 244 1125 l 88 1125 "},"Щ":{"ha":1097,"x_min":88,"x_max":1063,"o":"m 928 0 l 940 -204 l 1063 -204 l 1063 113 l 956 113 l 956 1125 l 797 1125 l 797 113 l 604 113 l 604 1125 l 447 1125 l 447 113 l 244 113 l 244 1125 l 88 1125 l 88 0 l 928 0 "},"Џ":{"ha":760,"x_min":88,"x_max":671,"o":"m 314 0 l 324 -204 l 442 -204 l 451 0 l 671 0 l 671 1125 l 515 1125 l 515 113 l 244 113 l 244 1125 l 88 1125 l 88 0 l 314 0 "},"Ь":{"ha":686,"x_min":88,"x_max":649,"o":"m 88 1125 l 88 0 l 296 0 q 564 78 479 0 q 649 329 649 156 q 610 528 649 457 q 494 628 571 599 q 289 657 417 657 l 244 657 l 244 1125 l 88 1125 m 296 113 l 244 113 l 244 543 l 293 543 q 417 522 372 543 q 482 454 463 500 q 501 331 501 408 q 480 193 501 240 q 415 129 458 146 q 296 113 371 113 "},"Ъ":{"ha":788,"x_min":7,"x_max":751,"o":"m 189 1006 l 189 0 l 397 0 q 666 78 581 0 q 751 329 751 157 q 713 528 751 457 q 595 628 674 599 q 389 657 517 657 l 346 657 l 346 1125 l 7 1125 l 7 1006 l 189 1006 m 399 113 l 346 113 l 346 543 l 394 543 q 519 522 474 543 q 583 454 564 500 q 603 331 603 408 q 581 193 603 240 q 517 129 560 146 q 399 113 474 113 "},"Ы":{"ha":1011,"x_min":88,"x_max":922,"o":"m 88 1125 l 88 0 l 296 0 q 564 78 479 0 q 649 329 649 156 q 610 528 649 457 q 494 628 571 599 q 289 657 417 657 l 244 657 l 244 1125 l 88 1125 m 765 1125 l 765 0 l 922 0 l 922 1125 l 765 1125 m 296 113 l 244 113 l 244 543 l 293 543 q 417 522 372 543 q 482 454 463 500 q 501 331 501 408 q 480 193 501 240 q 415 129 458 146 q 296 113 371 113 "},"Љ":{"ha":1161,"x_min":19,"x_max":1115,"o":"m 19 0 l 50 -1 q 213 48 153 -4 q 304 208 274 100 q 344 496 335 317 l 375 1008 l 576 1008 l 576 0 l 763 0 q 1031 78 946 0 q 1115 329 1115 156 q 1076 528 1115 457 q 960 628 1038 599 q 754 657 882 657 l 733 657 l 733 1125 l 236 1125 l 201 496 q 170 257 190 339 q 115 144 150 175 q 19 117 79 113 l 19 0 m 763 113 l 733 113 l 733 543 l 760 543 q 884 522 839 543 q 949 454 929 500 q 968 331 968 408 q 947 193 968 240 q 881 129 925 146 q 763 113 838 113 "},"Њ":{"ha":1086,"x_min":88,"x_max":1047,"o":"m 88 1126 l 88 0 l 244 0 l 244 543 l 507 543 l 507 0 l 694 0 q 963 78 878 0 q 1047 329 1047 156 q 1008 528 1047 457 q 892 628 969 599 q 688 657 815 657 l 665 657 l 665 1126 l 507 1126 l 507 656 l 244 656 l 244 1126 l 88 1126 m 694 113 l 665 113 l 665 543 l 693 543 q 817 522 772 543 q 881 454 861 500 q 900 331 900 408 q 878 193 900 240 q 813 129 857 146 q 694 113 769 113 "}}}
